<svg xmlns="http://www.w3.org/2000/svg" viewBox="0 0 1440 320"><path fill="#00acc1" fill-opacity="1" d="M0,256L21.8,245.3C43.6,235,87,213,131,197.3C174.5,181,218,171,262,165.3C305.5,160,349,160,393,165.3C436.4,171,480,181,524,160C567.3,139,611,85,655,90.7C698.2,96,742,160,785,154.7C829.1,149,873,75,916,85.3C960,96,1004,192,1047,218.7C1090.9,245,1135,203,1178,186.7C1221.8,171,1265,181,1309,170.7C1352.7,160,1396,128,1418,112L1440,96L1440,0L1418.2,0C1396.4,0,1353,0,1309,0C1265.5,0,1222,0,1178,0C1134.5,0,1091,0,1047,0C1003.6,0,960,0,916,0C872.7,0,829,0,785,0C741.8,0,698,0,655,0C610.9,0,567,0,524,0C480,0,436,0,393,0C349.1,0,305,0,262,0C218.2,0,175,0,131,0C87.3,0,44,0,22,0L0,0Z"></path></svg>