<?xml version="1.0" encoding="UTF-8" standalone="no"?>
<svg xmlns:dc="http://purl.org/dc/elements/1.1/" xmlns:cc="http://creativecommons.org/ns#" xmlns:rdf="http://www.w3.org/1999/02/22-rdf-syntax-ns#" xmlns:svg="http://www.w3.org/2000/svg" xmlns="http://www.w3.org/2000/svg" xmlns:sodipodi="http://sodipodi.sourceforge.net/DTD/sodipodi-0.dtd" xmlns:inkscape="http://www.inkscape.org/namespaces/inkscape" version="1.1" id="Layer_1" x="0px" y="0px" viewBox="0 0 222.64 286.98" style="enable-background:new 0 0 222.64 286.98;" xml:space="preserve" sodipodi:docname="logo_1.svgz">
   <metadata id="metadata403">
      <rdf:RDF>
         <cc:Work rdf:about="">
            <dc:format>image/svg+xml</dc:format>
            <dc:type rdf:resource="http://purl.org/dc/dcmitype/StillImage" />
         </cc:Work>
      </rdf:RDF>
   </metadata>
   <defs id="defs401" />
   <sodipodi:namedview pagecolor="#ffffff" bordercolor="#666666" borderopacity="1" objecttolerance="10" gridtolerance="10" guidetolerance="10" inkscape:pageopacity="0" inkscape:pageshadow="2" inkscape:window-width="640" inkscape:window-height="480" id="namedview399" />
   <style type="text/css" id="style2">
	.st0{opacity:0.37;}
	.st1{fill:#858585;}
	.st2{fill:#262628;}
   .st3{fill:#FFFFFF;}
   .st7{fill:#FFFFFF;}
</style>
   <g id="g396">
      <g class="st0" id="g194">
         <g id="g48">
            <g id="g8">
               <path class="st1" d="M148.45,101.57l-21.19,21.19c-0.49,0.49,0.27,1.26,0.76,0.76l21.19-21.19      C149.71,101.84,148.94,101.08,148.45,101.57z" id="path4" />
               <path class="st1" d="M165.78,84.24l-10.12,10.12c-0.49,0.49,0.27,1.26,0.76,0.76L166.54,85      C167.04,84.51,166.27,83.75,165.78,84.24z" id="path6" />
            </g>
            <g id="g12">
               <path class="st1" d="M109.83,86.02v29.97c0,0.69,1.08,0.7,1.08,0V86.02C110.91,85.33,109.83,85.32,109.83,86.02z" id="path10" />
            </g>
            <g id="g18">
               <path class="st1" d="M71.53,102.33l21.19,21.19c0.49,0.49,1.26-0.27,0.76-0.76l-21.19-21.19      C71.8,101.08,71.04,101.84,71.53,102.33z" id="path14" />
               <path class="st1" d="M54.2,85l10.12,10.12c0.49,0.49,1.26-0.27,0.76-0.76L54.96,84.24C54.47,83.75,53.71,84.51,54.2,85z" id="path16" />
            </g>
            <g id="g24">
               <path class="st1" d="M55.98,140.95h29.97c0.69,0,0.7-1.08,0-1.08H55.98C55.29,139.87,55.29,140.95,55.98,140.95z" id="path20" />
               <path class="st1" d="M31.47,140.95h14.31c0.69,0,0.7-1.08,0-1.08H31.47C30.78,139.87,30.78,140.95,31.47,140.95z" id="path22" />
            </g>
            <g id="g30">
               <path class="st1" d="M72.29,179.25l21.19-21.19c0.49-0.49-0.27-1.26-0.76-0.76l-21.19,21.19      C71.04,178.98,71.8,179.75,72.29,179.25z" id="path26" />
               <path class="st1" d="M54.96,196.58l10.12-10.12c0.49-0.49-0.27-1.26-0.76-0.76L54.2,195.82      C53.71,196.31,54.47,197.08,54.96,196.58z" id="path28" />
            </g>
            <g id="g34">
               <path class="st1" d="M110.91,194.8v-29.97c0-0.69-1.08-0.7-1.08,0v29.97C109.83,195.5,110.91,195.5,110.91,194.8z" id="path32" />
            </g>
            <g id="g40">
               <path class="st1" d="M149.21,178.49l-21.19-21.19c-0.49-0.49-1.26,0.27-0.76,0.76l21.19,21.19      C148.94,179.74,149.71,178.98,149.21,178.49z" id="path36" />
               <path class="st1" d="M166.54,195.82l-10.12-10.12c-0.49-0.49-1.26,0.27-0.76,0.76l10.12,10.12      C166.27,197.07,167.04,196.31,166.54,195.82z" id="path38" />
            </g>
            <g id="g46">
               <path class="st1" d="M164.76,139.87H134.8c-0.69,0-0.7,1.08,0,1.08h29.97C165.46,140.95,165.46,139.87,164.76,139.87z" id="path42" />
               <path class="st1" d="M189.27,139.87h-14.31c-0.69,0-0.7,1.08,0,1.08h14.31C189.97,140.95,189.97,139.87,189.27,139.87z" id="path44" />
            </g>
         </g>
         <g id="g92">
            <g id="g54">
               <path class="st1" d="M141.4,95.62l-10.13,14.33c-0.4,0.57,0.48,1.19,0.88,0.62l10.13-14.33      C142.68,95.68,141.8,95.05,141.4,95.62z" id="path50" />
               <path class="st1" d="M152.63,79.75l-4.83,6.83c-0.4,0.57,0.48,1.19,0.88,0.62l4.83-6.83C153.91,79.81,153.03,79.18,152.63,79.75      z" id="path52" />
            </g>
            <g id="g58">
               <path class="st1" d="M100.64,86.8l2.96,17.3c0.12,0.68,1.18,0.5,1.06-0.18l-2.96-17.3C101.59,85.93,100.52,86.11,100.64,86.8z" id="path56" />
            </g>
            <g id="g64">
               <path class="st1" d="M65.58,109.38l14.33,10.13c0.57,0.4,1.19-0.48,0.62-0.88L66.2,108.5C65.64,108.1,65.01,108.98,65.58,109.38      z" id="path60" />
               <path class="st1" d="M49.71,98.16l6.83,4.83c0.57,0.4,1.19-0.48,0.62-0.88l-6.83-4.83C49.77,96.88,49.14,97.76,49.71,98.16z" id="path62" />
            </g>
            <g id="g70">
               <path class="st1" d="M56.76,150.15l17.3-2.96c0.68-0.12,0.5-1.18-0.18-1.06l-17.3,2.96C55.89,149.2,56.07,150.26,56.76,150.15z" id="path66" />
               <path class="st1" d="M37.6,153.43l8.25-1.41c0.68-0.12,0.5-1.18-0.18-1.06l-8.25,1.41C36.73,152.48,36.91,153.55,37.6,153.43z" id="path68" />
            </g>
            <g id="g74">
               <path class="st1" d="M68.12,201.07l4.83-6.83c0.4-0.57-0.48-1.19-0.88-0.62l-4.83,6.83C66.84,201.02,67.72,201.64,68.12,201.07z      " id="path72" />
            </g>
            <g id="g78">
               <path class="st1" d="M120.11,194.02l-2.96-17.3c-0.12-0.68-1.18-0.5-1.06,0.18l2.96,17.3      C119.16,194.89,120.22,194.71,120.11,194.02z" id="path76" />
            </g>
            <g id="g84">
               <path class="st1" d="M155.17,171.44l-14.33-10.13c-0.57-0.4-1.19,0.48-0.62,0.88l14.33,10.14      C155.11,172.72,155.73,171.84,155.17,171.44z" id="path80" />
               <path class="st1" d="M171.03,182.66l-6.83-4.83c-0.57-0.4-1.19,0.48-0.62,0.88l6.83,4.83      C170.98,183.95,171.6,183.07,171.03,182.66z" id="path82" />
            </g>
            <g id="g90">
               <path class="st1" d="M163.99,130.68l-17.3,2.96c-0.68,0.12-0.5,1.18,0.18,1.06l17.3-2.96      C164.85,131.62,164.67,130.56,163.99,130.68z" id="path86" />
               <path class="st1" d="M183.14,127.39l-8.25,1.41c-0.68,0.12-0.5,1.18,0.18,1.06l8.25-1.41      C184.01,128.34,183.83,127.28,183.14,127.39z" id="path88" />
            </g>
         </g>
         <g id="g142">
            <g id="g98">
               <path class="st1" d="M150.05,115.64l-6.69,4.07c-0.59,0.36-0.03,1.28,0.56,0.92l6.69-4.07      C151.21,116.2,150.65,115.28,150.05,115.64z" id="path94" />
               <path class="st1" d="M166.43,105.68l-11.3,6.88c-0.59,0.36-0.03,1.28,0.56,0.92l11.3-6.88      C167.58,106.24,167.02,105.32,166.43,105.68z" id="path96" />
            </g>
            <g id="g104">
               <path class="st1" d="M120.91,94.84l-1.85,7.61c-0.16,0.68,0.88,0.93,1.05,0.26l1.85-7.61      C122.13,94.42,121.08,94.16,120.91,94.84z" id="path100" />
               <path class="st1" d="M125.45,76.21l-3.13,12.85c-0.16,0.68,0.88,0.93,1.05,0.26l3.13-12.85      C126.66,75.79,125.61,75.54,125.45,76.21z" id="path102" />
            </g>
            <g id="g110">
               <path class="st1" d="M85.6,100.73l4.07,6.69c0.36,0.59,1.28,0.03,0.92-0.56l-4.07-6.69C86.16,99.58,85.24,100.14,85.6,100.73z" id="path106" />
               <path class="st1" d="M75.64,84.36l6.88,11.3c0.36,0.59,1.28,0.03,0.92-0.56l-6.88-11.3C76.2,83.2,75.28,83.76,75.64,84.36z" id="path108" />
            </g>
            <g id="g116">
               <path class="st1" d="M64.8,129.87l7.61,1.85c0.68,0.16,0.93-0.88,0.26-1.05l-7.61-1.85C64.38,128.66,64.12,129.7,64.8,129.87z" id="path112" />
               <path class="st1" d="M46.18,125.33l12.85,3.13c0.68,0.16,0.93-0.88,0.26-1.05l-12.85-3.13      C45.76,124.12,45.5,125.17,46.18,125.33z" id="path114" />
            </g>
            <g id="g122">
               <path class="st1" d="M70.69,165.18l6.69-4.07c0.59-0.36,0.03-1.28-0.56-0.92l-6.69,4.07C69.54,164.62,70.1,165.54,70.69,165.18z      " id="path118" />
               <path class="st1" d="M54.32,175.14l11.3-6.88c0.59-0.36,0.03-1.28-0.56-0.92l-11.3,6.88C53.16,174.58,53.72,175.51,54.32,175.14      z" id="path120" />
            </g>
            <g id="g128">
               <path class="st1" d="M99.83,185.98l1.85-7.61c0.16-0.68-0.88-0.93-1.05-0.26l-1.85,7.61C98.62,186.4,99.67,186.66,99.83,185.98z      " id="path124" />
               <path class="st1" d="M95.3,204.61l3.13-12.85c0.16-0.68-0.88-0.93-1.05-0.26l-3.13,12.85C94.08,205.03,95.13,205.29,95.3,204.61      z" id="path126" />
            </g>
            <g id="g134">
               <path class="st1" d="M135.14,180.09l-4.07-6.69c-0.36-0.59-1.28-0.03-0.92,0.56l4.07,6.69      C134.58,181.25,135.51,180.69,135.14,180.09z" id="path130" />
               <path class="st1" d="M145.11,196.47l-6.88-11.3c-0.36-0.59-1.28-0.03-0.92,0.56l6.88,11.3      C144.54,197.62,145.47,197.06,145.11,196.47z" id="path132" />
            </g>
            <g id="g140">
               <path class="st1" d="M155.95,150.95l-7.61-1.85c-0.68-0.16-0.93,0.88-0.26,1.05l7.61,1.85      C156.37,152.17,156.62,151.12,155.95,150.95z" id="path136" />
               <path class="st1" d="M174.57,155.49l-12.85-3.13c-0.68-0.16-0.93,0.88-0.26,1.05l12.85,3.13      C174.99,156.7,175.25,155.65,174.57,155.49z" id="path138" />
            </g>
         </g>
         <g id="g192">
            <g id="g148">
               <path class="st1" d="M156.93,122.76l-23.79,8.84c-0.65,0.24-0.28,1.25,0.38,1.01l23.79-8.84      C157.96,123.53,157.59,122.52,156.93,122.76z" id="path144" />
               <path class="st1" d="M166.8,119.1l-4.81,1.79c-0.65,0.24-0.28,1.25,0.38,1.01l4.81-1.79      C167.83,119.87,167.46,118.85,166.8,119.1z" id="path146" />
            </g>
            <g id="g154">
               <path class="st1" d="M130.44,94.85l-10.57,23.07c-0.29,0.63,0.69,1.08,0.98,0.45l10.57-23.07      C131.71,94.67,130.73,94.22,130.44,94.85z" id="path150" />
               <path class="st1" d="M134.82,85.28l-2.14,4.66c-0.29,0.63,0.69,1.08,0.98,0.45l2.14-4.66C136.09,85.1,135.11,84.65,134.82,85.28      z" id="path152" />
            </g>
            <g id="g160">
               <path class="st1" d="M91.96,93.85l8.84,23.79c0.24,0.65,1.25,0.28,1.01-0.38l-8.84-23.79C92.73,92.82,91.72,93.2,91.96,93.85z" id="path156" />
               <path class="st1" d="M88.29,83.98l1.79,4.81c0.24,0.65,1.25,0.28,1.01-0.38l-1.79-4.81C89.06,82.95,88.05,83.33,88.29,83.98z" id="path158" />
            </g>
            <g id="g166">
               <path class="st1" d="M64.05,120.35l23.07,10.57c0.63,0.29,1.08-0.69,0.45-0.98L64.5,119.37      C63.87,119.08,63.42,120.06,64.05,120.35z" id="path162" />
               <path class="st1" d="M54.48,115.96l4.66,2.14c0.63,0.29,1.08-0.69,0.45-0.98l-4.66-2.14C54.29,114.69,53.84,115.67,54.48,115.96      z" id="path164" />
            </g>
            <g id="g172">
               <path class="st1" d="M63.05,158.82l23.79-8.84c0.65-0.24,0.28-1.25-0.38-1.01l-23.79,8.84      C62.02,158.05,62.4,159.06,63.05,158.82z" id="path168" />
               <path class="st1" d="M53.18,162.49l4.81-1.79c0.65-0.24,0.28-1.25-0.38-1.01l-4.81,1.79C52.15,161.72,52.53,162.73,53.18,162.49      z" id="path170" />
            </g>
            <g id="g178">
               <path class="st1" d="M89.55,186.74l10.57-23.07c0.29-0.63-0.69-1.08-0.98-0.45l-10.57,23.07      C88.27,186.92,89.26,187.37,89.55,186.74z" id="path174" />
               <path class="st1" d="M85.16,196.31l2.14-4.66c0.29-0.63-0.69-1.08-0.98-0.45l-2.14,4.66C83.89,196.49,84.87,196.94,85.16,196.31      z" id="path176" />
            </g>
            <g id="g184">
               <path class="st1" d="M128.02,187.74l-8.84-23.79c-0.24-0.65-1.25-0.28-1.01,0.38l8.84,23.79      C127.25,188.76,128.26,188.39,128.02,187.74z" id="path180" />
               <path class="st1" d="M131.69,197.61l-1.79-4.81c-0.24-0.65-1.25-0.28-1.01,0.38l1.79,4.81      C130.92,198.63,131.93,198.26,131.69,197.61z" id="path182" />
            </g>
            <g id="g190">
               <path class="st1" d="M155.93,161.24l-23.07-10.57c-0.63-0.29-1.08,0.69-0.45,0.98l23.07,10.57      C156.12,162.51,156.57,161.53,155.93,161.24z" id="path186" />
               <path class="st1" d="M165.51,165.62l-4.66-2.14c-0.63-0.29-1.08,0.69-0.45,0.98l4.66,2.14      C165.69,166.89,166.14,165.91,165.51,165.62z" id="path188" />
            </g>
         </g>
      </g>
      <g id="g212">
         <g id="g210">
            <path class="st7" d="M37.32,37.67c-0.49-0.27-1.07-0.54-1.73-0.81c-0.66-0.27-1.34-0.52-2.06-0.73     c-0.72-0.22-1.44-0.39-2.18-0.52c-0.74-0.13-1.43-0.18-2.08-0.16c-1.13,0.04-2.02,0.28-2.66,0.7c-0.64,0.43-0.96,1.12-0.96,2.08     c0,0.45,0.11,0.85,0.33,1.18c0.22,0.33,0.54,0.63,0.95,0.9c0.41,0.27,0.9,0.52,1.47,0.76c0.57,0.24,1.21,0.49,1.91,0.74     c0.44,0.16,0.88,0.32,1.32,0.48c1.11,0.39,2.1,0.87,2.98,1.45c0.88,0.58,1.62,1.28,2.23,2.09c0.61,0.81,1.07,1.76,1.39,2.83     c0.32,1.08,0.48,2.31,0.48,3.71c0,1.64-0.21,3.16-0.6,4.55c-0.4,1.39-1.01,2.62-1.84,3.7c-0.83,1.07-1.9,1.97-3.19,2.69     c-1.3,0.72-2.85,1.23-4.66,1.51c-1.61,0.25-3.21,0.32-4.8,0.21c-1.59-0.11-3.2-0.5-4.81-1.19c0-2.85,0-5.69,0-8.54     c1.55,0.94,3.05,1.57,4.51,1.9c1.46,0.33,2.9,0.39,4.32,0.21c1.17-0.15,2.02-0.51,2.56-1.08c0.54-0.57,0.81-1.31,0.81-2.21     c0-0.54-0.1-0.99-0.3-1.36c-0.2-0.36-0.52-0.69-0.96-0.98c-0.44-0.28-1.01-0.56-1.72-0.83c-0.71-0.27-1.57-0.57-2.58-0.91     c-1.01-0.32-1.95-0.76-2.81-1.32c-0.86-0.56-1.6-1.28-2.23-2.14c-0.63-0.86-1.12-1.89-1.47-3.09c-0.36-1.2-0.53-2.59-0.53-4.16     c0-1.62,0.2-3.12,0.6-4.48c0.4-1.36,1.01-2.53,1.83-3.49c0.82-0.97,1.86-1.72,3.13-2.26c1.26-0.54,2.76-0.81,4.5-0.83     c0.69-0.01,1.42,0.03,2.19,0.1c0.77,0.07,1.56,0.19,2.36,0.34c0.8,0.15,1.6,0.36,2.38,0.6c0.78,0.25,1.53,0.54,2.23,0.88     C37.51,32.7,37.42,35.18,37.32,37.67z" id="path196" />
            <path class="st7" d="M53.87,61.5c-1.43,0.15-2.69,0.13-3.8-0.09c-1.11-0.21-2.08-0.57-2.91-1.08c-0.83-0.51-1.54-1.15-2.12-1.92     c-0.58-0.77-1.05-1.63-1.41-2.58c-0.36-0.95-0.62-1.97-0.78-3.05c-0.16-1.08-0.24-2.19-0.23-3.33c0-1.12,0.09-2.23,0.25-3.33     c0.17-1.1,0.43-2.16,0.8-3.18c0.37-1.02,0.84-1.96,1.42-2.82c0.58-0.86,1.29-1.62,2.14-2.26c0.84-0.64,1.82-1.16,2.93-1.54     c1.11-0.38,2.38-0.59,3.81-0.63c1.43-0.04,2.69,0.09,3.8,0.4c1.11,0.3,2.08,0.74,2.92,1.3c0.84,0.56,1.55,1.23,2.12,2     c0.58,0.77,1.05,1.62,1.4,2.54c0.36,0.92,0.62,1.89,0.78,2.9c0.16,1.01,0.24,2.04,0.23,3.09c0,1.06-0.09,2.11-0.26,3.15     c-0.17,1.04-0.43,2.04-0.8,2.99c-0.37,0.95-0.84,1.85-1.43,2.69c-0.59,0.84-1.3,1.58-2.14,2.24c-0.84,0.65-1.81,1.2-2.92,1.64     C56.57,61.05,55.3,61.35,53.87,61.5z M50.44,48.85c0,0.83,0.05,1.63,0.17,2.41c0.12,0.78,0.31,1.47,0.58,2.06     c0.27,0.6,0.62,1.06,1.06,1.39c0.44,0.33,0.99,0.47,1.64,0.41c0.65-0.06,1.2-0.29,1.64-0.7c0.44-0.41,0.8-0.92,1.07-1.55     c0.27-0.63,0.47-1.34,0.6-2.12c0.12-0.78,0.19-1.58,0.19-2.39c0-0.81-0.05-1.6-0.17-2.36c-0.12-0.77-0.31-1.45-0.58-2.04     c-0.27-0.59-0.62-1.07-1.06-1.43c-0.44-0.36-0.99-0.52-1.64-0.49c-0.65,0.03-1.2,0.25-1.64,0.65c-0.44,0.4-0.8,0.92-1.07,1.56     c-0.27,0.64-0.47,1.35-0.6,2.15C50.51,47.21,50.45,48.02,50.44,48.85z" id="path198" />
            <path class="st7" d="M91.36,58.2c-2.61,0.09-5.22,0.21-7.83,0.34c0.06-0.49,0.11-0.98,0.17-1.47c0.05-0.46,0.09-0.97,0.13-1.53     c0.04-0.57,0.07-1.16,0.1-1.77c-0.37,0.85-0.82,1.62-1.38,2.3c-0.55,0.69-1.16,1.28-1.83,1.79c-0.67,0.51-1.38,0.91-2.13,1.2     c-0.75,0.29-1.51,0.47-2.27,0.52c-0.94,0.06-1.84-0.06-2.69-0.37c-0.85-0.31-1.59-0.84-2.24-1.6c-0.64-0.76-1.16-1.76-1.53-3.01     c-0.38-1.25-0.56-2.77-0.55-4.58c0.02-4.71,0.03-9.42,0.05-14.12c2.61-0.06,5.22-0.11,7.83-0.16c-0.01,4.34-0.03,8.69-0.04,13.03     c0,0.89,0.06,1.63,0.2,2.22c0.14,0.59,0.33,1.07,0.57,1.43c0.24,0.36,0.52,0.61,0.83,0.76c0.31,0.15,0.65,0.21,1,0.2     c0.41-0.02,0.83-0.14,1.24-0.36c0.42-0.22,0.8-0.51,1.15-0.86c0.35-0.36,0.64-0.77,0.89-1.24c0.25-0.47,0.42-0.97,0.5-1.5     c0.01-4.6,0.03-9.2,0.04-13.81c2.61-0.04,5.22-0.07,7.84-0.1C91.39,43.08,91.38,50.64,91.36,58.2z" id="path200" />
            <path class="st7" d="M110.28,28.45c5.85,0,11.7,0.01,17.55,0.02c0,1.83,0.01,3.66,0.01,5.49c-3.14-0.02-6.29-0.04-9.43-0.05     c0,2.09,0,4.19,0.01,6.28c2.76,0.02,5.52,0.04,8.28,0.08c0,2.01,0.01,4.02,0.01,6.03c-2.76-0.05-5.52-0.08-8.28-0.11     c0,3.9,0.01,7.8,0.01,11.7c-2.72-0.04-5.43-0.05-8.15-0.04C110.27,48.04,110.28,38.25,110.28,28.45z" id="path202" />
            <path class="st7" d="M141.79,59.3c-1.43-0.08-2.7-0.3-3.82-0.67c-1.12-0.37-2.09-0.84-2.93-1.42c-0.84-0.58-1.55-1.26-2.14-2.03     c-0.59-0.77-1.07-1.6-1.43-2.5c-0.37-0.89-0.63-1.83-0.8-2.82c-0.17-0.98-0.25-1.98-0.25-2.99c0-0.99,0.08-1.98,0.24-2.95     c0.16-0.97,0.42-1.9,0.78-2.78c0.36-0.88,0.83-1.7,1.41-2.44c0.58-0.74,1.29-1.38,2.13-1.93c0.84-0.54,1.81-0.97,2.93-1.27     c1.11-0.3,2.38-0.44,3.81-0.42c1.43,0.02,2.7,0.2,3.81,0.55c1.11,0.34,2.09,0.81,2.93,1.4c0.84,0.59,1.56,1.28,2.14,2.07     c0.58,0.79,1.06,1.65,1.42,2.59c0.37,0.93,0.63,1.91,0.8,2.93c0.17,1.02,0.25,2.04,0.26,3.08c0,1.05-0.07,2.08-0.23,3.08     c-0.16,1.01-0.42,1.96-0.78,2.85c-0.36,0.89-0.83,1.71-1.42,2.44c-0.58,0.74-1.29,1.36-2.13,1.86c-0.83,0.51-1.81,0.88-2.92,1.13     C144.49,59.3,143.21,59.38,141.79,59.3z M138.26,47.09c0,0.76,0.06,1.51,0.19,2.24c0.12,0.73,0.32,1.39,0.6,1.97     c0.27,0.58,0.63,1.06,1.08,1.43c0.44,0.37,0.99,0.57,1.65,0.6c0.65,0.03,1.2-0.12,1.64-0.45c0.44-0.33,0.8-0.77,1.07-1.34     c0.27-0.57,0.46-1.21,0.58-1.95c0.12-0.73,0.18-1.48,0.17-2.26c0-0.77-0.07-1.53-0.19-2.27c-0.12-0.74-0.32-1.41-0.6-1.99     c-0.27-0.59-0.63-1.07-1.08-1.43c-0.44-0.37-0.99-0.56-1.64-0.58c-0.65-0.02-1.2,0.15-1.64,0.49c-0.44,0.34-0.8,0.8-1.07,1.36     c-0.27,0.57-0.47,1.21-0.58,1.94C138.32,45.58,138.26,46.32,138.26,47.09z" id="path204" />
            <path class="st7" d="M164.92,61.11c-1.18-0.12-2.31-0.47-3.38-1.06c-1.07-0.59-2.01-1.43-2.82-2.52     c-0.81-1.09-1.45-2.43-1.94-4.04c-0.48-1.6-0.73-3.48-0.74-5.65c-0.01-2.28,0.23-4.21,0.71-5.78c0.48-1.57,1.12-2.84,1.92-3.81     c0.79-0.97,1.7-1.67,2.73-2.08c1.03-0.42,2.08-0.61,3.17-0.58c0.69,0.02,1.38,0.14,2.07,0.35c0.69,0.22,1.34,0.51,1.94,0.89     c0.61,0.38,1.15,0.82,1.64,1.32c0.48,0.51,0.87,1.05,1.15,1.65c-0.02-4.62-0.03-9.25-0.05-13.87c2.61,0,5.22,0,7.83,0     c0.04,12.04,0.08,24.09,0.12,36.13c-2.6-0.32-5.21-0.63-7.82-0.92c0-1.36-0.01-2.72-0.01-4.08c-0.32,0.72-0.72,1.35-1.19,1.88     c-0.47,0.54-0.99,0.98-1.56,1.32c-0.57,0.34-1.18,0.59-1.82,0.73C166.22,61.13,165.58,61.17,164.92,61.11z M163.88,48.32     c0,1.23,0.12,2.26,0.34,3.09c0.22,0.84,0.51,1.52,0.87,2.05c0.36,0.53,0.76,0.92,1.22,1.18c0.45,0.26,0.92,0.4,1.39,0.45     c0.47,0.04,0.93-0.03,1.38-0.21c0.45-0.18,0.84-0.51,1.19-0.99c0.35-0.48,0.63-1.14,0.83-1.97c0.21-0.83,0.31-1.87,0.31-3.13     c0-1.24-0.11-2.29-0.33-3.15c-0.21-0.86-0.5-1.56-0.85-2.1c-0.35-0.54-0.75-0.93-1.19-1.17c-0.44-0.24-0.9-0.37-1.37-0.4     c-0.47-0.02-0.93,0.07-1.39,0.26c-0.45,0.2-0.86,0.54-1.22,1.03c-0.36,0.49-0.65,1.15-0.86,1.97     C163.98,46.07,163.87,47.09,163.88,48.32z" id="path206" />
            <path class="st7" d="M189.59,64.14c-0.77-0.11-1.51-0.37-2.21-0.76c-0.7-0.39-1.33-0.92-1.87-1.58c-0.54-0.66-0.98-1.47-1.3-2.41     c-0.32-0.94-0.48-2.02-0.49-3.25c0-1.18,0.14-2.19,0.42-3.03c0.29-0.84,0.67-1.55,1.16-2.13c0.49-0.58,1.06-1.05,1.71-1.4     c0.66-0.35,1.35-0.62,2.09-0.79c0.73-0.17,1.49-0.27,2.27-0.29c0.78-0.02,1.53,0,2.27,0.07c0.51,0.05,0.99,0.11,1.46,0.18     c0.47,0.08,0.91,0.16,1.32,0.25c-0.03-1.06-0.17-1.94-0.44-2.66c-0.27-0.72-0.62-1.29-1.05-1.73c-0.43-0.44-0.94-0.76-1.52-0.97     c-0.58-0.21-1.19-0.33-1.83-0.37c-0.59-0.04-1.2-0.03-1.82,0.04c-0.62,0.06-1.23,0.15-1.82,0.27c-0.59,0.11-1.15,0.24-1.69,0.38     c-0.54,0.14-1.01,0.27-1.42,0.39c-0.01-2.24-0.01-4.48-0.02-6.72c0.59-0.15,1.23-0.3,1.91-0.44c0.68-0.14,1.39-0.26,2.13-0.36     c0.74-0.1,1.49-0.17,2.25-0.23c0.77-0.05,1.52-0.06,2.27-0.03c0.93,0.04,1.84,0.16,2.74,0.36c0.9,0.2,1.75,0.5,2.55,0.91     c0.8,0.41,1.54,0.95,2.23,1.62c0.68,0.67,1.27,1.49,1.75,2.46c0.49,0.97,0.87,2.1,1.15,3.4c0.28,1.3,0.42,2.79,0.41,4.47     c0,5.31,0,10.63,0,15.94c-2.47-0.42-4.94-0.83-7.42-1.22c0-1.5,0-3-0.01-4.5c-0.29,0.78-0.69,1.46-1.21,2.02     c-0.52,0.57-1.1,1.02-1.75,1.37c-0.65,0.35-1.34,0.58-2.07,0.7C191.04,64.24,190.32,64.25,189.59,64.14z M192.63,58.79     c0.34,0.04,0.72-0.03,1.16-0.23c0.44-0.2,0.85-0.54,1.24-1.02c0.39-0.48,0.72-1.12,0.99-1.9c0.27-0.79,0.4-1.75,0.4-2.89     c-0.2-0.02-0.4-0.04-0.6-0.06c-0.58-0.06-1.17-0.04-1.78,0.06c-0.61,0.1-1.16,0.29-1.67,0.56c-0.5,0.28-0.92,0.63-1.24,1.07     c-0.32,0.44-0.49,0.97-0.48,1.59c0,0.49,0.06,0.91,0.18,1.25c0.12,0.34,0.27,0.63,0.46,0.86c0.19,0.23,0.4,0.4,0.63,0.51     C192.17,58.69,192.4,58.76,192.63,58.79z" id="path208" />
         </g>
      </g>
      <g id="g314">
         <g id="g216">
            <path class="st3" d="M98.03,132.16l-1.26-1.2c-1.24-1.17-1.95-2.81-1.95-4.5c0-3.43,2.79-6.21,6.21-6.21s6.21,2.79,6.21,6.21     c0,1.69-0.71,3.34-1.95,4.51l-1.26,1.19H98.03z" id="path214" />
         </g>
         <g id="g220">
            <polygon class="st3" points="89.49,133.26 90.3,113.54 95.63,116.9 102.02,109.59 102.67,125.17 102.82,128.72 103,133.26    " id="polygon218" />
         </g>
         <g id="g224">
            <path class="st3" d="M101.04,117.25c-3.43,0-6.21-2.79-6.21-6.21c0-3.43,2.79-6.21,6.21-6.21s6.21,2.79,6.21,6.21     C107.25,114.46,104.46,117.25,101.04,117.25z" id="path222" />
         </g>
         <g id="g228">

            <ellipse transform="matrix(0.2025 -0.9793 0.9793 0.2025 -13.0613 175.1928)" class="st3" cx="101.04" cy="95.62" rx="6.21" ry="6.21" id="ellipse226" />
         </g>
         <g id="g232">
            <path class="st3" d="M95.68,104.83l-5.19,1.2l0.38-5.86c0.03-0.46,0.07-0.93,0.11-1.4l0.04-0.38c0.06-0.45,0.14-0.9,0.22-1.35     c0.03-0.18,0.12-0.7,0.12-0.7l0.03-0.15c0.11-0.47,0.24-0.93,0.37-1.39l0.17-0.61c0.87-2.76,2.32-5.37,4.18-7.54     c1.74-2.04,3.89-3.75,6.2-4.93l4.78,7.25c0.2-0.17,0.36-0.4,0.44-0.67l-0.41,1.32l-1.1,0.84c-0.82,0.62-1.55,1.38-2.17,2.25     c-0.88,1.22-1.52,2.64-1.87,4.11c-0.03,0.18-0.07,0.37-0.1,0.55c-0.04,0.21-0.08,0.42-0.12,0.63c-0.02,0.18-0.03,0.37-0.05,0.55     c-0.02,0.2-0.04,0.4-0.05,0.61v8.91L95.68,104.83z" id="path230" />
         </g>
         <g id="g236">
            <path class="st3" d="M95.9,124.96c-1.99,0-3.87-0.96-5.03-2.57c-0.76-1.01-1.18-2.3-1.18-3.65c0-1.49,0.54-2.93,1.52-4.07     c1.17-1.36,2.88-2.15,4.7-2.15c3.43,0,6.21,2.79,6.21,6.21C102.11,122.18,99.32,124.96,95.9,124.96z" id="path234" />
         </g>
         <g id="g240">
            <path class="st3" d="M111.32,215.58c-1.84,0-3.77-0.04-6.08-0.12l-4.21-0.15v-5.38c-1.07-0.87-1.76-2.19-1.76-3.67v-7.11     c0-1.48,0.69-2.81,1.76-3.67v-1.52h-1.68c-13.51,0-24.5-10.99-24.5-24.5v-25.24c-2.42-1.2-4.09-3.69-4.09-6.57     c0-2.88,1.67-5.37,4.09-6.57v-0.79c0-3.63,2.95-6.58,6.58-6.58c1.1,0,2.14,0.27,3.05,0.75v-22.56c0-14.8,12.04-26.84,26.84-26.84     c14.8,0,26.84,12.04,26.84,26.84v22.56c0.91-0.48,1.95-0.75,3.05-0.75c3.63,0,6.58,2.95,6.58,6.58v0.79     c2.42,1.2,4.09,3.69,4.09,6.57c0,2.88-1.67,5.37-4.09,6.57v25.24c0,13.51-10.99,24.5-24.5,24.5h-1.68v1.52     c1.07,0.87,1.76,2.19,1.76,3.67v7.11c0,1.48-0.69,2.81-1.76,3.67v5.38l-4.21,0.15C115.09,215.54,113.16,215.58,111.32,215.58z      M98.51,142.79l5.9-0.23v-7.04c-1.91,0.02-3.88,0.06-5.9,0.11V142.79z M126.66,124.53v-22.64c0-8.46-6.88-15.34-15.35-15.34     c-8.46,0-15.34,6.88-15.34,15.34v22.64H126.66z" id="path238" />
         </g>
         <g id="g244">
            <path class="st3" d="M105.75,89.27c0.15,0.04,0.3,0.06,0.43,0.06c0.11,0,0.22-0.01,0.32-0.03l-2.36-8.37     c2.14-0.83,4.37-1.25,6.63-1.25c0.24,0,0.48,0,0.73,0.01l0.01,8.73c-1.05,0.04-2.08,0.27-3.06,0.66l-1.31,0.53L105.75,89.27z" id="path242" />
         </g>
         <g id="g248">
            <path class="st3" d="M95.9,109.54c-1.04,0-2.07-0.26-2.98-0.76c-1.97-1.04-3.24-3.14-3.24-5.45c0-2.49,1.48-4.73,3.76-5.71     c0.79-0.33,1.61-0.5,2.45-0.5c1.92,0,3.71,0.87,4.89,2.39c0.84,1.04,1.32,2.42,1.32,3.83c0,1.22-0.36,2.4-1.03,3.43     C99.92,108.5,97.98,109.54,95.9,109.54z" id="path246" />
         </g>
         <g id="g252">
            <path class="st3" d="M97.62,150.75v-23.08l4.45,0.08c0.94,0.02,1.88,0.03,2.83,0.04l4.32,0.05v22.91H97.62z" id="path250" />
         </g>
         <g id="g256">
            <polygon class="st3" points="95.64,120.48 89.89,123.44 90.86,100.18 95.68,101.76 101.53,97.87 102.77,127.39    " id="polygon254" />
         </g>
         <g id="g260">

            <ellipse transform="matrix(0.1606 -0.987 0.987 0.1606 -28.0777 204.4833)" class="st3" cx="106.18" cy="118.75" rx="6.21" ry="6.21" id="ellipse258" />
         </g>
         <g id="g264">
            <path class="st3" d="M118.6,132.16l-1.26-1.2c-1.24-1.17-1.95-2.81-1.95-4.5c0-3.43,2.79-6.21,6.21-6.21s6.21,2.79,6.21,6.21     c0,1.69-0.71,3.33-1.95,4.5l-1.26,1.2H118.6z" id="path262" />
         </g>
         <g id="g268">
            <path class="st3" d="M116.46,94.12c-3.43,0-6.21-2.79-6.21-6.21c0-3.43,2.79-6.21,6.21-6.21c3.43,0,6.21,2.79,6.21,6.21     C122.67,91.33,119.88,94.12,116.46,94.12z" id="path266" />
         </g>
         <g id="g272">

            <ellipse transform="matrix(0.9232 -0.3844 0.3844 0.9232 -35.9107 57.847)" class="st3" cx="126.74" cy="118.75" rx="6.21" ry="6.21" id="ellipse270" />
         </g>
         <g id="g276">

            <ellipse transform="matrix(0.7071 -0.7071 0.7071 0.7071 -35.9415 119.8826)" class="st3" cx="126.74" cy="103.33" rx="6.21" ry="6.21" id="ellipse274" />
         </g>
         <g id="g280">

            <ellipse transform="matrix(0.7071 -0.7071 0.7071 0.7071 -38.9528 112.6125)" class="st3" cx="116.46" cy="103.33" rx="6.21" ry="6.21" id="ellipse278" />
         </g>
         <g id="g284">
            <path class="st3" d="M121.6,101.83c-3.43,0-6.21-2.79-6.21-6.21c0-3.43,2.79-6.21,6.21-6.21s6.21,2.79,6.21,6.21     C127.81,99.04,125.03,101.83,121.6,101.83z" id="path282" />
         </g>
         <g id="g288">
            <path class="st3" d="M121.6,117.25c-3.43,0-6.21-2.79-6.21-6.21c0-3.43,2.79-6.21,6.21-6.21s6.21,2.79,6.21,6.21     C127.81,114.46,125.03,117.25,121.6,117.25z" id="path286" />
         </g>
         <g id="g292">

            <ellipse transform="matrix(0.7071 -0.7071 0.7071 0.7071 -31.0599 100.8266)" class="st3" cx="106.18" cy="87.91" rx="6.21" ry="6.21" id="ellipse290" />
         </g>
         <g id="g296">
            <path class="st3" d="M108.31,132.16l-1.26-1.2c-1.24-1.17-1.95-2.81-1.95-4.5c0-3.43,2.79-6.21,6.21-6.21     c3.43,0,6.21,2.79,6.21,6.21c0,1.69-0.71,3.34-1.95,4.51l-1.26,1.19H108.31z" id="path294" />
         </g>
         <g id="g300">

            <ellipse transform="matrix(0.2305 -0.9731 0.9731 0.2305 -18.8392 182.8302)" class="st3" cx="106.18" cy="103.33" rx="6.21" ry="6.21" id="ellipse298" />
         </g>
         <g id="g304">
            <path class="st3" d="M111.32,117.25c-3.43,0-6.21-2.79-6.21-6.21c0-3.43,2.79-6.21,6.21-6.21c3.43,0,6.21,2.79,6.21,6.21     C117.53,114.46,114.74,117.25,111.32,117.25z" id="path302" />
         </g>
         <g id="g308">

            <ellipse transform="matrix(0.2017 -0.9795 0.9795 0.2017 -4.7819 185.3652)" class="st3" cx="111.32" cy="95.62" rx="6.21" ry="6.21" id="ellipse306" />
         </g>
         <g id="g312">

            <ellipse transform="matrix(0.9232 -0.3844 0.3844 0.9232 -36.7007 53.8946)" class="st3" cx="116.46" cy="118.75" rx="6.21" ry="6.21" id="ellipse310" />
         </g>
      </g>
      <g id="g368">
         <g id="g366">
            <path class="st2" d="M101.04,124.61c-1.02,0-1.84,0.83-1.84,1.84c0,0.5,0.21,0.98,0.58,1.33h2.53c0.37-0.35,0.58-0.83,0.58-1.33     C102.88,125.44,102.05,124.61,101.04,124.61z" id="path316" />
            <path class="st2" d="M98.41,127.77l-0.1-2.42l-0.19-4.66c-0.54,0.62-1.33,1.01-2.21,1.01c-0.57,0-1.1-0.16-1.55-0.44l-0.27,6.61     l-0.04,1.03h4.42l-0.04-1.03L98.41,127.77z" id="path318" />
            <path class="st2" d="M101.04,109.19c-1.02,0-1.84,0.83-1.84,1.84c0,1.02,0.83,1.85,1.84,1.85c1.02,0,1.85-0.83,1.85-1.85     C102.88,110.02,102.05,109.19,101.04,109.19z" id="path320" />
            <path class="st2" d="M101.04,93.77c-1.02,0-1.84,0.83-1.84,1.84c0,1.02,0.83,1.84,1.84,1.84c1.02,0,1.85-0.83,1.85-1.84     C102.88,94.6,102.05,93.77,101.04,93.77z" id="path322" />
            <path class="st2" d="M99.44,89.51c-1.49,1.74-2.63,3.8-3.33,6.01c-0.15,0.56-0.33,1.12-0.46,1.68c-0.09,0.57-0.22,1.15-0.29,1.73     c-0.04,0.5-0.09,1.02-0.13,1.53c0.22-0.05,0.44-0.08,0.67-0.08c0.5,0,0.97,0.13,1.39,0.35v-1.65c0.02-0.52,0.09-1.04,0.13-1.57     c0.08-0.52,0.19-1.03,0.29-1.56c0.47-2.06,1.35-4.04,2.6-5.77c0.86-1.19,1.89-2.27,3.06-3.17c0.17-0.55,0.5-1.02,0.93-1.38     C102.46,86.57,100.8,87.91,99.44,89.51z" id="path324" />
            <path class="st2" d="M95.9,120.6c1.02,0,1.84-0.83,1.84-1.85c0-1.02-0.83-1.84-1.84-1.84c-0.56,0-1.05,0.24-1.39,0.63     c-0.28,0.33-0.45,0.75-0.45,1.21c0,0.41,0.13,0.79,0.36,1.09C94.74,120.3,95.29,120.6,95.9,120.6z" id="path326" />
            <path class="st2" d="M78.09,140.6h1.13v28.85c0,11.1,9.03,20.14,20.14,20.14h6.05v8.32l4.08,0.89h-5.49     c-0.19,0-0.35,0.16-0.35,0.35v7.11c0,0.19,0.16,0.35,0.35,0.35h12.47l-11.06,0.89v3.6c1.97,0.07,3.95,0.12,5.92,0.12     c1.97,0,3.95-0.05,5.92-0.12v-4.49h1.41c0.19,0,0.35-0.16,0.35-0.35v-7.11c0-0.19-0.16-0.35-0.35-0.35h-1.41v-9.21h6.05     c11.1,0,20.14-9.03,20.14-20.14V140.6h1.13c1.63,0,2.96-1.33,2.96-2.96c0-1.63-1.33-2.96-2.96-2.96h-1.13v-4.4     c0-1.22-0.99-2.21-2.21-2.21c-1.22,0-2.21,0.99-2.21,2.21v2.82h-2.19v-1.14c0-1.68-1.35-3.04-3.02-3.06v-27.01     c0-12.39-10.08-22.47-22.47-22.47S88.85,89.5,88.85,101.89v27.01c-1.67,0.02-3.02,1.38-3.02,3.06v1.14h-2.19v-2.82     c0-1.22-0.99-2.21-2.21-2.21c-1.22,0-2.21,0.99-2.21,2.21v4.4h-1.13c-1.63,0-2.96,1.33-2.96,2.96     C75.13,139.27,76.46,140.6,78.09,140.6z M108.79,204.95h-2.87c-0.34,0-0.62-0.28-0.62-0.62v-3.25c0-0.34,0.28-0.62,0.62-0.62     h2.87V204.95z M143.42,137.44h1.13c0.11,0,0.2,0.09,0.2,0.2s-0.09,0.2-0.2,0.2h-1.13V137.44z M110.93,204.95h-1.11v-4.5h1.11     V204.95z M139.33,176.17c0.47-1.27,0.89-2.58,1.06-3.93l0.14-1.01l0.05-1.02c0.05-0.67,0.04-1.37,0.03-2.08l-0.01-4.21     c0.01-5.61,0.04-11.22,0.13-16.83c0.02-1.64,0.05-3.29,0.09-4.93c0.01-0.53,0.02-1.05,0.04-1.58c0.05-1.97,0.11-3.95,0.18-5.92     c0.02-0.53,0.04-1.05,0.06-1.58c0.03-0.94,0.07-1.88,0.11-2.82c0.04,0.94,0.08,1.88,0.11,2.82c0.02,0.53,0.04,1.05,0.06,1.58     c0.07,1.97,0.13,3.95,0.18,5.92c0.01,0.53,0.03,1.05,0.04,1.58c0.04,1.64,0.07,3.29,0.09,4.93c0.1,5.61,0.12,11.22,0.13,16.83     l-0.01,4.21c0,0.7,0,1.4-0.05,2.13l-0.06,1.08l-0.17,1.07c-0.22,1.43-0.68,2.81-1.22,4.15c-0.15,0.33-0.32,0.65-0.47,0.97     c-0.17,0.32-0.3,0.66-0.51,0.95c-0.39,0.61-0.74,1.24-1.21,1.79c-1.74,2.29-4,4.19-6.59,5.38c-2.59,1.19-5.43,1.81-8.24,1.69     c5.62-0.24,10.94-3.13,14.07-7.63c0.42-0.54,0.73-1.15,1.09-1.73C138.78,177.42,139.04,176.78,139.33,176.17z M136.82,135.86     h2.19v3.56h-2.19V135.86z M91.61,101.89c0-10.87,8.84-19.71,19.71-19.71s19.71,8.84,19.71,19.71v27.01H91.61V101.89z      M83.63,135.86h2.19v3.56h-2.19V135.86z M83.63,142.18h2.19v1.14c0,1.68,1.35,3.04,3.02,3.06v0h0.04h5.26v-2.76V131.9     c-1.76-0.07-3.53-0.15-5.29-0.25c7.23-0.41,14.47-0.52,21.7-0.55c3.62-0.01,7.23,0.02,10.85,0.1c3.62,0.07,7.23,0.22,10.85,0.45     c-3.62,0.23-7.23,0.38-10.85,0.45c-3.62,0.08-7.23,0.11-10.85,0.1c-0.59,0-1.18-0.01-1.78-0.01v11.43v2.76H119l-10.23,0.39     l-3.92,0.15l-2.86,0.11l-7.85,0.3l-5.29,0.2v3.8v12.99c0,9.77,7.95,17.72,17.72,17.72h9.5c9.77,0,17.72-7.95,17.72-17.72v-12.99     v-4.96v0c1.67-0.02,3.02-1.38,3.02-3.06v-1.14h2.19v27.27c0,8.67-7.05,15.72-15.72,15.72H99.35c-8.67,0-15.72-7.05-15.72-15.72     V142.18z M105.84,174.29c0.02,0.17,0.05,0.34,0.09,0.51c0.04,0.19,0.09,0.37,0.14,0.56v0c0.13,0.43,0.29,0.85,0.47,1.26     c0.12,0.27,0.26,0.53,0.41,0.78c-0.32-0.27-0.59-0.58-0.84-0.93c-0.33-0.47-0.59-1.01-0.79-1.59c-0.21-0.6-0.35-1.25-0.42-1.91     c-0.04-0.37-0.06-0.75-0.06-1.13v-12.28v-8.22h3.92v20.5c0,1,0.03,1.86,0.08,2.59c0.06,0.98,0.16,1.75,0.26,2.32     c-0.61-0.73-1.1-1.54-1.38-2.42c-0.12-0.37-0.2-0.75-0.25-1.14c0-0.01,0-0.02,0-0.03l-0.03-0.3l-0.02-0.34l-0.04-0.69l-0.16-2.76     l-0.62-11.05l-0.62,11.05l-0.1,1.78l-0.06,0.98l-0.04,0.69l-0.02,0.35l0,0.39C105.77,173.59,105.79,173.94,105.84,174.29z      M100.6,172.64c0.09,0.16,0.18,0.31,0.27,0.46c-1.24-1.3-2.11-2.89-2.16-4.61l-0.84-14.9l-0.84,14.92c-0.02,1.4,0.39,2.8,1.05,4     c0.12,0.22,0.25,0.43,0.38,0.64c-1.26-1.31-2.15-2.91-2.21-4.66l-0.84-14.9l-0.84,14.92c-0.02,1.4,0.39,2.8,1.05,4     c0.26,0.47,0.55,0.91,0.87,1.33c-1.39-1.52-2.35-3.36-2.35-5.43v-17.08h7.85v17.08c0,1.12,0,2.09,0.03,2.95     c-0.46-0.85-0.75-1.77-0.78-2.74l-0.84-14.9l-0.84,14.92C99.53,170.05,99.94,171.44,100.6,172.64z M80.95,147.11     c0.02-1.64,0.05-3.29,0.09-4.93c0.01-0.53,0.02-1.05,0.04-1.58c0.05-1.97,0.11-3.95,0.18-5.92c0.02-0.53,0.04-1.05,0.06-1.58     c0.03-0.94,0.07-1.88,0.11-2.82c0.04,0.94,0.08,1.88,0.11,2.82c0.02,0.53,0.04,1.05,0.06,1.58c0.07,1.97,0.13,3.95,0.18,5.92     c0.01,0.53,0.03,1.05,0.04,1.58c0.04,1.64,0.07,3.29,0.09,4.93c0.1,5.61,0.12,11.22,0.14,16.83l-0.01,4.21     c0,0.7-0.01,1.41,0.03,2.08l0.05,1.02l0.15,1.01c0.17,1.35,0.59,2.65,1.06,3.92c0.55,1.24,1.16,2.47,1.97,3.57     c3.13,4.5,8.45,7.39,14.07,7.64c-2.81,0.13-5.66-0.49-8.24-1.69c-2.59-1.2-4.86-3.09-6.6-5.38c-0.47-0.55-0.82-1.18-1.21-1.79     c-0.21-0.3-0.34-0.63-0.51-0.95c-0.16-0.32-0.32-0.65-0.48-0.97c-0.53-1.34-1-2.72-1.22-4.16l-0.17-1.07l-0.06-1.08     c-0.05-0.73-0.05-1.43-0.05-2.13l-0.01-4.21C80.82,158.33,80.85,152.72,80.95,147.11z M78.09,137.44h1.13v0.4h-1.13     c-0.11,0-0.2-0.09-0.2-0.2S77.98,137.44,78.09,137.44z" id="path328" />
            <path class="st2" d="M106.81,85.03c1.42-0.57,2.95-0.91,4.51-0.98c-1.89-0.08-3.8,0.25-5.6,0.94c0.15-0.03,0.3-0.04,0.46-0.04     C106.39,84.96,106.61,84.98,106.81,85.03z" id="path330" />
            <path class="st2" d="M95.03,104.95c0.26,0.14,0.55,0.22,0.87,0.22c0.64,0,1.2-0.33,1.53-0.82c0.19-0.29,0.31-0.65,0.31-1.02     c0-0.43-0.15-0.83-0.4-1.14c-0.34-0.43-0.86-0.71-1.45-0.71c-0.26,0-0.51,0.06-0.73,0.15c-0.66,0.28-1.12,0.94-1.12,1.69     C94.05,104.03,94.45,104.64,95.03,104.95z" id="path332" />
            <path class="st2" d="M104.85,143.62v-11.46c-0.95-0.01-1.9-0.03-2.86-0.04v11.5v2.76h2.86V143.62z" id="path334" />
            <path class="st2" d="M94.98,106.13l-0.41,9.99c0.4-0.2,0.85-0.32,1.33-0.32c0.8,0,1.52,0.32,2.05,0.83l-0.45-10.83     c-0.46,0.3-1.01,0.47-1.6,0.47C95.58,106.27,95.27,106.22,94.98,106.13z" id="path336" />
            <path class="st2" d="M106.18,116.9c-1.02,0-1.85,0.83-1.85,1.85c0,1.02,0.83,1.84,1.85,1.84c1.02,0,1.84-0.83,1.84-1.84     C108.02,117.73,107.2,116.9,106.18,116.9z" id="path338" />
            <path class="st2" d="M121.6,124.61c-1.02,0-1.85,0.83-1.85,1.84c0,0.5,0.21,0.98,0.58,1.33h2.53c0.37-0.35,0.58-0.83,0.58-1.33     C123.44,125.44,122.62,124.61,121.6,124.61z" id="path340" />
            <path class="st2" d="M116.46,86.06c-1.02,0-1.84,0.83-1.84,1.84c0,1.02,0.83,1.84,1.84,1.84c1.02,0,1.85-0.83,1.85-1.84     C118.3,86.89,117.48,86.06,116.46,86.06z" id="path342" />
            <path class="st2" d="M126.74,116.9c-1.02,0-1.85,0.83-1.85,1.85c0,1.02,0.83,1.84,1.85,1.84c1.02,0,1.84-0.83,1.84-1.84     C128.59,117.73,127.76,116.9,126.74,116.9z" id="path344" />
            <path class="st2" d="M126.74,101.48c-1.02,0-1.85,0.83-1.85,1.85c0,1.02,0.83,1.84,1.85,1.84c1.02,0,1.84-0.83,1.84-1.84     C128.59,102.31,127.76,101.48,126.74,101.48z" id="path346" />
            <path class="st2" d="M116.46,101.48c-1.02,0-1.84,0.83-1.84,1.85c0,1.02,0.83,1.84,1.84,1.84c1.02,0,1.85-0.83,1.85-1.84     C118.3,102.31,117.48,101.48,116.46,101.48z" id="path348" />
            <path class="st2" d="M121.6,93.77c-1.02,0-1.85,0.83-1.85,1.84c0,1.02,0.83,1.84,1.85,1.84c1.02,0,1.84-0.83,1.84-1.84     C123.44,94.6,122.62,93.77,121.6,93.77z" id="path350" />
            <path class="st2" d="M121.6,109.19c-1.02,0-1.85,0.83-1.85,1.84c0,1.02,0.83,1.85,1.85,1.85c1.02,0,1.84-0.83,1.84-1.85     C123.44,110.02,122.62,109.19,121.6,109.19z" id="path352" />
            <path class="st2" d="M106.18,86.06c-1.02,0-1.84,0.82-1.84,1.84c0,1.02,0.83,1.84,1.84,1.84c1.02,0,1.84-0.83,1.84-1.84     C108.02,86.88,107.19,86.06,106.18,86.06z" id="path354" />
            <path class="st2" d="M111.32,124.61c-1.02,0-1.84,0.83-1.84,1.84c0,0.5,0.21,0.98,0.58,1.33h2.53c0.37-0.35,0.58-0.83,0.58-1.33     C113.16,125.44,112.34,124.61,111.32,124.61z" id="path356" />
            <path class="st2" d="M106.18,101.48c-1.02,0-1.85,0.83-1.85,1.85c0,1.02,0.83,1.84,1.85,1.84c1.02,0,1.84-0.83,1.84-1.84     C108.02,102.31,107.2,101.48,106.18,101.48z" id="path358" />
            <path class="st2" d="M111.32,109.19c-1.02,0-1.84,0.83-1.84,1.84c0,1.02,0.83,1.85,1.84,1.85c1.02,0,1.85-0.83,1.85-1.85     C113.16,110.02,112.34,109.19,111.32,109.19z" id="path360" />
            <path class="st2" d="M111.32,93.77c-1.02,0-1.84,0.83-1.84,1.84c0,1.02,0.83,1.84,1.84,1.84c1.02,0,1.85-0.83,1.85-1.84     C113.16,94.6,112.34,93.77,111.32,93.77z" id="path362" />
            <path class="st2" d="M116.46,116.9c-1.02,0-1.84,0.83-1.84,1.85c0,1.02,0.83,1.84,1.84,1.84c1.02,0,1.85-0.83,1.85-1.84     C118.3,117.73,117.48,116.9,116.46,116.9z" id="path364" />
         </g>
      </g>
      <g id="g388">
         <rect x="27.43" y="232.08" class="st2" width="167.78" height="34.04" id="rect370" />
         <g id="g386">
            <path class="st3" d="M57.59,246.27l0.03,0.4l-0.03,0.4l-0.03,0.46l-0.13,0.67l-0.08,0.43l-0.22,0.54l-0.16,0.38l-0.27,0.51     l-0.24,0.35l-0.38,0.51l-0.3,0.32l-0.35,0.32l-0.35,0.3l-0.35,0.24l-0.38,0.24l-0.59,0.27l-0.4,0.19L52.9,253l-0.4,0.13     l-0.59,0.16l-0.4,0.08l-0.4,0.05l-0.43,0.03l-0.7,0.05h-2.26l-0.46-0.03l-0.46,0.03l-0.46,0.05l-0.32,0.05l-0.08,0.19l-0.03,0.35     l-0.11,1.8v0.43l0.03,0.81l-0.03,0.4l-0.03,0.59l-0.05,0.3l-0.08,0.16l-0.13,0.05l-0.3,0.05l-0.86,0.05l-1.05-0.05h-0.43     L42,258.82l-0.43-0.03l-0.62-0.03l-0.35-0.11l-0.16-0.16l-0.05-0.32l-0.05-0.4l-0.03-0.43v-2.88l0.11-1.43v-0.43l-0.11-1.43     v-0.43l-0.05-3.28v-0.43l0.11-1.45v-0.43l-0.08-1.43v-0.43l0.11-1.43v-0.4l-0.05-0.81l0.03-0.4l0.03-0.22l0.05-0.3l0.08-0.16     l0.13-0.13l0.3-0.03l0.78-0.05l0.62,0.03h0.4l1.8-0.03h1.8l1.8,0.11h1.78l1.02-0.05l0.38,0.03h0.22l0.4,0.08l0.62,0.16l0.43,0.13     l0.43,0.16l0.4,0.19l0.4,0.24l0.35,0.27l0.48,0.43l0.32,0.27l0.13,0.16l0.48,0.48l0.27,0.35l0.13,0.16l0.19,0.32l0.11,0.16     l0.16,0.35l0.14,0.4l0.11,0.38l0.03,0.19l0.11,0.38l0.05,0.22l0.11,0.38l0.16,0.75V246.27z M49.54,248.91l0.48-0.05l0.46-0.11     l0.22-0.08l0.38-0.22l0.16-0.11l0.27-0.27l0.11-0.16l0.19-0.35l0.08-0.19l0.11-0.43l0.03-0.19v-0.67l-0.08-0.4l-0.08-0.22     l-0.16-0.35l-0.11-0.16l-0.3-0.32l-0.21-0.13l-0.4-0.22l-0.7-0.19l-0.43-0.05h-0.62l-0.81,0.05l-1.18-0.08h-0.4l-0.22,0.03     l-0.3,0.05l-0.11,0.08l-0.08,0.19l-0.05,0.32v0.62l0.08,1l0.03,0.43l0.03,1.56l0.03,0.32l0.08,0.19l0.3,0.11l1.4,0.11     L49.54,248.91z" id="path372" />
            <path class="st3" d="M81.06,248.86l-0.03,0.43l-0.05,0.62l-0.05,0.4l-0.16,0.81l-0.05,0.62l-0.05,0.4l-0.08,0.43l-0.11,0.4     l-0.27,0.56l-0.19,0.38l-0.73,1.21l-0.24,0.35l-0.27,0.35l-0.27,0.3l-0.43,0.46l-0.3,0.27l-0.35,0.27l-0.32,0.24l-0.48,0.32     l-0.35,0.22l-0.4,0.22l-0.38,0.16l-0.54,0.22l-0.4,0.11l-0.86,0.27l-0.46,0.13l-0.43,0.11l-0.46,0.11l-0.46,0.08l-0.46,0.03     h-1.45l-0.92-0.05l-0.89-0.11l-0.38-0.08l-0.4-0.11l-1.45-0.48l-0.43-0.13l-0.46-0.19l-0.86-0.38l-0.4-0.22l-0.4-0.24l-0.35-0.27     l-0.35-0.3l-0.32-0.35l-0.3-0.35l-0.73-0.73l-0.27-0.32l-0.27-0.35l-0.21-0.35l-0.22-0.54l-0.4-1.21l-0.16-0.57l-0.08-0.4     l-0.08-0.43l-0.08-0.4l-0.08-0.59l-0.03-0.4l-0.03-0.46v-0.46l0.03-0.46l0.03-0.48l0.05-0.46L59.6,247l0.11-0.46l0.13-0.46     l0.13-0.4l0.16-0.43l0.19-0.62l0.19-0.43l0.11-0.24l0.22-0.4l0.38-0.59l0.27-0.38l0.14-0.22l0.32-0.32l0.46-0.38l0.35-0.27     l0.35-0.24l0.81-0.54l0.35-0.22l0.38-0.22l0.38-0.19l0.57-0.24l0.38-0.13l0.4-0.13l0.4-0.11l1.02-0.19l0.4-0.08l1.35-0.16     l0.86-0.05l0.81,0.05l0.65,0.03l0.46,0.05l0.46,0.08l0.46,0.11l0.46,0.08l0.43,0.11l0.4,0.11l0.4,0.13l0.57,0.22l0.38,0.16     l0.89,0.51l0.35,0.24l0.35,0.27l0.46,0.43l0.3,0.27l0.3,0.3l0.24,0.32l0.38,0.51l0.22,0.35l0.19,0.35l0.22,0.35l0.3,0.54     l0.22,0.35l0.19,0.4l0.13,0.38l0.13,0.62l0.16,0.81l0.05,0.46l0.08,0.46L81.06,248.86z M74.49,252.36l0.24-0.38l0.27-0.59     l0.16-0.4l0.13-0.62l0.05-0.4l0.05-0.65v-0.46l-0.03-0.46l-0.03-0.43l-0.16-0.81l-0.11-0.38l-0.3-0.59l-0.22-0.35l-0.38-0.48     l-0.27-0.3l-0.4-0.43l-0.3-0.24l-0.7-0.4l-0.38-0.16l-0.43-0.13l-0.43-0.08l-0.86-0.05l-0.4,0.03l-0.59,0.03l-0.4,0.08l-0.7,0.19     l-0.43,0.16l-0.62,0.32l-0.38,0.24l-0.43,0.38l-0.3,0.32l-0.3,0.4l-0.22,0.35l-0.08,0.16l-0.24,0.56l-0.14,0.4l-0.08,0.19     l-0.08,0.38l-0.05,0.38l-0.03,0.38l-0.03,0.4v0.4l0.03,0.43l0.08,0.43l0.03,0.24l0.11,0.4l0.05,0.19l0.13,0.38l0.11,0.22     l0.22,0.38l0.13,0.21l0.3,0.38l0.16,0.19l0.32,0.32l0.54,0.46l0.38,0.24l0.43,0.22l0.4,0.16l0.57,0.19l0.4,0.08l0.67,0.08     l0.46,0.03l0.67-0.05l0.43-0.05l0.59-0.13l0.38-0.16l0.59-0.38l0.32-0.24l0.43-0.43l0.27-0.3L74.49,252.36z" id="path374" />
            <path class="st3" d="M102.32,249.58l-0.03,0.46l-0.03,0.65l-0.08,0.43l-0.19,0.62l-0.13,0.43l-0.16,0.4l-0.16,0.43l-0.16,0.46     l-0.16,0.4l-0.3,0.59l-0.22,0.35l-0.38,0.43l-0.27,0.3l-0.46,0.43l-0.59,0.59l-0.35,0.3l-0.51,0.4l-0.35,0.22l-0.54,0.3     l-0.35,0.16l-0.59,0.22l-0.4,0.13l-0.43,0.11l-0.43,0.08l-1.64,0.24l-0.4,0.03l-0.59,0.05h-0.43l-0.86-0.03l-0.7-0.05h-0.43     l-0.86,0.05l-0.67,0.03L88,258.82l-0.4-0.03h-1.88l-0.4-0.03l-1.16-0.11l-0.22-0.11l-0.13-0.13l-0.05-0.3l-0.03-0.43l0.03-0.22     l0.05-0.81v-0.38l0.03-0.62v-0.4l0.03-0.43v-0.43l-0.03-1.43v-0.43l-0.05-1.43l0.03-0.4l0.03-0.59l0.05-0.4l0.03-0.46v-0.43     l-0.05-0.7l-0.03-0.46v-0.24l-0.03-0.46l0.11-1.43v-0.43l-0.03-1.43v-0.43l-0.08-1.43v-1.05l0.03-0.43l0.08-0.4l0.05-0.3     l0.11-0.16l0.3-0.08l0.46-0.05l0.4-0.05l0.43-0.03l2.37,0.03h0.43l1.29,0.08l0.22,0.03h0.48l1.13-0.05l0.4-0.03h0.43l0.67,0.05     l0.86,0.05l0.43,0.05l0.7,0.11l0.43,0.08l0.4,0.11l0.97,0.35l0.4,0.19l0.4,0.22l0.38,0.22l0.89,0.62l0.35,0.3l0.32,0.27     l0.59,0.57l0.27,0.27l0.24,0.3l0.19,0.35l0.3,0.59l0.16,0.4l0.14,0.43l0.16,0.43l0.13,0.43l0.11,0.43l0.11,0.59l0.08,0.43     l0.08,0.46l0.05,0.43l0.03,0.65l0.03,0.43L102.32,249.58z M96.18,251.9l0.19-0.4l0.16-0.46l0.11-0.4l0.11-0.59l0.03-0.38     l0.03-0.62v-0.86l-0.03-0.43l-0.08-0.62l-0.11-0.4l-0.05-0.16l-0.21-0.4l-0.4-0.57l-0.14-0.13l-0.27-0.3l-0.3-0.3l-0.32-0.24     l-0.59-0.35l-0.38-0.16l-0.38-0.08l-0.43-0.08l-0.67-0.03l-0.46-0.03h-0.67l-0.59-0.03l-0.4,0.03l-0.59,0.08l-0.3,0.08     l-0.14,0.13l-0.08,0.32l-0.03,0.24l-0.03,0.4l0.05,0.81l0.03,0.43l0.05,0.59l0.05,0.43l0.03,0.43v0.43l-0.03,0.59v1.29     l-0.03,0.46l-0.03,0.43l-0.05,0.59v0.38l-0.03,0.62l0.03,0.4l0.08,0.65l0.11,0.3l0.16,0.13l0.32,0.03l2.5-0.16l0.62-0.03     l0.43-0.08l0.46-0.13l0.43-0.16l0.4-0.19l0.35-0.24l0.48-0.43l0.27-0.32L96.18,251.9z" id="path376" />
            <path class="st3" d="M122.4,256.34l-0.22,0.22l-0.48,0.43l-0.32,0.24l-0.51,0.38l-0.32,0.22l-0.54,0.3l-0.35,0.19l-0.62,0.3     l-0.4,0.14l-0.46,0.13l-0.46,0.08l-0.67,0.13l-0.94,0.11l-0.48,0.03l-0.67,0.05h-1.4l-0.46-0.03l-0.46-0.05l-0.46-0.08     l-0.46-0.11l-0.4-0.13l-1.21-0.32l-0.59-0.22l-0.35-0.16l-0.51-0.3l-0.32-0.24l-0.35-0.24l-0.38-0.24l-0.7-0.59l-0.32-0.32     l-0.3-0.35l-0.3-0.4l-0.24-0.38l-0.22-0.38l-0.19-0.38l-0.27-0.57l-0.4-1.13l-0.19-0.54l-0.27-0.81l-0.05-0.4l-0.03-0.62     l0.03-0.4l0.03-0.43v-0.46l0.05-0.92l0.03-0.43l0.08-0.4l0.11-0.59l0.11-0.4l0.13-0.4l0.14-0.38l0.19-0.54l0.19-0.38l0.19-0.4     l0.22-0.4l0.24-0.4l0.24-0.38l0.27-0.35l0.3-0.38l0.32-0.35l0.32-0.3l0.35-0.3l0.32-0.27l0.86-0.59l0.35-0.22l0.38-0.22     l0.81-0.38l0.46-0.16l0.43-0.13l0.92-0.22l0.46-0.08l0.46-0.05l0.83-0.05l0.59-0.05l0.4,0.03l0.59,0.03l1,0.13l0.38,0.08     l0.62,0.11l0.94,0.27l0.38,0.16l0.59,0.35l0.38,0.22l0.7,0.48l0.83,0.59l0.3,0.22l0.16,0.13l0.19,0.19l0.05,0.22l-0.03,0.22     l-0.16,0.22l-0.24,0.3l-0.3,0.3l-0.3,0.27l-0.3,0.24l-0.3,0.3l-0.46,0.54l-0.3,0.32l-0.13,0.13l-0.24,0.22l-0.19,0.08l-0.19,0.03     l-0.19-0.05l-0.3-0.16l-0.51-0.38l-0.35-0.19l-0.59-0.27l-0.38-0.13l-0.59-0.16l-0.4-0.08l-0.67-0.05h-0.43l-0.59,0.05     l-0.43,0.11l-0.59,0.19l-0.4,0.16l-0.35,0.13l-0.54,0.27l-0.38,0.27l-0.19,0.16l-0.32,0.35l-0.24,0.38l-0.19,0.35l-0.19,0.38     l-0.16,0.4l-0.13,0.43l-0.08,0.46l-0.05,0.4l-0.05,0.81v0.43l0.03,0.67l0.03,0.4l0.13,0.62l0.13,0.4l0.19,0.46l0.22,0.4l0.4,0.59     l0.3,0.32l0.51,0.43l0.35,0.24l0.54,0.27l0.4,0.16l0.59,0.16l0.43,0.08l0.65,0.03h0.62l0.38-0.08l0.22-0.05l0.4-0.13l0.67-0.24     l0.43-0.19l0.4-0.19l0.35-0.19l0.51-0.32l0.35-0.27l0.27-0.19l0.16-0.05l0.24,0.05l0.3,0.19l0.3,0.27l0.11,0.16l0.27,0.3     l0.43,0.54l0.27,0.32l0.73,0.83l0.24,0.32l0.13,0.13l0.13,0.24V256.34z" id="path378" />
            <path class="st3" d="M146.13,258.04l0.08,0.38l-0.19,0.3l-0.3,0.13l-0.35,0.05H145l-0.62-0.05l-0.4-0.03h-1.21l-1.67,0.11     l-0.35-0.11l-0.16-0.22l-0.13-0.3l-0.83-2.26l-0.19-0.27l-0.24-0.05l-0.32-0.03l-1.62-0.11h-0.43l-2.02-0.05l-1.61-0.03h-0.4     l-0.4,0.03h-1.24l-0.35,0.05l-0.22,0.13l-0.16,0.32l-0.62,1.83l-0.16,0.43l-0.3,0.35l-0.4,0.16l-0.43-0.03l-1.56-0.08h-0.43     l-1.67,0.11l-0.35,0.03l-0.32-0.16l-0.22-0.3l0.03-0.35l0.05-0.22l0.16-0.43l0.38-0.83l0.16-0.4l0.67-1.51l0.16-0.38l0.7-1.51     l0.16-0.4l0.62-1.45l0.16-0.4l0.73-1.51l0.16-0.38l0.97-2.21l0.75-1.62l0.19-0.43l0.59-1.21l0.19-0.43l0.51-1.24l0.16-0.4     l0.48-1.1l0.13-0.3l0.27-0.16l0.4-0.08l1.24-0.05h2.1l1.24,0.03l0.46,0.08l0.3,0.22l0.13,0.35l0.38,1.05l0.16,0.4l0.67,1.27     l0.16,0.38l0.59,1.32l0.16,0.38l0.48,1.37l0.16,0.38l0.59,1.29l0.16,0.38l0.59,1.32l0.16,0.38l0.54,1.35l0.16,0.38l0.83,1.67     l0.65,1.27l0.19,0.38l0.73,1.7L146.13,258.04z M137.14,250.45l-0.11-0.35l-0.59-1.83l-0.13-0.4l-0.54-1.59l-0.13-0.35l-0.27-0.19     l-0.35-0.08l-0.3,0.08l-0.27,0.27l-0.73,1.83l-0.16,0.4l-0.7,1.8l-0.08,0.4l0.08,0.32l0.3,0.13l0.38,0.05h1.7l1.27,0.08     l0.35-0.11l0.21-0.22L137.14,250.45z" id="path380" />
            <path class="st3" d="M164.52,252.76l-0.03,0.46l-0.05,0.46l-0.08,0.43l-0.13,0.59l-0.13,0.38l-0.24,0.54l-0.19,0.35l-0.32,0.48     l-0.27,0.32l-0.32,0.32l-0.32,0.3l-0.54,0.35l-0.35,0.24l-0.4,0.22l-0.38,0.19l-0.62,0.21l-0.81,0.27l-0.43,0.08l-0.67,0.11     l-0.4,0.05l-0.59,0.05l-0.38,0.03l-0.62,0.03l-1.29,0.08h-0.59l-0.38-0.03l-0.62-0.05l-0.4-0.05l-0.46-0.08l-0.4-0.13l-0.59-0.19     l-0.38-0.19l-0.4-0.19l-0.38-0.19l-0.35-0.22l-0.86-0.59l-0.32-0.27l-0.48-0.38l-0.32-0.27l-0.3-0.3l-0.22-0.24l-0.03-0.19     l0.14-0.24l0.11-0.13l0.27-0.3l0.75-0.7l0.24-0.3l0.46-0.7l0.24-0.3l0.27-0.3l0.3-0.16l0.3,0.05l0.3,0.22l0.86,0.59l0.4,0.22     l0.38,0.19l0.62,0.3l0.4,0.13l0.43,0.13l0.43,0.08l0.62,0.03l0.43,0.03l1.7-0.11l0.43-0.05l0.22-0.05l0.4-0.16l0.35-0.22     l0.27-0.27l0.13-0.19l0.16-0.4l-0.03-0.46l-0.05-0.22l-0.22-0.38l-0.13-0.16l-0.35-0.27l-0.22-0.08l-0.4-0.16l-0.46-0.11     l-0.46-0.08l-2.56-0.24l-0.81-0.16l-0.43-0.11l-0.59-0.22l-0.4-0.13l-0.4-0.19l-0.92-0.46l-0.35-0.24l-0.4-0.24l-0.35-0.24     l-0.46-0.38l-0.24-0.35l-0.24-0.4l-0.16-0.4l-0.19-0.57l-0.08-0.4l-0.08-0.59l-0.05-0.86l0.03-0.43l0.05-0.65l0.08-0.4l0.11-0.35     l0.13-0.4l0.27-0.59l0.19-0.38l0.22-0.32l0.27-0.3l0.43-0.4l0.35-0.27l0.35-0.24l0.38-0.19l0.51-0.3l0.81-0.32l0.4-0.13     l0.62-0.11l0.43-0.08l0.81-0.11l0.59-0.11l0.43-0.05l0.4-0.03h0.43l0.81,0.08l0.4,0.05l0.19,0.05l0.43,0.05l0.91,0.16l0.46,0.11     l0.43,0.13l0.46,0.13l0.43,0.16l0.4,0.19l0.4,0.16l0.51,0.3l0.38,0.19l0.35,0.24l0.24,0.24v0.27l-0.16,0.3l-0.3,0.54l-0.22,0.32     l-1.02,1.35l-0.3,0.38l-0.32,0.27l-0.22,0.08l-0.19-0.03l-0.27-0.13l-0.4-0.24l-0.4-0.16l-0.19-0.08l-0.4-0.13l-0.22-0.05     l-0.46-0.11l-0.62-0.13l-0.43-0.03l-0.7-0.05h-0.7l-0.46,0.03l-0.46,0.08l-0.43,0.13l-0.16,0.08l-0.32,0.24l-0.13,0.16     l-0.19,0.38l-0.05,0.43l0.08,0.35l0.22,0.35l0.3,0.27l0.32,0.16l0.19,0.08l0.4,0.08l0.67,0.08l0.92,0.05l0.46,0.08l0.92,0.22     l0.86,0.27l0.62,0.13l0.4,0.11l0.75,0.27l0.54,0.24l0.38,0.19l0.38,0.22l0.35,0.22l0.78,0.65l0.3,0.32l0.27,0.32l0.32,0.48     l0.22,0.35l0.19,0.4l0.11,0.4l0.11,0.59l0.05,0.4L164.52,252.76z" id="path382" />
            <path class="st3" d="M181.88,241.48l-0.03,0.4l0.03,0.81l-0.03,0.43l-0.03,0.22l-0.05,0.32l-0.08,0.19l-0.16,0.13l-0.32,0.05     h-0.43l-0.81-0.08l-0.43-0.03l-1.24,0.08h-0.43l-0.67-0.05h-0.4l-0.19,0.03l-0.27,0.08l-0.11,0.16l-0.03,0.35l-0.11,1.59v0.43     l0.11,1.62l-0.03,0.43l-0.11,1.62l-0.03,0.43l0.05,1.59v2.48l-0.05,1.59l0.03,0.4l0.14,1.21l0.03,0.43l-0.08,0.32l-0.13,0.13     l-0.35,0.05l-0.51-0.03l-0.67-0.08l-0.46-0.03l-1.21,0.08h-0.43l-1.21-0.08l-0.32-0.03l-0.16-0.08l-0.05-0.3v-0.46l0.08-1.13     l0.03-0.43v-2.02l0.03-1.62v-0.43l0.03-1.59v-0.43l-0.11-1.62l-0.03-0.43v-2.05l-0.05-1.59v-0.38l-0.08-0.22l-0.27-0.05h-0.4     l-0.86,0.05h-0.48l-0.73-0.05l-0.46-0.03l-0.46,0.03l-0.62,0.03h-0.4l-0.22-0.03l-0.3-0.05l-0.16-0.11l-0.11-0.16l-0.05-0.27     v-0.19l-0.03-0.43l0.05-0.81v-0.4l-0.08-1.02l0.03-0.43l0.08-0.35l0.11-0.19l0.16-0.08l0.27-0.05h0.62l1,0.08h0.43l1.56-0.11     h0.43l1.59,0.13h0.43l1.99-0.13l1.56,0.03h0.43l2.02-0.03h1.99l0.89-0.05l0.46,0.03l0.22,0.03l0.32,0.05l0.19,0.11l0.13,0.19     l0.05,0.32v0.19l0.03,0.4L181.88,241.48z" id="path384" />
         </g>
      </g>
      <g id="g394">
         <g id="g392">
            <path class="st2" d="M66.09,35.34c0,0.07,0.17,0.15,0.32,0.15c0.18,0,0.16-0.08-0.03-0.15C66.19,35.28,66.09,35.28,66.09,35.34     L66.09,35.34z" id="path390" />
         </g>
      </g>
   </g>
</svg>
