<?xml version="1.0" standalone="no"?>
<!DOCTYPE svg PUBLIC "-//W3C//DTD SVG 20010904//EN"
 "http://www.w3.org/TR/2001/REC-SVG-20010904/DTD/svg10.dtd">
<svg version="1.0" xmlns="http://www.w3.org/2000/svg"
 width="1168.000000pt" height="1168.000000pt" viewBox="0 0 1168.000000 1168.000000"
 preserveAspectRatio="xMidYMid meet">
<metadata>
Created by potrace 1.11, written by Peter Selinger 2001-2013
</metadata>
<g transform="translate(0.000000,1168.000000) scale(0.100000,-0.100000)"
fill="#000000" stroke="none">
<path d="M5737 11264 c-1 -1 -40 -5 -87 -8 -70 -5 -169 -21 -315 -50 -53 -10
-241 -73 -277 -92 -14 -8 -31 -14 -37 -14 -13 0 -104 -41 -111 -50 -3 -3 -20
-12 -38 -19 -127 -52 -389 -240 -530 -381 -109 -109 -265 -299 -302 -370 -7
-14 -16 -27 -19 -30 -11 -9 -51 -83 -102 -190 -78 -161 -111 -244 -102 -254 4
-3 1 -6 -5 -6 -7 0 -12 -10 -12 -23 0 -13 -3 -27 -7 -31 -4 -3 -8 -13 -9 -20
-1 -7 -9 -38 -17 -67 -9 -30 -19 -70 -22 -89 -10 -57 -14 -83 -20 -110 -6 -28
-12 -83 -21 -175 -3 -33 -6 -489 -6 -1013 -1 -872 -2 -952 -17 -947 -93 38
-132 47 -221 47 -52 0 -102 -2 -110 -4 -181 -50 -301 -146 -373 -298 -31 -64
-36 -89 -45 -190 -9 -98 -8 -93 -29 -105 -29 -16 -137 -102 -153 -122 -55 -68
-101 -149 -124 -217 -30 -88 -26 -287 6 -365 6 -14 12 -28 13 -31 26 -86 140
-219 236 -277 l47 -28 1 -1075 c1 -591 3 -1088 5 -1105 2 -16 7 -59 11 -95 3
-35 8 -67 10 -70 2 -3 6 -25 10 -49 4 -25 22 -97 41 -160 45 -152 42 -143 80
-230 13 -29 24 -60 24 -67 0 -8 3 -14 8 -14 4 0 14 -15 21 -32 22 -49 94 -173
103 -176 4 -2 8 -8 8 -14 0 -5 9 -22 21 -36 11 -15 34 -45 50 -67 17 -22 43
-56 57 -75 88 -113 372 -361 477 -415 17 -9 44 -24 60 -35 42 -26 191 -99 240
-117 22 -8 49 -18 60 -23 60 -24 216 -71 250 -75 11 -1 29 -5 40 -8 11 -3 43
-8 70 -12 28 -3 64 -8 80 -10 17 -3 59 -7 94 -10 35 -2 66 -7 68 -9 3 -2 17
-1 32 4 15 4 35 4 44 -1 9 -6 18 -5 22 0 3 6 15 7 29 1 12 -4 28 -5 35 0 7 4
21 6 30 3 13 -3 16 -16 15 -61 -1 -52 -4 -61 -39 -97 -21 -22 -51 -69 -68
-104 -28 -59 -31 -74 -34 -195 -4 -145 -4 -166 0 -214 2 -18 0 -35 -5 -38 -5
-3 -6 -10 -2 -15 3 -5 5 -49 5 -97 -1 -172 1 -217 14 -267 13 -51 44 -105 87
-151 l40 -44 2 -211 c1 -194 3 -212 18 -215 10 -1 116 -6 235 -10 363 -13
1081 -8 1363 9 l25 2 2 175 c1 96 2 192 2 212 1 28 11 48 44 87 24 28 55 79
69 113 l26 63 -1 365 -2 365 -32 65 c-18 36 -48 81 -67 100 -30 32 -35 43 -37
95 l-3 60 42 1 c23 0 45 3 48 6 3 4 19 2 35 -2 16 -5 29 -6 29 -2 0 4 28 7 63
8 68 0 209 12 229 19 7 2 31 7 53 10 82 12 251 60 355 102 242 96 480 251 655
428 112 113 215 234 215 253 0 5 7 12 15 16 8 3 15 12 15 19 0 8 7 20 15 27
36 30 160 275 213 421 24 65 73 243 78 279 2 14 6 41 9 60 25 154 27 237 29
1300 l1 1034 35 23 c53 35 82 58 120 97 51 51 58 61 94 124 53 95 70 163 70
282 -1 115 -6 144 -35 209 -10 24 -19 50 -19 57 0 8 -4 14 -10 14 -5 0 -10 7
-10 15 0 8 -4 15 -10 15 -5 0 -10 6 -10 13 -1 27 -136 155 -205 193 -14 8 -20
22 -21 50 -2 64 -15 157 -25 176 -5 10 -7 18 -5 18 19 0 -84 163 -133 210
-145 139 -363 182 -553 110 -29 -11 -54 -20 -55 -20 -1 0 -2 435 -2 968 -1
962 -2 1019 -15 1041 -4 6 -2 11 4 11 6 0 8 5 5 10 -4 6 -11 41 -16 78 -6 37
-12 78 -14 92 -23 154 -113 410 -211 597 -50 97 -170 282 -212 330 -10 10 -39
45 -67 78 -66 78 -237 245 -251 245 -3 0 -11 6 -18 13 -21 20 -71 61 -88 72
-8 6 -49 33 -91 60 -42 28 -91 59 -109 69 -49 28 -210 108 -222 110 -6 1 -21
8 -33 14 -13 7 -23 10 -23 6 0 -3 -6 -2 -13 4 -23 20 -263 92 -354 107 -18 3
-48 8 -65 11 -105 18 -188 25 -336 28 -68 1 -124 1 -125 0z"/>
</g>
</svg>
