<svg width="88.64" height="145.98" xmlns="http://www.w3.org/2000/svg">
 <metadata id="metadata403">image/svg+xml</metadata>

 <style type="text/css">.st0{opacity:0.37;}
	.st1{fill:#858585;}
	.st2{fill:#262628;}
   .st3{fill:#FFFFFF;}
   .st7{fill:#FFFFFF;}</style>
 <g>
  <title>background</title>
  <rect fill="none" id="canvas_background" height="147.98" width="90.64" y="-1" x="-1"/>
 </g>
 <g>
  <title>Layer 1</title>
  <g id="g396">
   <g id="g314">
    <g id="g216">
     <path id="path214" d="m31.03,62.16l-1.26,-1.2c-1.24,-1.17 -1.95,-2.81 -1.95,-4.5c0,-3.43 2.79,-6.21 6.21,-6.21s6.21,2.79 6.21,6.21c0,1.69 -0.71,3.34 -1.95,4.51l-1.26,1.19l-6,0z" class="st3"/>
    </g>
    <g id="g220">
     <polygon id="polygon218" points="22.48999786376953,63.25999450683594 23.300003051757812,43.540000915527344 28.62999725341797,46.900001525878906 35.019996643066406,39.589996337890625 35.66999816894531,55.16999816894531 35.81999969482422,58.720001220703125 36,63.25999450683594 " class="st3"/>
    </g>
    <g id="g224">
     <path id="path222" d="m34.04,47.25c-3.43,0 -6.21,-2.79 -6.21,-6.21c0,-3.43 2.79,-6.21 6.21,-6.21s6.21,2.79 6.21,6.21c0,3.42 -2.79,6.21 -6.21,6.21z" class="st3"/>
    </g>
    <g id="g228">
     <ellipse id="ellipse226" ry="6.21" rx="6.21" cy="15.83467" cx="156.02159" class="st3" transform="matrix(0.2025,-0.9793,0.9793,0.2025,-13.0613,175.1928) "/>
    </g>
    <g id="g232">
     <path id="path230" d="m28.68,34.83l-5.19,1.2l0.38,-5.86c0.03,-0.46 0.07,-0.93 0.11,-1.4l0.04,-0.38c0.06,-0.45 0.14,-0.9 0.22,-1.35c0.03,-0.18 0.12,-0.7 0.12,-0.7l0.03,-0.15c0.11,-0.47 0.24,-0.93 0.37,-1.39l0.17,-0.61c0.87,-2.76 2.32,-5.37 4.18,-7.54c1.74,-2.04 3.89,-3.75 6.2,-4.93l4.78,7.25c0.2,-0.17 0.36,-0.4 0.44,-0.67l-0.41,1.32l-1.1,0.84c-0.82,0.62 -1.55,1.38 -2.17,2.25c-0.88,1.22 -1.52,2.64 -1.87,4.11c-0.03,0.18 -0.07,0.37 -0.1,0.55c-0.04,0.21 -0.08,0.42 -0.12,0.63c-0.02,0.18 -0.03,0.37 -0.05,0.55c-0.02,0.2 -0.04,0.4 -0.05,0.61l0,8.91l-5.98,-3.24z" class="st3"/>
    </g>
    <g id="g236">
     <path id="path234" d="m28.9,54.96c-1.99,0 -3.87,-0.96 -5.03,-2.57c-0.76,-1.01 -1.18,-2.3 -1.18,-3.65c0,-1.49 0.54,-2.93 1.52,-4.07c1.17,-1.36 2.88,-2.15 4.7,-2.15c3.43,0 6.21,2.79 6.21,6.21c-0.01,3.45 -2.8,6.23 -6.22,6.23z" class="st3"/>
    </g>
    <g id="g240">
     <path id="path238" d="m44.32,145.58c-1.84,0 -3.77,-0.04 -6.08,-0.12l-4.21,-0.15l0,-5.38c-1.07,-0.87 -1.76,-2.19 -1.76,-3.67l0,-7.11c0,-1.48 0.69,-2.81 1.76,-3.67l0,-1.52l-1.68,0c-13.51,0 -24.5,-10.99 -24.5,-24.5l0,-25.24c-2.42,-1.2 -4.09,-3.69 -4.09,-6.57c0,-2.88 1.67,-5.37 4.09,-6.57l0,-0.79c0,-3.63 2.95,-6.58 6.58,-6.58c1.1,0 2.14,0.27 3.05,0.75l0,-22.56c0,-14.8 12.04,-26.84 26.84,-26.84c14.8,0 26.84,12.04 26.84,26.84l0,22.56c0.91,-0.48 1.95,-0.75 3.05,-0.75c3.63,0 6.58,2.95 6.58,6.58l0,0.79c2.42,1.2 4.09,3.69 4.09,6.57c0,2.88 -1.67,5.37 -4.09,6.57l0,25.24c0,13.51 -10.99,24.5 -24.5,24.5l-1.68,0l0,1.52c1.07,0.87 1.76,2.19 1.76,3.67l0,7.11c0,1.48 -0.69,2.81 -1.76,3.67l0,5.38l-4.21,0.15c-2.31,0.08 -4.24,0.12 -6.08,0.12zm-12.81,-72.79l5.9,-0.23l0,-7.04c-1.91,0.02 -3.88,0.06 -5.9,0.11l0,7.16zm28.15,-18.26l0,-22.64c0,-8.46 -6.88,-15.34 -15.35,-15.34c-8.46,0 -15.34,6.88 -15.34,15.34l0,22.64l30.69,0z" class="st3"/>
    </g>
    <g id="g244">
     <path id="path242" d="m38.75,19.27c0.15,0.04 0.3,0.06 0.43,0.06c0.11,0 0.22,-0.01 0.32,-0.03l-2.36,-8.37c2.14,-0.83 4.37,-1.25 6.63,-1.25c0.24,0 0.48,0 0.73,0.01l0.01,8.73c-1.05,0.04 -2.08,0.27 -3.06,0.66l-1.31,0.53l-1.39,-0.34z" class="st3"/>
    </g>
    <g id="g248">
     <path id="path246" d="m28.9,39.54c-1.04,0 -2.07,-0.26 -2.98,-0.76c-1.97,-1.04 -3.24,-3.14 -3.24,-5.45c0,-2.49 1.48,-4.73 3.76,-5.71c0.79,-0.33 1.61,-0.5 2.45,-0.5c1.92,0 3.71,0.87 4.89,2.39c0.84,1.04 1.32,2.42 1.32,3.83c0,1.22 -0.36,2.4 -1.03,3.43c-1.15,1.73 -3.09,2.77 -5.17,2.77z" class="st3"/>
    </g>
    <g id="g252">
     <path id="path250" d="m30.62,80.75l0,-23.08l4.45,0.08c0.94,0.02 1.88,0.03 2.83,0.04l4.32,0.05l0,22.91l-11.6,0z" class="st3"/>
    </g>
    <g id="g256">
     <polygon id="polygon254" points="28.639999389648438,50.480003356933594 22.889999389648438,53.44000244140625 23.860000610351562,30.18000030517578 28.68000030517578,31.76000213623047 34.529998779296875,27.87000274658203 35.769996643066406,57.38999938964844 " class="st3"/>
    </g>
    <g id="g260">
     <ellipse id="ellipse258" ry="6.21" rx="6.21" cy="41.37601" cx="164.51205" class="st3" transform="matrix(0.1606,-0.987,0.987,0.1606,-28.0777,204.4833) "/>
    </g>
    <g id="g264">
     <path id="path262" d="m51.6,62.16l-1.26,-1.2c-1.24,-1.17 -1.95,-2.81 -1.95,-4.5c0,-3.43 2.79,-6.21 6.21,-6.21s6.21,2.79 6.21,6.21c0,1.69 -0.71,3.33 -1.95,4.5l-1.26,1.2l-6,0z" class="st3"/>
    </g>
    <g id="g268">
     <path id="path266" d="m49.46,24.12c-3.43,0 -6.21,-2.79 -6.21,-6.21c0,-3.43 2.79,-6.21 6.21,-6.21c3.43,0 6.21,2.79 6.21,6.21c0,3.42 -2.79,6.21 -6.21,6.21z" class="st3"/>
    </g>
    <g id="g272">
     <ellipse id="ellipse270" ry="6.21" rx="6.21" cy="28.37677" cx="91.79575" class="st3" transform="matrix(0.9232,-0.3844,0.3844,0.9232,-35.9107,57.847) "/>
    </g>
    <g id="g276">
     <ellipse id="ellipse274" ry="6.21" rx="6.21" cy="6.45544" cx="128.86134" class="st3" transform="matrix(0.7071,-0.7071,0.7071,0.7071,-35.9415,119.8826) "/>
    </g>
    <g id="g280">
     <ellipse id="ellipse278" ry="6.21" rx="6.21" cy="6.45544" cx="118.58134" class="st3" transform="matrix(0.7071,-0.7071,0.7071,0.7071,-38.9528,112.6125) "/>
    </g>
    <g id="g284">
     <path id="path282" d="m54.6,31.83c-3.43,0 -6.21,-2.79 -6.21,-6.21c0,-3.43 2.79,-6.21 6.21,-6.21s6.21,2.79 6.21,6.21c0,3.42 -2.78,6.21 -6.21,6.21z" class="st3"/>
    </g>
    <g id="g288">
     <path id="path286" d="m54.6,47.25c-3.43,0 -6.21,-2.79 -6.21,-6.21c0,-3.43 2.79,-6.21 6.21,-6.21s6.21,2.79 6.21,6.21c0,3.42 -2.78,6.21 -6.21,6.21z" class="st3"/>
    </g>
    <g id="g292">
     <ellipse id="ellipse290" ry="6.21" rx="6.21" cy="-8.96456" cx="108.30134" class="st3" transform="matrix(0.7071,-0.7071,0.7071,0.7071,-31.0599,100.8266) "/>
    </g>
    <g id="g296">
     <path id="path294" d="m41.31,62.16l-1.26,-1.2c-1.24,-1.17 -1.95,-2.81 -1.95,-4.5c0,-3.43 2.79,-6.21 6.21,-6.21c3.43,0 6.21,2.79 6.21,6.21c0,1.69 -0.71,3.34 -1.95,4.51l-1.26,1.19l-6,0z" class="st3"/>
    </g>
    <g id="g300">
     <ellipse id="ellipse298" ry="6.21" rx="6.21" cy="22.00168" cx="158.85066" class="st3" transform="matrix(0.2305,-0.9731,0.9731,0.2305,-18.8392,182.8302) "/>
    </g>
    <g id="g304">
     <path id="path302" d="m44.32,47.25c-3.43,0 -6.21,-2.79 -6.21,-6.21c0,-3.43 2.79,-6.21 6.21,-6.21c3.43,0 6.21,2.79 6.21,6.21c0,3.42 -2.79,6.21 -6.21,6.21z" class="st3"/>
    </g>
    <g id="g308">
     <ellipse id="ellipse306" ry="6.21" rx="6.21" cy="15.88272" cx="166.36542" class="st3" transform="matrix(0.2017,-0.9795,0.9795,0.2017,-4.7819,185.3652) "/>
    </g>
    <g id="g312">
     <ellipse id="ellipse310" ry="6.21" rx="6.21" cy="28.37677" cx="81.51575" class="st3" transform="matrix(0.9232,-0.3844,0.3844,0.9232,-36.7007,53.8946) "/>
    </g>
   </g>
   <g id="g368">
    <g id="g366">
     <path id="path316" d="m34.04,54.61c-1.02,0 -1.84,0.83 -1.84,1.84c0,0.5 0.21,0.98 0.58,1.33l2.53,0c0.37,-0.35 0.58,-0.83 0.58,-1.33c-0.01,-1.01 -0.84,-1.84 -1.85,-1.84z" class="st2"/>
     <path id="path318" d="m31.41,57.77l-0.1,-2.42l-0.19,-4.66c-0.54,0.62 -1.33,1.01 -2.21,1.01c-0.57,0 -1.1,-0.16 -1.55,-0.44l-0.27,6.61l-0.04,1.03l4.42,0l-0.04,-1.03l-0.02,-0.1z" class="st2"/>
     <path id="path320" d="m34.04,39.19c-1.02,0 -1.84,0.83 -1.84,1.84c0,1.02 0.83,1.85 1.84,1.85c1.02,0 1.85,-0.83 1.85,-1.85c-0.01,-1.01 -0.84,-1.84 -1.85,-1.84z" class="st2"/>
     <path id="path322" d="m34.04,23.77c-1.02,0 -1.84,0.83 -1.84,1.84c0,1.02 0.83,1.84 1.84,1.84c1.02,0 1.85,-0.83 1.85,-1.84c-0.01,-1.01 -0.84,-1.84 -1.85,-1.84z" class="st2"/>
     <path id="path324" d="m32.44,19.51c-1.49,1.74 -2.63,3.8 -3.33,6.01c-0.15,0.56 -0.33,1.12 -0.46,1.68c-0.09,0.57 -0.22,1.15 -0.29,1.73c-0.04,0.5 -0.09,1.02 -0.13,1.53c0.22,-0.05 0.44,-0.08 0.67,-0.08c0.5,0 0.97,0.13 1.39,0.35l0,-1.65c0.02,-0.52 0.09,-1.04 0.13,-1.57c0.08,-0.52 0.19,-1.03 0.29,-1.56c0.47,-2.06 1.35,-4.04 2.6,-5.77c0.86,-1.19 1.89,-2.27 3.06,-3.17c0.17,-0.55 0.5,-1.02 0.93,-1.38c-1.84,0.94 -3.5,2.28 -4.86,3.88z" class="st2"/>
     <path id="path326" d="m28.9,50.6c1.02,0 1.84,-0.83 1.84,-1.85c0,-1.02 -0.83,-1.84 -1.84,-1.84c-0.56,0 -1.05,0.24 -1.39,0.63c-0.28,0.33 -0.45,0.75 -0.45,1.21c0,0.41 0.13,0.79 0.36,1.09c0.32,0.46 0.87,0.76 1.48,0.76z" class="st2"/>
     <path id="path328" d="m11.09,70.6l1.13,0l0,28.85c0,11.1 9.03,20.14 20.14,20.14l6.05,0l0,8.32l4.08,0.89l-5.49,0c-0.19,0 -0.35,0.16 -0.35,0.35l0,7.11c0,0.19 0.16,0.35 0.35,0.35l12.47,0l-11.06,0.89l0,3.6c1.97,0.07 3.95,0.12 5.92,0.12c1.97,0 3.95,-0.05 5.92,-0.12l0,-4.49l1.41,0c0.19,0 0.35,-0.16 0.35,-0.35l0,-7.11c0,-0.19 -0.16,-0.35 -0.35,-0.35l-1.41,0l0,-9.21l6.05,0c11.1,0 20.14,-9.03 20.14,-20.14l0,-28.85l1.13,0c1.63,0 2.96,-1.33 2.96,-2.96c0,-1.63 -1.33,-2.96 -2.96,-2.96l-1.13,0l0,-4.4c0,-1.22 -0.99,-2.21 -2.21,-2.21c-1.22,0 -2.21,0.99 -2.21,2.21l0,2.82l-2.19,0l0,-1.14c0,-1.68 -1.35,-3.04 -3.02,-3.06l0,-27.01c0,-12.39 -10.08,-22.47 -22.47,-22.47s-22.49,10.08 -22.49,22.47l0,27.01c-1.67,0.02 -3.02,1.38 -3.02,3.06l0,1.14l-2.19,0l0,-2.82c0,-1.22 -0.99,-2.21 -2.21,-2.21c-1.22,0 -2.21,0.99 -2.21,2.21l0,4.4l-1.13,0c-1.63,0 -2.96,1.33 -2.96,2.96c0,1.63 1.33,2.96 2.96,2.96zm30.7,64.35l-2.87,0c-0.34,0 -0.62,-0.28 -0.62,-0.62l0,-3.25c0,-0.34 0.28,-0.62 0.62,-0.62l2.87,0l0,4.49zm34.63,-67.51l1.13,0c0.11,0 0.2,0.09 0.2,0.2s-0.09,0.2 -0.2,0.2l-1.13,0l0,-0.4zm-32.49,67.51l-1.11,0l0,-4.5l1.11,0l0,4.5zm28.4,-28.78c0.47,-1.27 0.89,-2.58 1.06,-3.93l0.14,-1.01l0.05,-1.02c0.05,-0.67 0.04,-1.37 0.03,-2.08l-0.01,-4.21c0.01,-5.61 0.04,-11.22 0.13,-16.83c0.02,-1.64 0.05,-3.29 0.09,-4.93c0.01,-0.53 0.02,-1.05 0.04,-1.58c0.05,-1.97 0.11,-3.95 0.18,-5.92c0.02,-0.53 0.04,-1.05 0.06,-1.58c0.03,-0.94 0.07,-1.88 0.11,-2.82c0.04,0.94 0.08,1.88 0.11,2.82c0.02,0.53 0.04,1.05 0.06,1.58c0.07,1.97 0.13,3.95 0.18,5.92c0.01,0.53 0.03,1.05 0.04,1.58c0.04,1.64 0.07,3.29 0.09,4.93c0.1,5.61 0.12,11.22 0.13,16.83l-0.01,4.21c0,0.7 0,1.4 -0.05,2.13l-0.06,1.08l-0.17,1.07c-0.22,1.43 -0.68,2.81 -1.22,4.15c-0.15,0.33 -0.32,0.65 -0.47,0.97c-0.17,0.32 -0.3,0.66 -0.51,0.95c-0.39,0.61 -0.74,1.24 -1.21,1.79c-1.74,2.29 -4,4.19 -6.59,5.38c-2.59,1.19 -5.43,1.81 -8.24,1.69c5.62,-0.24 10.94,-3.13 14.07,-7.63c0.42,-0.54 0.73,-1.15 1.09,-1.73c0.33,-0.56 0.59,-1.2 0.88,-1.81zm-2.51,-40.31l2.19,0l0,3.56l-2.19,0l0,-3.56zm-45.21,-33.97c0,-10.87 8.84,-19.71 19.71,-19.71s19.71,8.84 19.71,19.71l0,27.01l-39.42,0l0,-27.01zm-7.98,33.97l2.19,0l0,3.56l-2.19,0l0,-3.56zm0,6.32l2.19,0l0,1.14c0,1.68 1.35,3.04 3.02,3.06l0,0l0.04,0l5.26,0l0,-2.76l0,-11.72c-1.76,-0.07 -3.53,-0.15 -5.29,-0.25c7.23,-0.41 14.47,-0.52 21.7,-0.55c3.62,-0.01 7.23,0.02 10.85,0.1c3.62,0.07 7.23,0.22 10.85,0.45c-3.62,0.23 -7.23,0.38 -10.85,0.45c-3.62,0.08 -7.23,0.11 -10.85,0.1c-0.59,0 -1.18,-0.01 -1.78,-0.01l0,11.43l0,2.76l10.23,0l-10.23,0.39l-3.92,0.15l-2.86,0.11l-7.85,0.3l-5.29,0.2l0,3.8l0,12.99c0,9.77 7.95,17.72 17.72,17.72l9.5,0c9.77,0 17.72,-7.95 17.72,-17.72l0,-12.99l0,-4.96l0,0c1.67,-0.02 3.02,-1.38 3.02,-3.06l0,-1.14l2.19,0l0,27.27c0,8.67 -7.05,15.72 -15.72,15.72l-23.93,0c-8.67,0 -15.72,-7.05 -15.72,-15.72l0,-27.26zm22.21,32.11c0.02,0.17 0.05,0.34 0.09,0.51c0.04,0.19 0.09,0.37 0.14,0.56l0,0c0.13,0.43 0.29,0.85 0.47,1.26c0.12,0.27 0.26,0.53 0.41,0.78c-0.32,-0.27 -0.59,-0.58 -0.84,-0.93c-0.33,-0.47 -0.59,-1.01 -0.79,-1.59c-0.21,-0.6 -0.35,-1.25 -0.42,-1.91c-0.04,-0.37 -0.06,-0.75 -0.06,-1.13l0,-12.28l0,-8.22l3.92,0l0,20.5c0,1 0.03,1.86 0.08,2.59c0.06,0.98 0.16,1.75 0.26,2.32c-0.61,-0.73 -1.1,-1.54 -1.38,-2.42c-0.12,-0.37 -0.2,-0.75 -0.25,-1.14c0,-0.01 0,-0.02 0,-0.03l-0.03,-0.3l-0.02,-0.34l-0.04,-0.69l-0.16,-2.76l-0.62,-11.05l-0.62,11.05l-0.1,1.78l-0.06,0.98l-0.04,0.69l-0.02,0.35l0,0.39c0.01,0.33 0.03,0.68 0.08,1.03zm-5.24,-1.65c0.09,0.16 0.18,0.31 0.27,0.46c-1.24,-1.3 -2.11,-2.89 -2.16,-4.61l-0.84,-14.9l-0.84,14.92c-0.02,1.4 0.39,2.8 1.05,4c0.12,0.22 0.25,0.43 0.38,0.64c-1.26,-1.31 -2.15,-2.91 -2.21,-4.66l-0.84,-14.9l-0.84,14.92c-0.02,1.4 0.39,2.8 1.05,4c0.26,0.47 0.55,0.91 0.87,1.33c-1.39,-1.52 -2.35,-3.36 -2.35,-5.43l0,-17.08l7.85,0l0,17.08c0,1.12 0,2.09 0.03,2.95c-0.46,-0.85 -0.75,-1.77 -0.78,-2.74l-0.84,-14.9l-0.84,14.92c-0.03,1.41 0.38,2.8 1.04,4zm-19.65,-25.53c0.02,-1.64 0.05,-3.29 0.09,-4.93c0.01,-0.53 0.02,-1.05 0.04,-1.58c0.05,-1.97 0.11,-3.95 0.18,-5.92c0.02,-0.53 0.04,-1.05 0.06,-1.58c0.03,-0.94 0.07,-1.88 0.11,-2.82c0.04,0.94 0.08,1.88 0.11,2.82c0.02,0.53 0.04,1.05 0.06,1.58c0.07,1.97 0.13,3.95 0.18,5.92c0.01,0.53 0.03,1.05 0.04,1.58c0.04,1.64 0.07,3.29 0.09,4.93c0.1,5.61 0.12,11.22 0.14,16.83l-0.01,4.21c0,0.7 -0.01,1.41 0.03,2.08l0.05,1.02l0.15,1.01c0.17,1.35 0.59,2.65 1.06,3.92c0.55,1.24 1.16,2.47 1.97,3.57c3.13,4.5 8.45,7.39 14.07,7.64c-2.81,0.13 -5.66,-0.49 -8.24,-1.69c-2.59,-1.2 -4.86,-3.09 -6.6,-5.38c-0.47,-0.55 -0.82,-1.18 -1.21,-1.79c-0.21,-0.3 -0.34,-0.63 -0.51,-0.95c-0.16,-0.32 -0.32,-0.65 -0.48,-0.97c-0.53,-1.34 -1,-2.72 -1.22,-4.16l-0.17,-1.07l-0.06,-1.08c-0.05,-0.73 -0.05,-1.43 -0.05,-2.13l-0.01,-4.21c0,-5.63 0.03,-11.24 0.13,-16.85zm-2.86,-9.67l1.13,0l0,0.4l-1.13,0c-0.11,0 -0.2,-0.09 -0.2,-0.2s0.09,-0.2 0.2,-0.2z" class="st2"/>
     <path id="path330" d="m39.81,15.03c1.42,-0.57 2.95,-0.91 4.51,-0.98c-1.89,-0.08 -3.8,0.25 -5.6,0.94c0.15,-0.03 0.3,-0.04 0.46,-0.04c0.21,0.01 0.43,0.03 0.63,0.08z" class="st2"/>
     <path id="path332" d="m28.03,34.95c0.26,0.14 0.55,0.22 0.87,0.22c0.64,0 1.2,-0.33 1.53,-0.82c0.19,-0.29 0.31,-0.65 0.31,-1.02c0,-0.43 -0.15,-0.83 -0.4,-1.14c-0.34,-0.43 -0.86,-0.71 -1.45,-0.71c-0.26,0 -0.51,0.06 -0.73,0.15c-0.66,0.28 -1.12,0.94 -1.12,1.69c0.01,0.71 0.41,1.32 0.99,1.63z" class="st2"/>
     <path id="path334" d="m37.85,73.62l0,-11.46c-0.95,-0.01 -1.9,-0.03 -2.86,-0.04l0,11.5l0,2.76l2.86,0l0,-2.76z" class="st2"/>
     <path id="path336" d="m27.98,36.13l-0.41,9.99c0.4,-0.2 0.85,-0.32 1.33,-0.32c0.8,0 1.52,0.32 2.05,0.83l-0.45,-10.83c-0.46,0.3 -1.01,0.47 -1.6,0.47c-0.32,0 -0.63,-0.05 -0.92,-0.14z" class="st2"/>
     <path id="path338" d="m39.18,46.9c-1.02,0 -1.85,0.83 -1.85,1.85c0,1.02 0.83,1.84 1.85,1.84c1.02,0 1.84,-0.83 1.84,-1.84c0,-1.02 -0.82,-1.85 -1.84,-1.85z" class="st2"/>
     <path id="path340" d="m54.6,54.61c-1.02,0 -1.85,0.83 -1.85,1.84c0,0.5 0.21,0.98 0.58,1.33l2.53,0c0.37,-0.35 0.58,-0.83 0.58,-1.33c0,-1.01 -0.82,-1.84 -1.84,-1.84z" class="st2"/>
     <path id="path342" d="m49.46,16.06c-1.02,0 -1.84,0.83 -1.84,1.84c0,1.02 0.83,1.84 1.84,1.84c1.02,0 1.85,-0.83 1.85,-1.84c-0.01,-1.01 -0.83,-1.84 -1.85,-1.84z" class="st2"/>
     <path id="path344" d="m59.74,46.9c-1.02,0 -1.85,0.83 -1.85,1.85c0,1.02 0.83,1.84 1.85,1.84c1.02,0 1.84,-0.83 1.84,-1.84c0.01,-1.02 -0.82,-1.85 -1.84,-1.85z" class="st2"/>
     <path id="path346" d="m59.74,31.48c-1.02,0 -1.85,0.83 -1.85,1.85c0,1.02 0.83,1.84 1.85,1.84c1.02,0 1.84,-0.83 1.84,-1.84c0.01,-1.02 -0.82,-1.85 -1.84,-1.85z" class="st2"/>
     <path id="path348" d="m49.46,31.48c-1.02,0 -1.84,0.83 -1.84,1.85c0,1.02 0.83,1.84 1.84,1.84c1.02,0 1.85,-0.83 1.85,-1.84c-0.01,-1.02 -0.83,-1.85 -1.85,-1.85z" class="st2"/>
     <path id="path350" d="m54.6,23.77c-1.02,0 -1.85,0.83 -1.85,1.84c0,1.02 0.83,1.84 1.85,1.84c1.02,0 1.84,-0.83 1.84,-1.84c0,-1.01 -0.82,-1.84 -1.84,-1.84z" class="st2"/>
     <path id="path352" d="m54.6,39.19c-1.02,0 -1.85,0.83 -1.85,1.84c0,1.02 0.83,1.85 1.85,1.85c1.02,0 1.84,-0.83 1.84,-1.85c0,-1.01 -0.82,-1.84 -1.84,-1.84z" class="st2"/>
     <path id="path354" d="m39.18,16.06c-1.02,0 -1.84,0.82 -1.84,1.84c0,1.02 0.83,1.84 1.84,1.84c1.02,0 1.84,-0.83 1.84,-1.84c0,-1.02 -0.83,-1.84 -1.84,-1.84z" class="st2"/>
     <path id="path356" d="m44.32,54.61c-1.02,0 -1.84,0.83 -1.84,1.84c0,0.5 0.21,0.98 0.58,1.33l2.53,0c0.37,-0.35 0.58,-0.83 0.58,-1.33c-0.01,-1.01 -0.83,-1.84 -1.85,-1.84z" class="st2"/>
     <path id="path358" d="m39.18,31.48c-1.02,0 -1.85,0.83 -1.85,1.85c0,1.02 0.83,1.84 1.85,1.84c1.02,0 1.84,-0.83 1.84,-1.84c0,-1.02 -0.82,-1.85 -1.84,-1.85z" class="st2"/>
     <path id="path360" d="m44.32,39.19c-1.02,0 -1.84,0.83 -1.84,1.84c0,1.02 0.83,1.85 1.84,1.85c1.02,0 1.85,-0.83 1.85,-1.85c-0.01,-1.01 -0.83,-1.84 -1.85,-1.84z" class="st2"/>
     <path id="path362" d="m44.32,23.77c-1.02,0 -1.84,0.83 -1.84,1.84c0,1.02 0.83,1.84 1.84,1.84c1.02,0 1.85,-0.83 1.85,-1.84c-0.01,-1.01 -0.83,-1.84 -1.85,-1.84z" class="st2"/>
     <path id="path364" d="m49.46,46.9c-1.02,0 -1.84,0.83 -1.84,1.85c0,1.02 0.83,1.84 1.84,1.84c1.02,0 1.85,-0.83 1.85,-1.84c-0.01,-1.02 -0.83,-1.85 -1.85,-1.85z" class="st2"/>
    </g>
   </g>
  </g>
 </g>
</svg>