<svg version="1.2" baseProfile="tiny-ps" xmlns="http://www.w3.org/2000/svg" viewBox="0 0 1180 1215" width="1180" height="1215">
	<title>logo_2-ai</title>
	<defs>
		<clipPath clipPathUnits="userSpaceOnUse" id="cp1">
			<path d="M842.44 563.48C842.44 708.43 724.94 825.92 580 825.92C435.06 825.92 317.56 708.43 317.56 563.48C317.56 418.54 435.06 301.04 580 301.04C724.94 301.04 842.44 418.54 842.44 563.48Z" />
		</clipPath>
	</defs>
	<style>
		tspan { white-space:pre }
		.shp0 { fill: #738081 } 
		.shp1 { fill: #ffffff } 
		.shp2 { fill: #1b1f23 } 
	</style>
	<g id="Layer 1">
		<g id="&lt;Group&gt;">
			<g id="&lt;Group&gt;">
				<g id="&lt;Group&gt;" style="opacity: 0.239">
					<g id="&lt;Group&gt;">
						<g id="&lt;Group&gt;">
							<path id="&lt;Path&gt;" class="shp0" d="M811.53 327.31L682.68 456.16C679.7 459.14 684.33 463.79 687.33 460.8L816.17 331.96C819.16 328.97 814.52 324.32 811.53 327.31Z" />
							<path id="&lt;Path&gt;" class="shp0" d="M916.9 221.94L855.38 283.46C852.39 286.45 857.03 291.1 860.02 288.1L921.54 226.58C924.53 223.6 919.89 218.95 916.9 221.94Z" />
						</g>
						<g id="&lt;Group&gt;">
							<path id="&lt;Path&gt;" class="shp0" d="M576.72 232.77L576.72 414.98C576.72 419.21 583.28 419.22 583.28 414.98L583.28 232.77C583.28 228.55 576.72 228.54 576.72 232.77Z" />
							<path id="&lt;Path&gt;" class="shp0" d="M576.72 83.75L576.72 170.76C576.72 174.98 583.28 174.99 583.28 170.76L583.28 83.75C583.28 79.53 576.72 79.52 576.72 83.75Z" />
						</g>
						<g id="&lt;Group&gt;">
							<path id="&lt;Path&gt;" class="shp0" d="M343.83 331.96L472.67 460.8C475.66 463.79 480.31 459.15 477.32 456.16L348.47 327.31C345.48 324.33 340.84 328.96 343.83 331.96Z" />
							<path id="&lt;Path&gt;" class="shp0" d="M238.46 226.58L299.98 288.1C302.97 291.09 307.61 286.45 304.62 283.46L243.1 221.94C240.11 218.95 235.46 223.59 238.46 226.58Z" />
						</g>
						<g id="&lt;Group&gt;">
							<path id="&lt;Path&gt;" class="shp0" d="M249.29 566.77L431.5 566.77C435.72 566.77 435.73 560.2 431.5 560.2L249.29 560.2C245.06 560.2 245.05 566.77 249.29 566.77Z" />
							<path id="&lt;Path&gt;" class="shp0" d="M100.27 566.77L187.27 566.77C191.5 566.77 191.5 560.2 187.27 560.2L100.27 560.2C96.04 560.2 96.04 566.77 100.27 566.77Z" />
						</g>
						<g id="&lt;Group&gt;">
							<path id="&lt;Path&gt;" class="shp0" d="M348.47 799.65L477.32 670.81C480.3 667.82 475.67 663.18 472.67 666.17L343.83 795.01C340.84 798 345.48 802.65 348.47 799.65Z" />
							<path id="&lt;Path&gt;" class="shp0" d="M243.1 905.03L304.62 843.51C307.61 840.52 302.97 835.87 299.98 838.86L238.46 900.38C235.47 903.37 240.11 908.02 243.1 905.03Z" />
						</g>
						<g id="&lt;Group&gt;">
							<path id="&lt;Path&gt;" class="shp0" d="M583.28 894.2L583.28 711.98C583.28 707.76 576.72 707.75 576.72 711.98L576.72 894.2C576.72 898.42 583.28 898.43 583.28 894.2Z" />
							<path id="&lt;Path&gt;" class="shp0" d="M583.28 1043.21L583.28 956.21C583.28 951.99 576.72 951.98 576.72 956.21L576.72 1043.21C576.72 1047.44 583.28 1047.45 583.28 1043.21Z" />
						</g>
						<g id="&lt;Group&gt;">
							<path id="&lt;Path&gt;" class="shp0" d="M816.17 795.01L687.33 666.17C684.34 663.18 679.69 667.82 682.68 670.81L811.53 799.65C814.52 802.64 819.16 798 816.17 795.01Z" />
							<path id="&lt;Path&gt;" class="shp0" d="M921.54 900.38L860.02 838.86C857.03 835.88 852.39 840.51 855.38 843.51L916.9 905.03C919.89 908.01 924.53 903.38 921.54 900.38Z" />
						</g>
						<g id="&lt;Group&gt;">
							<path id="&lt;Path&gt;" class="shp0" d="M910.71 560.2L728.5 560.2C724.27 560.2 724.27 566.77 728.5 566.77L910.71 566.77C914.94 566.77 914.95 560.2 910.71 560.2Z" />
							<path id="&lt;Path&gt;" class="shp0" d="M1059.73 560.2L972.73 560.2C968.5 560.2 968.5 566.77 972.73 566.77L1059.73 566.77C1063.96 566.77 1063.96 560.2 1059.73 560.2Z" />
						</g>
					</g>
					<g id="&lt;Group&gt;">
						<g id="&lt;Group&gt;">
							<path id="&lt;Path&gt;" class="shp0" d="M768.65 291.13L707.03 378.24C704.59 381.69 709.95 385.49 712.39 382.03L774.01 294.92C776.45 291.47 771.1 287.68 768.65 291.13Z" />
							<path id="&lt;Path&gt;" class="shp0" d="M836.91 194.64L807.52 236.19C805.08 239.64 810.44 243.43 812.88 239.98L842.27 198.44C844.71 194.99 839.36 191.19 836.91 194.64Z" />
						</g>
						<g id="&lt;Group&gt;">
							<path id="&lt;Path&gt;" class="shp0" d="M520.82 237.5L538.83 342.67C539.55 346.84 546.02 345.73 545.31 341.56L527.29 236.39C526.57 232.23 520.1 233.33 520.82 237.5Z" />
							<path id="&lt;Path&gt;" class="shp0" d="M500.85 121.01L509.45 171.17C510.16 175.33 516.64 174.23 515.92 170.06L507.33 119.9C506.61 115.74 500.14 116.84 500.85 121.01Z" />
						</g>
						<g id="&lt;Group&gt;">
							<path id="&lt;Path&gt;" class="shp0" d="M307.65 374.83L394.75 436.45C398.2 438.89 402 433.54 398.55 431.09L311.44 369.47C307.99 367.03 304.19 372.39 307.65 374.83Z" />
							<path id="&lt;Path&gt;" class="shp0" d="M211.16 306.57L252.7 335.96C256.15 338.4 259.95 333.04 256.49 330.6L214.95 301.21C211.5 298.77 207.7 304.13 211.16 306.57Z" />
						</g>
						<g id="&lt;Group&gt;">
							<path id="&lt;Path&gt;" class="shp0" d="M254.02 622.67L359.19 604.65C363.35 603.94 362.25 597.46 358.08 598.18L252.91 616.2C248.75 616.91 249.85 623.38 254.02 622.67Z" />
							<path id="&lt;Path&gt;" class="shp0" d="M137.52 642.63L187.68 634.03C191.85 633.32 190.74 626.85 186.57 627.56L136.42 636.16C132.25 636.87 133.35 643.34 137.52 642.63Z" />
						</g>
						<g id="&lt;Group&gt;">
							<path id="&lt;Path&gt;" class="shp0" d="M391.35 835.84L452.97 748.73C455.41 745.28 450.05 741.48 447.61 744.94L385.99 832.04C383.55 835.49 388.9 839.29 391.35 835.84Z" />
							<path id="&lt;Path&gt;" class="shp0" d="M323.09 932.32L352.48 890.78C354.92 887.33 349.56 883.53 347.12 886.99L317.73 928.53C315.29 931.98 320.64 935.78 323.09 932.32Z" />
						</g>
						<g id="&lt;Group&gt;">
							<path id="&lt;Path&gt;" class="shp0" d="M639.18 889.46L621.16 784.3C620.45 780.13 613.98 781.23 614.69 785.4L632.71 890.57C633.43 894.74 639.9 893.64 639.18 889.46Z" />
							<path id="&lt;Path&gt;" class="shp0" d="M659.14 1005.96L650.55 955.8C649.84 951.64 643.36 952.74 644.08 956.91L652.67 1007.07C653.39 1011.23 659.86 1010.13 659.14 1005.96Z" />
						</g>
						<g id="&lt;Group&gt;">
							<path id="&lt;Path&gt;" class="shp0" d="M852.35 752.14L765.24 690.51C761.8 688.07 758 693.43 761.45 695.87L848.56 757.5C852.01 759.94 855.81 754.58 852.35 752.14Z" />
							<path id="&lt;Path&gt;" class="shp0" d="M948.84 820.4L907.3 791.01C903.85 788.57 900.05 793.92 903.5 796.37L945.05 825.76C948.5 828.2 952.3 822.84 948.84 820.4Z" />
						</g>
						<g id="&lt;Group&gt;">
							<path id="&lt;Path&gt;" class="shp0" d="M905.98 504.3L800.81 522.32C796.65 523.03 797.75 529.51 801.92 528.79L907.09 510.77C911.25 510.06 910.15 503.58 905.98 504.3Z" />
							<path id="&lt;Path&gt;" class="shp0" d="M1022.47 484.34L972.32 492.93C968.15 493.65 969.25 500.12 973.43 499.41L1023.58 490.81C1027.75 490.1 1026.65 483.62 1022.47 484.34Z" />
						</g>
					</g>
					<g id="&lt;Group&gt;">
						<g id="&lt;Group&gt;">
							<path id="&lt;Path&gt;" class="shp0" d="M821.26 412.87L780.59 437.61C776.98 439.81 780.39 445.42 784 443.22L824.68 418.48C828.28 416.28 824.88 410.67 821.26 412.87Z" />
							<path id="&lt;Path&gt;" class="shp0" d="M920.84 352.29L852.12 394.1C848.51 396.3 851.91 401.91 855.53 399.71L924.25 357.9C927.86 355.71 924.45 350.1 920.84 352.29Z" />
						</g>
						<g id="&lt;Group&gt;">
							<path id="&lt;Path&gt;" class="shp0" d="M644.1 286.38L632.83 332.64C631.83 336.74 638.21 338.3 639.21 334.19L650.48 287.94C651.48 283.83 645.1 282.27 644.1 286.38Z" />
							<path id="&lt;Path&gt;" class="shp0" d="M671.67 173.14L652.64 251.3C651.64 255.4 658.02 256.96 659.02 252.85L678.05 174.7C679.05 170.59 672.68 169.03 671.67 173.14Z" />
						</g>
						<g id="&lt;Group&gt;">
							<path id="&lt;Path&gt;" class="shp0" d="M429.39 322.22L454.13 362.89C456.32 366.5 461.94 363.09 459.74 359.48L434.99 318.81C432.8 315.2 427.19 318.61 429.39 322.22Z" />
							<path id="&lt;Path&gt;" class="shp0" d="M368.81 222.65L410.62 291.37C412.81 294.98 418.42 291.57 416.23 287.95L374.42 219.24C372.22 215.63 366.61 219.03 368.81 222.65Z" />
						</g>
						<g id="&lt;Group&gt;">
							<path id="&lt;Path&gt;" class="shp0" d="M302.9 499.39L349.15 510.65C353.26 511.65 354.82 505.27 350.71 504.27L304.45 493.01C300.35 492.01 298.79 498.38 302.9 499.39Z" />
							<path id="&lt;Path&gt;" class="shp0" d="M189.66 471.81L267.81 490.84C271.92 491.84 273.48 485.46 269.37 484.46L191.21 465.43C187.11 464.43 185.55 470.81 189.66 471.81Z" />
						</g>
						<g id="&lt;Group&gt;">
							<path id="&lt;Path&gt;" class="shp0" d="M338.74 714.1L379.41 689.36C383.02 687.16 379.61 681.55 375.99 683.75L335.32 708.49C331.71 710.68 335.12 716.3 338.74 714.1Z" />
							<path id="&lt;Path&gt;" class="shp0" d="M239.16 774.67L307.88 732.87C311.49 730.67 308.09 725.06 304.47 727.26L235.75 769.06C232.14 771.26 235.55 776.87 239.16 774.67Z" />
						</g>
						<g id="&lt;Group&gt;">
							<path id="&lt;Path&gt;" class="shp0" d="M515.9 840.58L527.16 794.33C528.16 790.22 521.79 788.66 520.79 792.78L509.52 839.03C508.52 843.13 514.9 844.69 515.9 840.58Z" />
							<path id="&lt;Path&gt;" class="shp0" d="M488.33 953.82L507.36 875.67C508.36 871.57 501.98 870.01 500.98 874.12L481.95 952.27C480.95 956.38 487.32 957.94 488.33 953.82Z" />
						</g>
						<g id="&lt;Group&gt;">
							<path id="&lt;Path&gt;" class="shp0" d="M730.61 804.75L705.87 764.08C703.68 760.47 698.06 763.87 700.26 767.49L725 808.16C727.2 811.77 732.81 808.36 730.61 804.75Z" />
							<path id="&lt;Path&gt;" class="shp0" d="M791.19 904.32L749.38 835.6C747.19 831.99 741.57 835.4 743.77 839.01L785.58 907.73C787.77 911.34 793.39 907.94 791.19 904.32Z" />
						</g>
						<g id="&lt;Group&gt;">
							<path id="&lt;Path&gt;" class="shp0" d="M857.1 627.58L810.85 616.32C806.74 615.32 805.18 621.7 809.29 622.7L855.55 633.96C859.65 634.96 861.21 628.58 857.1 627.58Z" />
							<path id="&lt;Path&gt;" class="shp0" d="M970.34 655.16L892.19 636.13C888.08 635.13 886.52 641.51 890.63 642.51L968.79 661.54C972.89 662.54 974.45 656.16 970.34 655.16Z" />
						</g>
					</g>
					<g id="&lt;Group&gt;">
						<g id="&lt;Group&gt;">
							<path id="&lt;Path&gt;" class="shp0" d="M863.11 456.19L718.47 509.96C714.51 511.43 716.79 517.59 720.76 516.11L865.4 462.34C869.36 460.87 867.07 454.71 863.11 456.19Z" />
							<path id="&lt;Path&gt;" class="shp0" d="M923.11 433.88L893.88 444.74C889.92 446.22 892.2 452.37 896.17 450.9L925.4 440.03C929.36 438.56 927.08 432.4 923.11 433.88Z" />
						</g>
						<g id="&lt;Group&gt;">
							<path id="&lt;Path&gt;" class="shp0" d="M701.99 286.46L637.75 426.76C635.99 430.6 641.95 433.34 643.71 429.49L707.96 289.2C709.72 285.36 703.76 282.62 701.99 286.46Z" />
							<path id="&lt;Path&gt;" class="shp0" d="M728.65 228.26L715.66 256.61C713.9 260.46 719.87 263.2 721.63 259.35L734.62 230.99C736.38 227.15 730.41 224.41 728.65 228.26Z" />
						</g>
						<g id="&lt;Group&gt;">
							<path id="&lt;Path&gt;" class="shp0" d="M468.06 280.38L521.83 425.01C523.3 428.97 529.46 426.69 527.99 422.72L474.21 278.09C472.74 274.13 466.58 276.41 468.06 280.38Z" />
							<path id="&lt;Path&gt;" class="shp0" d="M445.75 220.37L456.62 249.6C458.09 253.56 464.25 251.28 462.77 247.32L451.9 218.08C450.43 214.12 444.27 216.4 445.75 220.37Z" />
						</g>
						<g id="&lt;Group&gt;">
							<path id="&lt;Path&gt;" class="shp0" d="M298.34 441.49L438.63 505.74C442.47 507.5 445.21 501.53 441.37 499.77L301.07 435.52C297.23 433.76 294.49 439.73 298.34 441.49Z" />
							<path id="&lt;Path&gt;" class="shp0" d="M240.13 414.83L268.49 427.82C272.33 429.58 275.07 423.61 271.22 421.85L242.86 408.86C239.02 407.1 236.28 413.07 240.13 414.83Z" />
						</g>
						<g id="&lt;Group&gt;">
							<path id="&lt;Path&gt;" class="shp0" d="M292.25 675.43L436.88 621.65C440.84 620.18 438.56 614.02 434.6 615.5L289.96 669.27C286 670.74 288.28 676.9 292.25 675.43Z" />
							<path id="&lt;Path&gt;" class="shp0" d="M232.24 697.73L261.48 686.87C265.44 685.39 263.15 679.24 259.19 680.71L229.95 691.58C225.99 693.05 228.27 699.21 232.24 697.73Z" />
						</g>
						<g id="&lt;Group&gt;">
							<path id="&lt;Path&gt;" class="shp0" d="M453.36 845.15L517.61 704.85C519.37 701.01 513.4 698.27 511.64 702.12L447.39 842.41C445.63 846.25 451.6 848.99 453.36 845.15Z" />
							<path id="&lt;Path&gt;" class="shp0" d="M426.71 903.35L439.69 875C441.45 871.16 435.48 868.42 433.72 872.26L420.74 900.62C418.98 904.46 424.94 907.2 426.71 903.35Z" />
						</g>
						<g id="&lt;Group&gt;">
							<path id="&lt;Path&gt;" class="shp0" d="M687.3 851.23L633.53 706.6C632.05 702.64 625.9 704.92 627.37 708.89L681.14 853.52C682.62 857.48 688.77 855.2 687.3 851.23Z" />
							<path id="&lt;Path&gt;" class="shp0" d="M709.61 911.24L698.74 882.01C697.27 878.05 691.11 880.33 692.58 884.3L703.45 913.53C704.93 917.49 711.08 915.21 709.61 911.24Z" />
						</g>
						<g id="&lt;Group&gt;">
							<path id="&lt;Path&gt;" class="shp0" d="M857.02 690.12L716.73 625.87C712.88 624.11 710.14 630.08 713.99 631.84L854.29 696.09C858.13 697.85 860.87 691.88 857.02 690.12Z" />
							<path id="&lt;Path&gt;" class="shp0" d="M915.23 716.78L886.87 703.79C883.03 702.03 880.29 708 884.14 709.76L912.49 722.75C916.33 724.51 919.07 718.54 915.23 716.78Z" />
						</g>
					</g>
				</g>
				<path id="&lt;Path&gt;" class="shp1" d="M900.2 563.48C900.2 740.32 756.84 883.68 580 883.68C403.16 883.68 259.8 740.32 259.8 563.48C259.8 386.64 403.16 243.29 580 243.29C756.84 243.29 900.2 386.64 900.2 563.48Z" />
				<g id="&lt;Group&gt;">
					<g id="&lt;Clip Group&gt;" clip-path="url(#cp1)">
						<g id="&lt;Group&gt;">
							<g id="&lt;Group&gt;">
								<path id="&lt;Path&gt;" class="shp2" d="M636.38 307.18C634.89 306.85 633.41 306.5 631.91 306.2L322.71 615.39C323.02 616.89 323.37 618.38 323.7 619.87L636.38 307.18Z" />
								<path id="&lt;Path&gt;" class="shp2" d="M666.48 315.7C665.13 315.23 663.77 314.77 662.4 314.32L330.83 645.89C331.28 647.25 331.74 648.61 332.21 649.97L666.48 315.7Z" />
								<path id="&lt;Path&gt;" class="shp2" d="M718.7 340.72C717.58 340.02 716.48 339.3 715.35 338.61L355.13 698.83C355.81 699.96 356.53 701.07 357.23 702.19L718.7 340.72Z" />
								<path id="&lt;Path&gt;" class="shp2" d="M693.84 326.96C692.61 326.36 691.33 325.83 690.09 325.25L341.77 673.57C342.35 674.82 342.88 676.09 343.47 677.33L693.84 326.96Z" />
								<path id="&lt;Path&gt;" class="shp2" d="M519.61 308.11C517.18 308.68 514.76 309.25 512.37 309.89L326.4 495.85C325.76 498.25 325.19 500.67 324.62 503.09L519.61 308.11Z" />
								<path id="&lt;Path&gt;" class="shp2" d="M457.92 331.17C453.72 333.38 449.58 335.69 445.52 338.11L354.63 429.01C352.2 433.07 349.9 437.21 347.69 441.41L457.92 331.17Z" />
								<path id="&lt;Path&gt;" class="shp2" d="M842.44 563.48C842.44 562.04 842.35 560.62 842.33 559.19L575.7 825.82C577.14 825.84 578.56 825.92 580 825.92C580.36 825.92 580.72 825.9 581.08 825.9L842.41 564.57C842.41 564.2 842.44 563.85 842.44 563.48Z" />
								<path id="&lt;Path&gt;" class="shp2" d="M741.41 356.63C740.39 355.83 739.38 355.01 738.35 354.23L370.74 721.84C371.52 722.87 372.35 723.87 373.14 724.89L741.41 356.63Z" />
								<path id="&lt;Path&gt;" class="shp2" d="M602.85 302.1C601.17 301.95 599.47 301.82 597.78 301.71L318.22 581.26C318.34 582.96 318.47 584.65 318.61 586.34L602.85 302.1Z" />
								<path id="&lt;Path&gt;" class="shp2" d="M564.82 301.51C562.84 301.63 560.88 301.8 558.91 301.96L318.48 542.39C318.32 544.36 318.14 546.32 318.03 548.3L564.82 301.51Z" />
								<path id="&lt;Path&gt;" class="shp2" d="M838.82 606.77C839.18 604.63 839.51 602.48 839.81 600.32L616.84 823.3C619 822.99 621.15 822.66 623.29 822.31L838.82 606.77Z" />
								<path id="&lt;Path&gt;" class="shp2" d="M840.03 528.33C839.81 526.72 839.66 525.09 839.41 523.49L540 822.9C541.61 823.14 543.24 823.3 544.85 823.51L840.03 528.33Z" />
								<path id="&lt;Path&gt;" class="shp2" d="M823.92 660.29C825.08 657.38 826.22 654.45 827.27 651.48L668 810.76C670.96 809.7 673.89 808.57 676.81 807.41L823.92 660.29Z" />
								<path id="&lt;Path&gt;" class="shp2" d="M833.66 496.08C833.28 494.65 832.86 493.25 832.45 491.83L508.34 815.94C509.76 816.34 511.17 816.77 512.6 817.15L833.66 496.08Z" />
								<path id="&lt;Path&gt;" class="shp2" d="M811.9 440.61C811.27 439.42 810.64 438.23 809.99 437.05L453.57 793.48C454.74 794.13 455.93 794.75 457.12 795.39L811.9 440.61Z" />
								<path id="&lt;Path&gt;" class="shp2" d="M780.75 394.52C779.92 393.53 779.06 392.57 778.22 391.59L408.11 761.7C409.08 762.55 410.05 763.41 411.03 764.24L780.75 394.52Z" />
								<path id="&lt;Path&gt;" class="shp2" d="M797.42 416.47C796.69 415.39 795.9 414.35 795.15 413.28L429.79 778.63C430.86 779.38 431.9 780.17 432.99 780.9L797.42 416.47Z" />
								<path id="&lt;Path&gt;" class="shp2" d="M824.07 467.05C823.56 465.75 823.06 464.43 822.53 463.14L479.65 806.01C480.95 806.55 482.26 807.04 483.57 807.56L824.07 467.05Z" />
								<path id="&lt;Path&gt;" class="shp2" d="M762.08 374.58C761.15 373.68 760.22 372.79 759.28 371.91L388.43 742.77C389.31 743.71 390.2 744.63 391.09 745.56L762.08 374.58Z" />
							</g>
						</g>
					</g>
					<g id="&lt;Group&gt;">
						<g id="&lt;Group&gt;">
							<path id="&lt;Compound Path&gt;" fill-rule="evenodd" class="shp2" d="M580 868.23C411.96 868.23 275.25 731.52 275.25 563.48C275.25 395.45 411.96 258.74 580 258.74C748.04 258.74 884.75 395.45 884.75 563.48C884.75 731.52 748.04 868.23 580 868.23ZM580 272.41C419.5 272.41 288.93 402.99 288.93 563.48C288.93 723.98 419.5 854.55 580 854.55C740.5 854.55 871.07 723.98 871.07 563.48C871.07 402.99 740.5 272.41 580 272.41Z" />
						</g>
					</g>
					<g id="&lt;Group&gt;">
						<g id="&lt;Group&gt;">
							<path id="&lt;Compound Path&gt;" fill-rule="evenodd" class="shp2" d="M580 830.48C432.78 830.48 313 710.71 313 563.48C313 416.26 432.78 296.48 580 296.48C727.23 296.48 847 416.26 847 563.48C847 710.71 727.23 830.48 580 830.48ZM580 305.6C437.8 305.6 322.12 421.29 322.12 563.48C322.12 705.68 437.8 821.36 580 821.36C722.2 821.36 837.88 705.68 837.88 563.48C837.88 421.29 722.2 305.6 580 305.6Z" />
						</g>
					</g>
				</g>
				<g id="&lt;Group&gt;">
					<path id="&lt;Compound Path&gt;" fill-rule="evenodd" class="shp1" d="M580 1015.21C543.81 1015.21 505.29 1011.85 476.96 1006.21C458.59 1002.56 402.72 991.45 402.72 950.47C402.72 941.77 405.69 925.35 425.46 912.65L476.22 877.75L478.42 882.22C492.71 877.8 510.57 874.56 531.91 872.55L531.91 759.63L519.42 759.63C489.98 759.63 466.03 733.54 466.03 701.48L466.03 661.85L450.69 655.32C429.94 646.48 418.1 622.93 422.54 599.33L424 591.5C424.44 589.1 425.18 586.82 426.17 584.68C426.02 582.33 426.15 579.94 426.59 577.58L429.23 563.44C429.68 561.04 430.42 558.76 431.41 556.63C431.25 554.26 431.39 551.86 431.84 549.47L434.46 535.37C434.91 532.98 435.65 530.7 436.64 528.57C436.49 526.2 436.63 523.79 437.07 521.4L439.7 507.31C440.14 504.91 440.88 502.62 441.87 500.48C441.72 498.12 441.86 495.72 442.3 493.35L444.93 479.24C445.38 476.86 446.11 474.59 447.09 472.46C446.94 470.11 447.08 467.73 447.52 465.36L449.85 452.89C450.35 450.2 451.23 447.65 452.42 445.3C452.16 442.63 452.27 439.92 452.77 437.22L455.4 423.12C455.81 420.93 456.45 418.84 457.32 416.87C457.22 414.72 457.38 412.53 457.78 410.36L460.16 397.6C467.3 359.31 492.62 345.02 513.94 344.41L525.85 344.39L618 344.39C618.48 344.38 619.14 344.37 619.94 344.37C626.95 344.37 637.15 345.14 646 348.85L707.7 375.14C735.61 387.03 751.47 419.17 745.4 451.57L707.22 655.27C705.92 662.25 703.28 668.8 699.55 674.54L699.55 699.28C699.55 732.56 674.77 759.63 644.3 759.63L628.17 759.63L628.17 872.56C667.08 876.25 694.4 883.97 709.61 895.61L709.66 895.54L732.95 911.66C754.08 924.49 757.27 941.43 757.27 950.47C757.27 991.45 701.4 1002.56 683.04 1006.21C654.71 1011.85 616.19 1015.21 580 1015.21ZM658.38 434.08C660.22 430.9 662.63 428.11 665.44 425.84L651.18 419.77C651.55 422.82 651.46 425.96 650.88 429.1L650.24 432.55L658.38 434.08Z" />
				</g>
				<g id="&lt;Group&gt;">
					<g id="&lt;Group&gt;">
						<path id="&lt;Path&gt;" class="shp2" d="M658.48 539.43C656.06 539.43 654.1 541.75 654.1 544.6C654.1 547.46 656.06 549.77 658.48 549.77C660.9 549.77 662.86 547.46 662.86 544.6C662.86 541.75 660.9 539.43 658.48 539.43Z" />
						<path id="&lt;Path&gt;" class="shp2" d="M633.01 430.51C629.76 444.47 626.7 458.49 623.86 472.55C620.97 486.61 618.25 500.71 615.58 514.83C610.34 543.08 605.34 571.4 601.25 599.95C607.75 572.03 613.33 543.86 618.67 515.63C621.3 501.51 623.88 487.37 626.28 473.19C628.73 459.02 630.97 444.79 633.01 430.51Z" />
						<path id="&lt;Path&gt;" class="shp2" d="M509.3 619.57C496 619.6 482.7 619.86 469.4 620.96C482.7 622.07 496 622.32 509.3 622.35C522.6 622.31 535.9 622.05 549.2 620.96C535.9 619.87 522.6 619.61 509.3 619.57Z" />
						<path id="&lt;Compound Path&gt;" fill-rule="evenodd" class="shp2" d="M730.24 950.47C730.24 978.14 640.39 988.18 580 988.18C519.61 988.18 429.76 978.14 429.76 950.47C429.76 944.78 433.33 939.64 440.38 935.2L465.79 917.73L465.85 917.86C484.01 902.32 541.82 898.56 558.95 897.78L558.95 732.6L519.42 732.6C504.88 732.6 493.06 718.64 493.06 701.48L493.06 643.98L461.29 630.45C452.26 626.61 447.03 615.37 449.1 604.32L450.57 596.45C450.72 595.63 451.44 595.03 452.28 595.03L458.95 595.01L456.84 606.34C455.62 612.82 458.69 619.4 463.98 621.65L527.38 648.66L536.63 648.66C538.34 648.66 540.03 649.01 541.61 649.68L565.66 659.92L573.11 659.92L549.71 649.95C549.11 649.7 549.27 648.66 549.9 648.66L560.3 648.66C562.05 648.66 563.78 649.01 565.39 649.7L589.39 659.92L596.84 659.92L573.43 649.95C572.84 649.7 572.99 648.66 573.63 648.66L584.09 648.66C585.8 648.66 587.49 649.01 589.06 649.68L613.11 659.92L620.57 659.92L597.16 649.95C596.57 649.7 596.72 648.66 597.35 648.66L605.4 648.66L595.28 644.08L579.21 636.8L567.16 631.34C565.99 630.82 564.06 629.93 562.54 628.82C559.44 626.54 556.89 623.24 555.33 619.38C553.72 615.55 553.13 611.16 553.54 606.96C553.58 606.43 553.67 605.91 553.75 605.4C553.84 604.89 553.92 604.32 554.01 603.95L554.51 601.48L555.52 596.55L555.91 594.64L458.97 594.97L460.46 586.98L512.39 585.66L454.85 584.56C453.78 584.54 452.98 583.55 453.17 582.5L455.8 568.39C455.96 567.57 456.68 566.97 457.51 566.97L464.19 566.94L462.74 574.73C462.54 575.81 463.36 576.8 464.46 576.79L559.63 576.47L561.65 566.58L464.24 566.91L465.72 558.94L526.65 557.57L460.09 556.49C459.02 556.47 458.21 555.49 458.41 554.43L461.04 540.33C461.19 539.51 461.91 538.91 462.75 538.9L469.42 538.88L467.97 546.67C467.77 547.74 468.6 548.73 469.69 548.73L565.37 548.41L565.62 547.18L567.39 538.51L469.44 538.85L470.93 530.89L534.64 529.5L465.33 528.42C464.25 528.4 463.45 527.42 463.64 526.36L466.27 512.27C466.43 511.44 467.14 510.84 467.98 510.84L474.66 510.82L473.2 518.6C473 519.68 473.83 520.67 474.92 520.67L571.11 520.34L573.13 510.45L474.71 510.78L476.19 502.83L548.04 501.41L470.57 500.36C469.49 500.34 468.68 499.36 468.88 498.29L471.51 484.2C471.66 483.38 472.38 482.78 473.21 482.78L479.89 482.76L478.44 490.54C478.24 491.62 479.06 492.61 480.16 492.6L576.84 492.28L578.87 482.39L479.91 482.72L481.39 474.82L552.43 473.41L475.79 472.37C474.71 472.35 473.9 471.37 474.1 470.3L476.42 457.85C476.57 457.03 477.28 456.44 478.1 456.42L484.83 456.29L483.67 462.48C483.47 463.55 484.3 464.55 485.39 464.54L582.58 464.21L584.61 454.32L529.26 454.51L485.29 453.91L486.64 446.71L558.52 445.28L481.04 444.23C479.96 444.22 479.15 443.23 479.35 442.17L481.97 428.08C482.13 427.25 482.85 426.66 483.68 426.65L490.36 426.63L488.91 434.42C488.7 435.49 489.53 436.48 490.63 436.48L588.32 436.15L589.85 428.69L590.35 426.26L490.38 426.59L492.11 417.35L486.08 417.37C484.98 417.37 484.16 416.38 484.36 415.3L486.73 402.55C490.35 383.18 500.54 371.84 514.71 371.43L525.87 371.42L618.41 371.42C618.71 371.41 629 371.04 635.55 373.78L697.1 400.01C713.18 406.86 722.53 426.89 718.83 446.59L680.65 650.29C679.55 656.18 676.63 661.32 672.52 664.78L672.52 699.28C672.52 717.65 659.86 732.6 644.3 732.6L601.13 732.6L601.13 897.78C618.25 898.57 676.02 902.33 694.16 917.87L694.22 917.73C694.22 917.74 716.52 933.17 718.31 934.4C726.34 939.11 730.24 944.36 730.24 950.47ZM633.75 708.19C633.93 706.99 634.11 705.79 634.13 704.57C634.21 703.4 634.17 701.89 634.19 700.56L634.25 692.33L634.36 675.89L634.8 610.09L635.24 544.29L635.29 536.07L635.32 531.96C635.32 531.31 635.32 530.54 635.4 529.75C635.47 528.98 635.63 528.22 635.83 527.48C635.84 527.47 635.84 527.46 635.85 527.45C634.38 527.75 633.26 529.25 633.26 531.06L633.26 702.95C633.26 713.05 627.37 721.02 618.97 723.25L623.1 723.25C624.63 722.5 626.08 721.52 627.38 720.29C630.57 717.26 632.87 712.93 633.75 708.19ZM664.6 557.73C662.78 558.91 660.7 559.6 658.48 559.6C658.37 559.6 658.26 559.59 658.15 559.58L658.15 559.62C646.14 559.62 641.86 551.86 641.86 544.6C641.86 538.99 643.96 529.58 657.97 529.58L657.97 529.63C658.14 529.62 658.31 529.6 658.48 529.6C660.7 529.6 662.78 530.27 664.6 531.45L664.6 531.06C664.6 529.03 663.2 527.39 661.49 527.39L638.28 527.39C638.16 527.69 638.05 528 637.96 528.32C637.82 528.89 637.7 529.46 637.66 530.06C637.6 530.63 637.61 531.24 637.62 531.96L637.64 536.07L637.7 544.29L638.14 610.09L638.58 675.89L638.68 692.33L638.74 700.56C638.73 701.97 638.8 703.2 638.73 704.77C638.72 706.29 638.52 707.8 638.31 709.31C637.4 714.58 635.11 719.48 631.86 723.25L633.03 723.25C633.51 722.8 633.97 722.28 634.39 721.72C636.08 719.49 637.31 716.61 638.14 713.58C638.95 710.53 639.37 707.3 639.43 704.05L639.58 693.72L641.31 569.59L643.03 693.72L643.17 704.08C643.19 707.72 642.8 711.39 641.93 714.94C641.5 716.67 640.95 718.39 640.26 720.04C641.39 718.12 642.26 715.9 642.89 713.58C643.71 710.53 644.13 707.3 644.19 704.05L644.33 693.72L644.91 652.34L646.06 569.59L647.21 652.34L647.79 693.72L647.93 704.08C647.94 707.72 647.55 711.39 646.69 714.94C646.25 716.67 645.7 718.39 645.01 720.04C646.14 718.12 647.01 715.9 647.65 713.58C648.46 710.53 648.88 707.3 648.94 704.05L649.09 693.72L649.66 652.34L650.81 569.59L651.97 652.34L652.54 693.72L652.68 704.08C652.7 707.72 652.31 711.39 651.44 714.94C651.01 716.67 650.46 718.39 649.77 720.04C650.89 718.12 651.77 715.9 652.4 713.58C653.22 710.53 653.64 707.3 653.69 704.05L653.84 693.72L655.57 569.59L656.72 652.34L657.3 693.72L657.44 704.08C657.45 707.72 657.06 711.39 656.19 714.94C655.77 716.63 655.23 718.3 654.56 719.92C654.57 719.91 654.58 719.9 654.59 719.9C655.69 718.01 656.54 715.84 657.15 713.58C657.97 710.53 658.39 707.3 658.45 704.05L658.59 693.72L660.32 569.59L662.05 693.72L662.19 704.08C662.2 706.66 662 709.24 661.58 711.79C662.03 710.92 662.45 710.01 662.81 709.06C663.04 707.41 663.17 705.73 663.2 704.05L663.35 693.72L663.93 652.34L664.6 604.05L664.6 557.73ZM625.33 643.97L625.33 531.06C625.33 523.88 630.29 518.03 636.37 518.03L661.49 518.03C667.57 518.03 672.52 523.88 672.52 531.06L672.52 532.23L693.03 540.94L694.8 531.49L670.15 520.59C669.01 520.08 668.36 518.66 668.62 517.26L670.95 504.75C671.27 503.04 672.79 502.06 674.18 502.65L698.29 512.89L700.06 503.44L675.38 492.52C674.24 492.02 673.58 490.6 673.85 489.19L676.18 476.68C676.5 474.98 678.02 474 679.41 474.59L703.55 484.84L705.32 475.39L680.61 464.46C679.47 463.96 678.81 462.54 679.08 461.13L681.41 448.62C681.73 446.92 683.25 445.93 684.64 446.52L708.81 456.79L711.1 444.57C713.93 429.44 706.76 414.07 694.41 408.81L632.88 382.59C628.64 380.82 621.09 380.68 618.53 380.77L514.81 380.79C514.49 380.8 514.19 380.85 513.87 380.87C512.35 381.59 510.88 382.53 509.52 383.68C507.76 385.17 506.21 387.06 504.83 389.12C502.06 393.29 500.18 398.34 498.83 403.56C499.54 398.17 500.79 392.75 503.18 387.83C503.87 386.41 504.67 385.03 505.54 383.71C499 388.15 495.9 396.9 494.47 404.57L493.75 408.42L594.06 408.08C594.69 405.09 595.19 402.03 596.15 399.12C597.18 395.93 598.61 392.94 600.36 390.26C598.7 393.02 597.39 396.06 596.48 399.25C595.63 402.16 595.23 405.23 594.71 408.26L622.35 420C623.8 420.62 624.63 422.4 624.3 424.18L622.15 435.69C621.75 437.83 619.83 439.06 618.09 438.29L591.62 426.58L591.2 429.04L589.94 436.52L617.12 448.07C618.57 448.68 619.4 450.47 619.07 452.24L616.92 463.75C616.52 465.89 614.6 467.12 612.86 466.35L586.85 454.84L585.18 464.78L611.89 476.13C613.34 476.74 614.17 478.53 613.84 480.3L611.69 491.81C611.29 493.96 609.37 495.18 607.63 494.41L582.08 483.11L580.41 493.04L606.66 504.19C608.11 504.81 608.94 506.59 608.61 508.36L606.46 519.88C606.06 522.02 604.14 523.25 602.4 522.48L577.32 511.38L575.64 521.3L601.43 532.26C602.88 532.87 603.71 534.66 603.38 536.43L601.23 547.94C600.83 550.08 598.91 551.31 597.17 550.54L572.55 539.65L571.04 548.59L570.88 549.56L596.2 560.32C597.65 560.93 598.48 562.72 598.15 564.49L596 576C595.6 578.15 593.69 579.37 591.94 578.6L567.78 567.91L566.11 577.82L590.97 588.38C592.42 589 593.25 590.78 592.92 592.55L590.77 604.06C590.37 606.21 588.46 607.44 586.71 606.67L563.01 596.18L562.64 598.4L561.8 603.38L561.38 605.87C561.29 606.33 561.27 606.6 561.23 606.92C561.19 607.24 561.14 607.55 561.14 607.87C560.78 612.94 563.13 618.02 566.8 620.37C568.31 621.36 571.51 622.42 574.12 623.53L598.58 633.29L625.33 643.97ZM668.02 544.6C668.02 538.39 663.74 533.34 658.48 533.34C653.22 533.34 648.94 538.39 648.94 544.6C648.94 550.81 653.22 555.86 658.48 555.86C661.45 555.86 664.2 554.27 666.03 551.49C667.33 549.51 668.02 547.12 668.02 544.6ZM673.77 643.7L672.52 643.14L672.52 649.91C672.68 649.37 672.81 648.83 672.92 648.27L673.77 643.7ZM679.03 615.65L672.52 612.77L672.52 623.08L677.26 625.1L679.03 615.65ZM684.29 587.6L672.52 582.39L672.52 592.8L682.52 597.05L684.29 587.6ZM689.55 559.55L670.01 550.9C669.61 551.93 669.11 552.9 668.53 553.78C668.53 553.78 668.53 553.78 668.53 553.78L672.52 553.78L672.52 562.51L687.78 568.99L689.55 559.55ZM646.73 552.33L646.65 552.39C645.28 550.22 644.51 547.55 644.31 544.83C644.13 542.09 644.73 539.27 646.01 536.93C646.59 535.86 647.33 534.93 648.12 534.08C645.06 536.26 643.45 539.78 643.45 544.6C643.45 550.03 645.99 554.07 650.38 556.16C647.56 553.41 645.77 549.25 645.77 544.6C645.77 540.69 647.06 537.15 649.14 534.48C649.07 534.54 648.99 534.6 648.92 534.66C648.07 535.48 647.29 536.39 646.67 537.45C645.42 539.57 644.79 542.18 644.85 544.8C644.91 547.42 645.57 550.03 646.73 552.33ZM535.89 691.79C535.89 697.76 540.01 702.63 545.07 702.63L625.33 702.63L625.33 669.28C625.31 669.28 556.02 669.28 555.99 669.28C555.96 669.28 552.64 669.28 552.61 669.28L552.61 668.94C551.4 668.7 550.21 668.33 549.04 667.83L535.89 662.23L535.89 691.79ZM517.33 723.1C509.1 720.68 502.68 712.79 501.04 702.89C501.62 713.41 508.54 721.92 517.33 723.1ZM614.16 714.53C616.72 714.53 619.37 713.7 621.45 711.98L545.07 711.98C535.64 711.98 527.97 702.92 527.97 691.79L527.97 658.85L526.54 658.24L525.15 702.59L523.8 657.08L521.74 656.2L520.4 699.36L519.08 655.07L516.95 654.16L515.65 696.13L514.36 653.06L512.16 652.12L510.89 692.9L509.64 651.05L508.55 650.58L508.55 697.92C508.55 707.08 514.87 714.53 522.63 714.53L614.16 714.53ZM468.26 928.15C468.26 934.06 502.62 949.6 580 949.6C610.08 949.6 633.64 947.25 651.23 944.03C637.38 946 620.95 947.15 603.31 947.15C554.02 947.15 514.06 938.22 514.06 927.21C514.06 920.57 528.62 914.69 550.99 911.07L547.67 923.96L547.67 925.35C547.67 935.51 557.05 939.65 580.04 939.65C603.03 939.65 612.41 935.51 612.41 925.35L612.41 923.96L608.16 907.48C606.77 907.41 605.37 907.33 603.97 907.27L608.45 924.65L608.45 925.35C608.45 927.98 608.45 934.97 580.04 934.97C551.63 934.97 551.63 927.98 551.63 925.35L551.63 924.65L556.12 907.26C531.9 908.42 509.88 911.33 493.53 915.57C469.35 921.85 468.26 928.09 468.26 928.15ZM580.04 907.5C585.92 907.5 590.31 907.01 593.21 906.45L593.21 732.6L589.6 732.6L586.57 885.84L583.55 732.6L578.6 732.6L578.6 907.49C579.07 907.5 579.55 907.5 580.04 907.5ZM562.42 914.94L560.23 923.43C563.33 924.43 570.18 925.62 580.04 925.62C589.9 925.62 596.75 924.43 599.85 923.43L597.66 914.94C594.13 916.07 588.63 916.86 580.04 916.86C571.45 916.86 565.95 916.07 562.42 914.94ZM517.68 960.05C535.16 961.7 552.7 962.4 570.22 962.4C587.74 962.4 605.25 961.71 622.71 960.23C640.15 958.72 657.56 956.48 674.7 952.83C677.65 952.19 680.58 951.48 683.5 950.74C683.46 950.73 683.43 950.72 683.39 950.71C680.89 951.33 678.4 951.91 675.9 952.44C660.01 955.7 644.01 957.52 628.01 958.64C612 959.73 595.97 960.05 579.96 959.69C563.96 959.33 547.97 958.37 532.05 956.66C533.09 956.73 534.14 956.77 535.18 956.84C501.01 953.63 466.09 946.32 460.99 931.85L444.24 943.37C439.37 946.44 437.68 949.03 437.68 950.47C437.68 960.36 486.56 978.82 580 978.82C580.67 978.82 581.31 978.81 581.97 978.81C578.5 978.74 575.03 978.67 571.56 978.55C554.02 977.92 536.49 976.59 519.05 974.33C536.54 975.97 554.07 976.68 571.59 976.68C589.11 976.67 606.62 975.99 624.08 974.5C641.52 972.99 658.93 970.76 676.08 967.1C678.4 966.6 680.71 966.06 683.03 965.5C683.03 965.47 683.04 965.45 683.04 965.43C681.12 965.88 679.19 966.31 677.27 966.71C661.38 969.98 645.38 971.8 629.38 972.92C613.37 974 597.34 974.33 581.34 973.97C565.33 973.6 549.34 972.64 533.42 970.94C549.38 972.01 565.37 972.34 581.34 972.07C597.31 971.81 613.26 970.87 629.14 969.17C638.12 968.19 647.08 966.98 655.98 965.43C648.31 966.34 640.6 966.94 633.11 967.62C619.07 968.85 605 969.4 590.95 969.31C583.92 969.35 576.9 968.88 569.89 968.52L548.86 967.42L569.91 967.59C576.92 967.63 583.92 967.79 590.93 967.44C604.93 966.9 618.91 965.74 632.81 963.89C635.3 963.56 637.79 963.19 640.28 962.8C634.49 963.28 628.69 963.67 622.89 963.96C605.32 964.83 587.74 964.89 570.19 964.27C552.64 963.65 535.12 962.32 517.68 960.05Z" />
					</g>
				</g>
			</g>
		</g>
	</g>
</svg>