<svg version="1.2" baseProfile="tiny-ps" xmlns="http://www.w3.org/2000/svg" viewBox="0 0 1180 1215" width="1180" height="1215">
	<title>logo_2-ai</title>
	<defs>
		<clipPath clipPathUnits="userSpaceOnUse" id="cp1">
			<path d="M852.44 368.48C852.44 513.43 734.94 630.92 590 630.92C445.06 630.92 327.56 513.43 327.56 368.48C327.56 223.54 445.06 106.04 590 106.04C734.94 106.04 852.44 223.54 852.44 368.48Z" />
		</clipPath>
	</defs>
	<style>
		tspan { white-space:pre }
		.shp0 { fill: #738081 } 
		.shp1 { fill: #ffffff } 
		.shp2 { fill: #1b1f23 } 
	</style>
	<g id="Layer 1">
		<g id="&lt;Group&gt;">
			<g id="&lt;Group&gt;">
				<g id="&lt;Group&gt;" style="opacity: 0.239">
					<g id="&lt;Group&gt;">
						<g id="&lt;Group&gt;">
							<path id="&lt;Path&gt;" class="shp0" d="M821.53 132.31L692.68 261.16C689.7 264.14 694.33 268.79 697.33 265.8L826.17 136.96C829.16 133.97 824.52 129.32 821.53 132.31Z" />
							<path id="&lt;Path&gt;" class="shp0" d="M926.9 26.94L865.38 88.46C862.39 91.45 867.03 96.1 870.02 93.1L931.54 31.58C934.53 28.6 929.89 23.95 926.9 26.94Z" />
						</g>
						<g id="&lt;Group&gt;">
							<path id="&lt;Path&gt;" class="shp0" d="M586.72 37.77L586.72 219.98C586.72 224.21 593.28 224.22 593.28 219.98L593.28 37.77C593.28 33.55 586.72 33.54 586.72 37.77Z" />
							<path id="&lt;Path&gt;" class="shp0" d="M586.72 -111.25L586.72 -24.24C586.72 -20.02 593.28 -20.01 593.28 -24.24L593.28 -111.25C593.28 -115.47 586.72 -115.48 586.72 -111.25Z" />
						</g>
						<g id="&lt;Group&gt;">
							<path id="&lt;Path&gt;" class="shp0" d="M353.83 136.96L482.67 265.8C485.66 268.79 490.31 264.15 487.32 261.16L358.47 132.31C355.48 129.33 350.84 133.96 353.83 136.96Z" />
							<path id="&lt;Path&gt;" class="shp0" d="M248.46 31.58L309.98 93.1C312.97 96.09 317.61 91.45 314.62 88.46L253.1 26.94C250.11 23.95 245.46 28.59 248.46 31.58Z" />
						</g>
						<g id="&lt;Group&gt;">
							<path id="&lt;Path&gt;" class="shp0" d="M259.29 371.77L441.5 371.77C445.72 371.77 445.73 365.2 441.5 365.2L259.29 365.2C255.06 365.2 255.05 371.77 259.29 371.77Z" />
							<path id="&lt;Path&gt;" class="shp0" d="M110.27 371.77L197.27 371.77C201.5 371.77 201.5 365.2 197.27 365.2L110.27 365.2C106.04 365.2 106.04 371.77 110.27 371.77Z" />
						</g>
						<g id="&lt;Group&gt;">
							<path id="&lt;Path&gt;" class="shp0" d="M358.47 604.65L487.32 475.81C490.3 472.82 485.67 468.18 482.67 471.17L353.83 600.01C350.84 603 355.48 607.65 358.47 604.65Z" />
							<path id="&lt;Path&gt;" class="shp0" d="M253.1 710.03L314.62 648.51C317.61 645.52 312.97 640.87 309.98 643.86L248.46 705.38C245.47 708.37 250.11 713.02 253.1 710.03Z" />
						</g>
						<g id="&lt;Group&gt;">
							<path id="&lt;Path&gt;" class="shp0" d="M593.28 699.2L593.28 516.98C593.28 512.76 586.72 512.75 586.72 516.98L586.72 699.2C586.72 703.42 593.28 703.43 593.28 699.2Z" />
							<path id="&lt;Path&gt;" class="shp0" d="M593.28 848.21L593.28 761.21C593.28 756.99 586.72 756.98 586.72 761.21L586.72 848.21C586.72 852.44 593.28 852.45 593.28 848.21Z" />
						</g>
						<g id="&lt;Group&gt;">
							<path id="&lt;Path&gt;" class="shp0" d="M826.17 600.01L697.33 471.17C694.34 468.18 689.69 472.82 692.68 475.81L821.53 604.65C824.52 607.64 829.16 603 826.17 600.01Z" />
							<path id="&lt;Path&gt;" class="shp0" d="M931.54 705.38L870.02 643.86C867.03 640.88 862.39 645.51 865.38 648.51L926.9 710.03C929.89 713.01 934.53 708.38 931.54 705.38Z" />
						</g>
						<g id="&lt;Group&gt;">
							<path id="&lt;Path&gt;" class="shp0" d="M920.71 365.2L738.5 365.2C734.27 365.2 734.27 371.77 738.5 371.77L920.71 371.77C924.94 371.77 924.95 365.2 920.71 365.2Z" />
							<path id="&lt;Path&gt;" class="shp0" d="M1069.73 365.2L982.73 365.2C978.5 365.2 978.5 371.77 982.73 371.77L1069.73 371.77C1073.96 371.77 1073.96 365.2 1069.73 365.2Z" />
						</g>
					</g>
					<g id="&lt;Group&gt;">
						<g id="&lt;Group&gt;">
							<path id="&lt;Path&gt;" class="shp0" d="M778.65 96.13L717.03 183.24C714.59 186.69 719.95 190.49 722.39 187.03L784.01 99.92C786.45 96.47 781.1 92.68 778.65 96.13Z" />
							<path id="&lt;Path&gt;" class="shp0" d="M846.91 -0.36L817.52 41.19C815.08 44.64 820.44 48.43 822.88 44.98L852.27 3.44C854.71 -0.01 849.36 -3.81 846.91 -0.36Z" />
						</g>
						<g id="&lt;Group&gt;">
							<path id="&lt;Path&gt;" class="shp0" d="M530.82 42.5L548.83 147.67C549.55 151.84 556.02 150.73 555.31 146.56L537.29 41.39C536.57 37.23 530.1 38.33 530.82 42.5Z" />
							<path id="&lt;Path&gt;" class="shp0" d="M510.85 -73.99L519.45 -23.83C520.16 -19.67 526.64 -20.77 525.92 -24.94L517.33 -75.1C516.61 -79.26 510.14 -78.16 510.85 -73.99Z" />
						</g>
						<g id="&lt;Group&gt;">
							<path id="&lt;Path&gt;" class="shp0" d="M317.65 179.83L404.75 241.45C408.2 243.89 412 238.54 408.55 236.09L321.44 174.47C317.99 172.03 314.19 177.39 317.65 179.83Z" />
							<path id="&lt;Path&gt;" class="shp0" d="M221.16 111.57L262.7 140.96C266.15 143.4 269.95 138.04 266.49 135.6L224.95 106.21C221.5 103.77 217.7 109.13 221.16 111.57Z" />
						</g>
						<g id="&lt;Group&gt;">
							<path id="&lt;Path&gt;" class="shp0" d="M264.02 427.67L369.19 409.65C373.35 408.94 372.25 402.46 368.08 403.18L262.91 421.2C258.75 421.91 259.85 428.38 264.02 427.67Z" />
							<path id="&lt;Path&gt;" class="shp0" d="M147.52 447.63L197.68 439.03C201.85 438.32 200.74 431.85 196.57 432.56L146.42 441.16C142.25 441.87 143.35 448.34 147.52 447.63Z" />
						</g>
						<g id="&lt;Group&gt;">
							<path id="&lt;Path&gt;" class="shp0" d="M401.35 640.84L462.97 553.73C465.41 550.28 460.05 546.48 457.61 549.94L395.99 637.04C393.55 640.49 398.9 644.29 401.35 640.84Z" />
							<path id="&lt;Path&gt;" class="shp0" d="M333.09 737.32L362.48 695.78C364.92 692.33 359.56 688.53 357.12 691.99L327.73 733.53C325.29 736.98 330.64 740.78 333.09 737.32Z" />
						</g>
						<g id="&lt;Group&gt;">
							<path id="&lt;Path&gt;" class="shp0" d="M649.18 694.46L631.16 589.3C630.45 585.13 623.98 586.23 624.69 590.4L642.71 695.57C643.43 699.74 649.9 698.64 649.18 694.46Z" />
							<path id="&lt;Path&gt;" class="shp0" d="M669.14 810.96L660.55 760.8C659.84 756.64 653.36 757.74 654.08 761.91L662.67 812.07C663.39 816.23 669.86 815.13 669.14 810.96Z" />
						</g>
						<g id="&lt;Group&gt;">
							<path id="&lt;Path&gt;" class="shp0" d="M862.35 557.14L775.24 495.51C771.8 493.07 768 498.43 771.45 500.87L858.56 562.5C862.01 564.94 865.81 559.58 862.35 557.14Z" />
							<path id="&lt;Path&gt;" class="shp0" d="M958.84 625.4L917.3 596.01C913.85 593.57 910.05 598.92 913.5 601.37L955.05 630.76C958.5 633.2 962.3 627.84 958.84 625.4Z" />
						</g>
						<g id="&lt;Group&gt;">
							<path id="&lt;Path&gt;" class="shp0" d="M915.98 309.3L810.81 327.32C806.65 328.03 807.75 334.51 811.92 333.79L917.09 315.77C921.25 315.06 920.15 308.58 915.98 309.3Z" />
							<path id="&lt;Path&gt;" class="shp0" d="M1032.47 289.34L982.32 297.93C978.15 298.65 979.25 305.12 983.43 304.41L1033.58 295.81C1037.75 295.1 1036.65 288.62 1032.47 289.34Z" />
						</g>
					</g>
					<g id="&lt;Group&gt;">
						<g id="&lt;Group&gt;">
							<path id="&lt;Path&gt;" class="shp0" d="M831.26 217.87L790.59 242.61C786.98 244.81 790.39 250.42 794 248.22L834.68 223.48C838.28 221.28 834.88 215.67 831.26 217.87Z" />
							<path id="&lt;Path&gt;" class="shp0" d="M930.84 157.29L862.12 199.1C858.51 201.3 861.91 206.91 865.53 204.71L934.25 162.9C937.86 160.71 934.45 155.1 930.84 157.29Z" />
						</g>
						<g id="&lt;Group&gt;">
							<path id="&lt;Path&gt;" class="shp0" d="M654.1 91.38L642.83 137.64C641.83 141.74 648.21 143.3 649.21 139.19L660.48 92.94C661.48 88.83 655.1 87.27 654.1 91.38Z" />
							<path id="&lt;Path&gt;" class="shp0" d="M681.67 -21.86L662.64 56.3C661.64 60.4 668.02 61.96 669.02 57.85L688.05 -20.3C689.05 -24.41 682.68 -25.97 681.67 -21.86Z" />
						</g>
						<g id="&lt;Group&gt;">
							<path id="&lt;Path&gt;" class="shp0" d="M439.39 127.22L464.13 167.89C466.32 171.5 471.94 168.09 469.74 164.48L444.99 123.81C442.8 120.2 437.19 123.61 439.39 127.22Z" />
							<path id="&lt;Path&gt;" class="shp0" d="M378.81 27.65L420.62 96.37C422.81 99.98 428.42 96.57 426.23 92.95L384.42 24.24C382.22 20.63 376.61 24.03 378.81 27.65Z" />
						</g>
						<g id="&lt;Group&gt;">
							<path id="&lt;Path&gt;" class="shp0" d="M312.9 304.39L359.15 315.65C363.26 316.65 364.82 310.27 360.71 309.27L314.45 298.01C310.35 297.01 308.79 303.38 312.9 304.39Z" />
							<path id="&lt;Path&gt;" class="shp0" d="M199.66 276.81L277.81 295.84C281.92 296.84 283.48 290.46 279.37 289.46L201.21 270.43C197.11 269.43 195.55 275.81 199.66 276.81Z" />
						</g>
						<g id="&lt;Group&gt;">
							<path id="&lt;Path&gt;" class="shp0" d="M348.74 519.1L389.41 494.36C393.02 492.16 389.61 486.55 385.99 488.75L345.32 513.49C341.71 515.68 345.12 521.3 348.74 519.1Z" />
							<path id="&lt;Path&gt;" class="shp0" d="M249.16 579.67L317.88 537.87C321.49 535.67 318.09 530.06 314.47 532.26L245.75 574.06C242.14 576.26 245.55 581.87 249.16 579.67Z" />
						</g>
						<g id="&lt;Group&gt;">
							<path id="&lt;Path&gt;" class="shp0" d="M525.9 645.58L537.16 599.33C538.16 595.22 531.79 593.66 530.79 597.78L519.52 644.03C518.52 648.13 524.9 649.69 525.9 645.58Z" />
							<path id="&lt;Path&gt;" class="shp0" d="M498.33 758.82L517.36 680.67C518.36 676.57 511.98 675.01 510.98 679.12L491.95 757.27C490.95 761.38 497.32 762.94 498.33 758.82Z" />
						</g>
						<g id="&lt;Group&gt;">
							<path id="&lt;Path&gt;" class="shp0" d="M740.61 609.75L715.87 569.08C713.68 565.47 708.06 568.87 710.26 572.49L735 613.16C737.2 616.77 742.81 613.36 740.61 609.75Z" />
							<path id="&lt;Path&gt;" class="shp0" d="M801.19 709.32L759.38 640.6C757.19 636.99 751.57 640.4 753.77 644.01L795.58 712.73C797.77 716.34 803.39 712.94 801.19 709.32Z" />
						</g>
						<g id="&lt;Group&gt;">
							<path id="&lt;Path&gt;" class="shp0" d="M867.1 432.58L820.85 421.32C816.74 420.32 815.18 426.7 819.29 427.7L865.55 438.96C869.65 439.96 871.21 433.58 867.1 432.58Z" />
							<path id="&lt;Path&gt;" class="shp0" d="M980.34 460.16L902.19 441.13C898.08 440.13 896.52 446.51 900.63 447.51L978.79 466.54C982.89 467.54 984.45 461.16 980.34 460.16Z" />
						</g>
					</g>
					<g id="&lt;Group&gt;">
						<g id="&lt;Group&gt;">
							<path id="&lt;Path&gt;" class="shp0" d="M873.11 261.19L728.47 314.96C724.51 316.43 726.79 322.59 730.76 321.11L875.4 267.34C879.36 265.87 877.07 259.71 873.11 261.19Z" />
							<path id="&lt;Path&gt;" class="shp0" d="M933.11 238.88L903.88 249.74C899.92 251.22 902.2 257.37 906.17 255.9L935.4 245.03C939.36 243.56 937.08 237.4 933.11 238.88Z" />
						</g>
						<g id="&lt;Group&gt;">
							<path id="&lt;Path&gt;" class="shp0" d="M711.99 91.46L647.75 231.76C645.99 235.6 651.95 238.34 653.71 234.49L717.96 94.2C719.72 90.36 713.76 87.62 711.99 91.46Z" />
							<path id="&lt;Path&gt;" class="shp0" d="M738.65 33.26L725.66 61.61C723.9 65.46 729.87 68.2 731.63 64.35L744.62 35.99C746.38 32.15 740.41 29.41 738.65 33.26Z" />
						</g>
						<g id="&lt;Group&gt;">
							<path id="&lt;Path&gt;" class="shp0" d="M478.06 85.38L531.83 230.01C533.3 233.97 539.46 231.69 537.99 227.72L484.21 83.09C482.74 79.13 476.58 81.41 478.06 85.38Z" />
							<path id="&lt;Path&gt;" class="shp0" d="M455.75 25.37L466.62 54.6C468.09 58.56 474.25 56.28 472.77 52.32L461.9 23.08C460.43 19.12 454.27 21.4 455.75 25.37Z" />
						</g>
						<g id="&lt;Group&gt;">
							<path id="&lt;Path&gt;" class="shp0" d="M308.34 246.49L448.63 310.74C452.47 312.5 455.21 306.53 451.37 304.77L311.07 240.52C307.23 238.76 304.49 244.73 308.34 246.49Z" />
							<path id="&lt;Path&gt;" class="shp0" d="M250.13 219.83L278.49 232.82C282.33 234.58 285.07 228.61 281.22 226.85L252.86 213.86C249.02 212.1 246.28 218.07 250.13 219.83Z" />
						</g>
						<g id="&lt;Group&gt;">
							<path id="&lt;Path&gt;" class="shp0" d="M302.25 480.43L446.88 426.65C450.84 425.18 448.56 419.02 444.6 420.5L299.96 474.27C296 475.74 298.28 481.9 302.25 480.43Z" />
							<path id="&lt;Path&gt;" class="shp0" d="M242.24 502.73L271.48 491.87C275.44 490.39 273.15 484.24 269.19 485.71L239.95 496.58C235.99 498.05 238.27 504.21 242.24 502.73Z" />
						</g>
						<g id="&lt;Group&gt;">
							<path id="&lt;Path&gt;" class="shp0" d="M463.36 650.15L527.61 509.85C529.37 506.01 523.4 503.27 521.64 507.12L457.39 647.41C455.63 651.25 461.6 653.99 463.36 650.15Z" />
							<path id="&lt;Path&gt;" class="shp0" d="M436.71 708.35L449.69 680C451.45 676.16 445.48 673.42 443.72 677.26L430.74 705.62C428.98 709.46 434.94 712.2 436.71 708.35Z" />
						</g>
						<g id="&lt;Group&gt;">
							<path id="&lt;Path&gt;" class="shp0" d="M697.3 656.23L643.53 511.6C642.05 507.64 635.9 509.92 637.37 513.89L691.14 658.52C692.62 662.48 698.77 660.2 697.3 656.23Z" />
							<path id="&lt;Path&gt;" class="shp0" d="M719.61 716.24L708.74 687.01C707.27 683.05 701.11 685.33 702.58 689.3L713.45 718.53C714.93 722.49 721.08 720.21 719.61 716.24Z" />
						</g>
						<g id="&lt;Group&gt;">
							<path id="&lt;Path&gt;" class="shp0" d="M867.02 495.12L726.73 430.87C722.88 429.11 720.14 435.08 723.99 436.84L864.29 501.09C868.13 502.85 870.87 496.88 867.02 495.12Z" />
							<path id="&lt;Path&gt;" class="shp0" d="M925.23 521.78L896.87 508.79C893.03 507.03 890.29 513 894.14 514.76L922.49 527.75C926.33 529.51 929.07 523.54 925.23 521.78Z" />
						</g>
					</g>
				</g>
				<path id="&lt;Path&gt;" class="shp1" d="M910.2 368.48C910.2 545.32 766.84 688.68 590 688.68C413.16 688.68 269.8 545.32 269.8 368.48C269.8 191.64 413.16 48.29 590 48.29C766.84 48.29 910.2 191.64 910.2 368.48Z" />
				<g id="&lt;Group&gt;">
					<g id="&lt;Clip Group&gt;" clip-path="url(#cp1)">
						<g id="&lt;Group&gt;">
							<g id="&lt;Group&gt;">
								<path id="&lt;Path&gt;" class="shp2" d="M646.38 112.18C644.89 111.85 643.41 111.5 641.91 111.2L332.71 420.39C333.02 421.89 333.37 423.38 333.7 424.87L646.38 112.18Z" />
								<path id="&lt;Path&gt;" class="shp2" d="M676.48 120.7C675.13 120.23 673.77 119.77 672.4 119.32L340.83 450.89C341.28 452.25 341.74 453.61 342.21 454.97L676.48 120.7Z" />
								<path id="&lt;Path&gt;" class="shp2" d="M728.7 145.72C727.58 145.02 726.48 144.3 725.35 143.61L365.13 503.83C365.81 504.96 366.53 506.07 367.23 507.19L728.7 145.72Z" />
								<path id="&lt;Path&gt;" class="shp2" d="M703.84 131.96C702.61 131.36 701.33 130.83 700.09 130.25L351.77 478.57C352.35 479.82 352.88 481.09 353.47 482.33L703.84 131.96Z" />
								<path id="&lt;Path&gt;" class="shp2" d="M529.61 113.11C527.18 113.68 524.76 114.25 522.37 114.89L336.4 300.85C335.76 303.25 335.19 305.67 334.62 308.09L529.61 113.11Z" />
								<path id="&lt;Path&gt;" class="shp2" d="M467.92 136.17C463.72 138.38 459.58 140.69 455.52 143.11L364.63 234.01C362.2 238.07 359.9 242.21 357.69 246.41L467.92 136.17Z" />
								<path id="&lt;Path&gt;" class="shp2" d="M852.44 368.48C852.44 367.04 852.35 365.62 852.33 364.19L585.7 630.82C587.14 630.84 588.56 630.92 590 630.92C590.36 630.92 590.72 630.9 591.08 630.9L852.41 369.57C852.41 369.2 852.44 368.85 852.44 368.48Z" />
								<path id="&lt;Path&gt;" class="shp2" d="M751.41 161.63C750.39 160.83 749.38 160.01 748.35 159.23L380.74 526.84C381.52 527.87 382.35 528.87 383.14 529.89L751.41 161.63Z" />
								<path id="&lt;Path&gt;" class="shp2" d="M612.85 107.1C611.17 106.95 609.47 106.82 607.78 106.71L328.22 386.26C328.34 387.96 328.47 389.65 328.61 391.34L612.85 107.1Z" />
								<path id="&lt;Path&gt;" class="shp2" d="M574.82 106.51C572.84 106.63 570.88 106.8 568.91 106.96L328.48 347.39C328.32 349.36 328.14 351.32 328.03 353.3L574.82 106.51Z" />
								<path id="&lt;Path&gt;" class="shp2" d="M848.82 411.77C849.18 409.63 849.51 407.48 849.81 405.32L626.84 628.3C629 627.99 631.15 627.66 633.29 627.31L848.82 411.77Z" />
								<path id="&lt;Path&gt;" class="shp2" d="M850.03 333.33C849.81 331.72 849.66 330.09 849.41 328.49L550 627.9C551.61 628.14 553.24 628.3 554.85 628.51L850.03 333.33Z" />
								<path id="&lt;Path&gt;" class="shp2" d="M833.92 465.29C835.08 462.38 836.22 459.45 837.27 456.48L678 615.76C680.96 614.7 683.89 613.57 686.81 612.41L833.92 465.29Z" />
								<path id="&lt;Path&gt;" class="shp2" d="M843.66 301.08C843.28 299.65 842.86 298.25 842.45 296.83L518.34 620.94C519.76 621.34 521.17 621.77 522.6 622.15L843.66 301.08Z" />
								<path id="&lt;Path&gt;" class="shp2" d="M821.9 245.61C821.27 244.42 820.64 243.23 819.99 242.05L463.57 598.48C464.74 599.13 465.93 599.75 467.12 600.39L821.9 245.61Z" />
								<path id="&lt;Path&gt;" class="shp2" d="M790.75 199.52C789.92 198.53 789.06 197.57 788.22 196.59L418.11 566.7C419.08 567.55 420.05 568.41 421.03 569.24L790.75 199.52Z" />
								<path id="&lt;Path&gt;" class="shp2" d="M807.42 221.47C806.69 220.39 805.9 219.35 805.15 218.28L439.79 583.63C440.86 584.38 441.9 585.17 442.99 585.9L807.42 221.47Z" />
								<path id="&lt;Path&gt;" class="shp2" d="M834.07 272.05C833.56 270.75 833.06 269.43 832.53 268.14L489.65 611.01C490.95 611.55 492.26 612.04 493.57 612.56L834.07 272.05Z" />
								<path id="&lt;Path&gt;" class="shp2" d="M772.08 179.58C771.15 178.68 770.22 177.79 769.28 176.91L398.43 547.77C399.31 548.71 400.2 549.63 401.09 550.56L772.08 179.58Z" />
							</g>
						</g>
					</g>
					<g id="&lt;Group&gt;">
						<g id="&lt;Group&gt;">
							<path id="&lt;Compound Path&gt;" fill-rule="evenodd" class="shp2" d="M590 673.23C421.96 673.23 285.25 536.52 285.25 368.48C285.25 200.45 421.96 63.74 590 63.74C758.04 63.74 894.75 200.45 894.75 368.48C894.75 536.52 758.04 673.23 590 673.23ZM590 77.41C429.5 77.41 298.93 207.99 298.93 368.48C298.93 528.98 429.5 659.55 590 659.55C750.5 659.55 881.07 528.98 881.07 368.48C881.07 207.99 750.5 77.41 590 77.41Z" />
						</g>
					</g>
					<g id="&lt;Group&gt;">
						<g id="&lt;Group&gt;">
							<path id="&lt;Compound Path&gt;" fill-rule="evenodd" class="shp2" d="M590 635.48C442.78 635.48 323 515.71 323 368.48C323 221.26 442.78 101.48 590 101.48C737.23 101.48 857 221.26 857 368.48C857 515.71 737.23 635.48 590 635.48ZM590 110.6C447.8 110.6 332.12 226.29 332.12 368.48C332.12 510.68 447.8 626.36 590 626.36C732.2 626.36 847.88 510.68 847.88 368.48C847.88 226.29 732.2 110.6 590 110.6Z" />
						</g>
					</g>
				</g>
				<g id="&lt;Group&gt;">
					<path id="&lt;Compound Path&gt;" fill-rule="evenodd" class="shp1" d="M590 820.21C553.81 820.21 515.29 816.85 486.96 811.21C468.59 807.56 412.72 796.45 412.72 755.47C412.72 746.77 415.69 730.35 435.46 717.65L486.22 682.75L488.42 687.22C502.71 682.8 520.57 679.56 541.91 677.55L541.91 564.63L529.42 564.63C499.98 564.63 476.03 538.54 476.03 506.48L476.03 466.85L460.69 460.32C439.94 451.48 428.1 427.93 432.54 404.33L434 396.5C434.44 394.1 435.18 391.82 436.17 389.68C436.02 387.33 436.15 384.94 436.59 382.58L439.23 368.44C439.68 366.04 440.42 363.76 441.41 361.63C441.25 359.26 441.39 356.86 441.84 354.47L444.46 340.37C444.91 337.98 445.65 335.7 446.64 333.57C446.49 331.2 446.63 328.79 447.07 326.4L449.7 312.31C450.14 309.91 450.88 307.62 451.87 305.48C451.72 303.12 451.86 300.72 452.3 298.35L454.93 284.24C455.38 281.86 456.11 279.59 457.09 277.46C456.94 275.11 457.08 272.73 457.52 270.36L459.85 257.89C460.35 255.2 461.23 252.65 462.42 250.3C462.16 247.63 462.27 244.92 462.77 242.22L465.4 228.12C465.81 225.93 466.45 223.84 467.32 221.87C467.22 219.72 467.38 217.53 467.78 215.36L470.16 202.6C477.3 164.31 502.62 150.02 523.94 149.41L535.85 149.39L628 149.39C628.48 149.38 629.14 149.37 629.94 149.37C636.95 149.37 647.15 150.14 656 153.85L717.7 180.14C745.61 192.03 761.47 224.17 755.4 256.57L717.22 460.27C715.92 467.25 713.28 473.8 709.55 479.54L709.55 504.28C709.55 537.56 684.77 564.63 654.3 564.63L638.17 564.63L638.17 677.56C677.08 681.25 704.4 688.97 719.61 700.61L719.66 700.54L742.95 716.66C764.08 729.49 767.27 746.43 767.27 755.47C767.27 796.45 711.4 807.56 693.04 811.21C664.71 816.85 626.19 820.21 590 820.21ZM668.38 239.08C670.22 235.9 672.63 233.11 675.44 230.84L661.18 224.77C661.55 227.82 661.46 230.96 660.88 234.1L660.24 237.55L668.38 239.08Z" />
				</g>
				<g id="&lt;Group&gt;">
					<g id="&lt;Group&gt;">
						<path id="&lt;Path&gt;" class="shp2" d="M668.48 344.43C666.06 344.43 664.1 346.75 664.1 349.6C664.1 352.46 666.06 354.77 668.48 354.77C670.9 354.77 672.86 352.46 672.86 349.6C672.86 346.75 670.9 344.43 668.48 344.43Z" />
						<path id="&lt;Path&gt;" class="shp2" d="M643.01 235.51C639.76 249.47 636.7 263.49 633.86 277.55C630.97 291.61 628.25 305.71 625.58 319.83C620.34 348.08 615.34 376.4 611.25 404.95C617.75 377.03 623.33 348.86 628.67 320.63C631.3 306.51 633.88 292.37 636.28 278.19C638.73 264.02 640.97 249.79 643.01 235.51Z" />
						<path id="&lt;Path&gt;" class="shp2" d="M519.3 424.57C506 424.6 492.7 424.86 479.4 425.96C492.7 427.07 506 427.32 519.3 427.35C532.6 427.31 545.9 427.05 559.2 425.96C545.9 424.87 532.6 424.61 519.3 424.57Z" />
						<path id="&lt;Compound Path&gt;" fill-rule="evenodd" class="shp2" d="M740.24 755.47C740.24 783.14 650.39 793.18 590 793.18C529.61 793.18 439.76 783.14 439.76 755.47C439.76 749.78 443.33 744.64 450.38 740.2L475.79 722.73L475.85 722.86C494.01 707.32 551.82 703.56 568.95 702.78L568.95 537.6L529.42 537.6C514.88 537.6 503.06 523.64 503.06 506.48L503.06 448.98L471.29 435.45C462.26 431.61 457.03 420.37 459.1 409.32L460.57 401.45C460.72 400.63 461.44 400.03 462.28 400.03L468.95 400.01L466.84 411.34C465.62 417.82 468.69 424.4 473.98 426.65L537.38 453.66L546.63 453.66C548.34 453.66 550.03 454.01 551.61 454.68L575.66 464.92L583.11 464.92L559.71 454.95C559.11 454.7 559.27 453.66 559.9 453.66L570.3 453.66C572.05 453.66 573.78 454.01 575.39 454.7L599.39 464.92L606.84 464.92L583.43 454.95C582.84 454.7 582.99 453.66 583.63 453.66L594.09 453.66C595.8 453.66 597.49 454.01 599.06 454.68L623.11 464.92L630.57 464.92L607.16 454.95C606.57 454.7 606.72 453.66 607.35 453.66L615.4 453.66L605.28 449.08L589.21 441.8L577.16 436.34C575.99 435.82 574.06 434.93 572.54 433.82C569.44 431.54 566.89 428.24 565.33 424.38C563.72 420.55 563.13 416.16 563.54 411.96C563.58 411.43 563.67 410.91 563.75 410.4C563.84 409.89 563.92 409.32 564.01 408.95L564.51 406.48L565.52 401.55L565.91 399.64L468.97 399.97L470.46 391.98L522.39 390.66L464.85 389.56C463.78 389.54 462.98 388.55 463.17 387.5L465.8 373.39C465.96 372.57 466.68 371.97 467.51 371.97L474.19 371.94L472.74 379.73C472.54 380.81 473.36 381.8 474.46 381.79L569.63 381.47L571.65 371.58L474.24 371.91L475.72 363.94L536.65 362.57L470.09 361.49C469.02 361.47 468.21 360.49 468.41 359.43L471.04 345.33C471.19 344.51 471.91 343.91 472.75 343.9L479.42 343.88L477.97 351.67C477.77 352.74 478.6 353.73 479.69 353.73L575.37 353.41L575.62 352.18L577.39 343.51L479.44 343.85L480.93 335.89L544.64 334.5L475.33 333.42C474.25 333.4 473.45 332.42 473.64 331.36L476.27 317.27C476.43 316.44 477.14 315.84 477.98 315.84L484.66 315.82L483.2 323.6C483 324.68 483.83 325.67 484.92 325.67L581.11 325.34L583.13 315.45L484.71 315.78L486.19 307.83L558.04 306.41L480.57 305.36C479.49 305.34 478.68 304.36 478.88 303.29L481.51 289.2C481.66 288.38 482.38 287.78 483.21 287.78L489.89 287.76L488.44 295.54C488.24 296.62 489.06 297.61 490.16 297.6L586.84 297.28L588.87 287.39L489.91 287.72L491.39 279.82L562.43 278.41L485.79 277.37C484.71 277.35 483.9 276.37 484.1 275.3L486.42 262.85C486.57 262.03 487.28 261.44 488.1 261.42L494.83 261.29L493.67 267.48C493.47 268.55 494.3 269.55 495.39 269.54L592.58 269.21L594.61 259.32L539.26 259.51L495.29 258.91L496.64 251.71L568.52 250.28L491.04 249.23C489.96 249.22 489.15 248.23 489.35 247.17L491.97 233.08C492.13 232.25 492.85 231.66 493.68 231.65L500.36 231.63L498.91 239.42C498.7 240.49 499.53 241.48 500.63 241.48L598.32 241.15L599.85 233.69L600.35 231.26L500.38 231.59L502.11 222.35L496.08 222.37C494.98 222.37 494.16 221.38 494.36 220.3L496.73 207.55C500.35 188.18 510.54 176.84 524.71 176.43L535.87 176.42L628.41 176.42C628.71 176.41 639 176.04 645.55 178.78L707.1 205.01C723.18 211.86 732.53 231.89 728.83 251.59L690.65 455.29C689.55 461.18 686.63 466.32 682.52 469.78L682.52 504.28C682.52 522.65 669.86 537.6 654.3 537.6L611.13 537.6L611.13 702.78C628.25 703.57 686.02 707.33 704.16 722.87L704.22 722.73C704.22 722.74 726.52 738.17 728.31 739.4C736.34 744.11 740.24 749.36 740.24 755.47ZM643.75 513.19C643.93 511.99 644.11 510.79 644.13 509.57C644.21 508.4 644.17 506.89 644.19 505.56L644.25 497.33L644.36 480.89L644.8 415.09L645.24 349.29L645.29 341.07L645.32 336.96C645.32 336.31 645.32 335.54 645.4 334.75C645.47 333.98 645.63 333.22 645.83 332.48C645.84 332.47 645.84 332.46 645.85 332.45C644.38 332.75 643.26 334.25 643.26 336.06L643.26 507.95C643.26 518.05 637.37 526.02 628.97 528.25L633.1 528.25C634.63 527.5 636.08 526.52 637.38 525.29C640.57 522.26 642.87 517.93 643.75 513.19ZM674.6 362.73C672.78 363.91 670.7 364.6 668.48 364.6C668.37 364.6 668.26 364.59 668.15 364.58L668.15 364.62C656.14 364.62 651.86 356.86 651.86 349.6C651.86 343.99 653.96 334.58 667.97 334.58L667.97 334.63C668.14 334.62 668.31 334.6 668.48 334.6C670.7 334.6 672.78 335.27 674.6 336.45L674.6 336.06C674.6 334.03 673.2 332.39 671.49 332.39L648.28 332.39C648.16 332.69 648.05 333 647.96 333.32C647.82 333.89 647.7 334.46 647.66 335.06C647.6 335.63 647.61 336.24 647.62 336.96L647.64 341.07L647.7 349.29L648.14 415.09L648.58 480.89L648.68 497.33L648.74 505.56C648.73 506.97 648.8 508.2 648.73 509.77C648.72 511.29 648.52 512.8 648.31 514.31C647.4 519.58 645.11 524.48 641.86 528.25L643.03 528.25C643.51 527.8 643.97 527.28 644.39 526.72C646.08 524.49 647.31 521.61 648.14 518.58C648.95 515.53 649.37 512.3 649.43 509.05L649.58 498.72L651.31 374.59L653.03 498.72L653.17 509.08C653.19 512.72 652.8 516.39 651.93 519.94C651.5 521.67 650.95 523.39 650.26 525.04C651.39 523.12 652.26 520.9 652.89 518.58C653.71 515.53 654.13 512.3 654.19 509.05L654.33 498.72L654.91 457.34L656.06 374.59L657.21 457.34L657.79 498.72L657.93 509.08C657.94 512.72 657.55 516.39 656.69 519.94C656.25 521.67 655.7 523.39 655.01 525.04C656.14 523.12 657.01 520.9 657.65 518.58C658.46 515.53 658.88 512.3 658.94 509.05L659.09 498.72L659.66 457.34L660.81 374.59L661.97 457.34L662.54 498.72L662.68 509.08C662.7 512.72 662.31 516.39 661.44 519.94C661.01 521.67 660.46 523.39 659.77 525.04C660.89 523.12 661.77 520.9 662.4 518.58C663.22 515.53 663.64 512.3 663.69 509.05L663.84 498.72L665.57 374.59L666.72 457.34L667.3 498.72L667.44 509.08C667.45 512.72 667.06 516.39 666.19 519.94C665.77 521.63 665.23 523.3 664.56 524.92C664.57 524.91 664.58 524.9 664.59 524.9C665.69 523.01 666.54 520.84 667.15 518.58C667.97 515.53 668.39 512.3 668.45 509.05L668.59 498.72L670.32 374.59L672.05 498.72L672.19 509.08C672.2 511.66 672 514.24 671.58 516.79C672.03 515.92 672.45 515.01 672.81 514.06C673.04 512.41 673.17 510.73 673.2 509.05L673.35 498.72L673.93 457.34L674.6 409.05L674.6 362.73ZM635.33 448.97L635.33 336.06C635.33 328.88 640.29 323.03 646.37 323.03L671.49 323.03C677.57 323.03 682.52 328.88 682.52 336.06L682.52 337.23L703.03 345.94L704.8 336.49L680.15 325.59C679.01 325.08 678.36 323.66 678.62 322.26L680.95 309.75C681.27 308.04 682.79 307.06 684.18 307.65L708.29 317.89L710.06 308.44L685.38 297.52C684.24 297.02 683.58 295.6 683.85 294.19L686.18 281.68C686.5 279.98 688.02 279 689.41 279.59L713.55 289.84L715.32 280.39L690.61 269.46C689.47 268.96 688.81 267.54 689.08 266.13L691.41 253.62C691.73 251.92 693.25 250.93 694.64 251.52L718.81 261.79L721.1 249.57C723.93 234.44 716.76 219.07 704.41 213.81L642.88 187.59C638.64 185.82 631.09 185.68 628.53 185.77L524.81 185.79C524.49 185.8 524.19 185.85 523.87 185.87C522.35 186.59 520.88 187.53 519.52 188.68C517.76 190.17 516.21 192.06 514.83 194.12C512.06 198.29 510.18 203.34 508.83 208.56C509.54 203.17 510.79 197.75 513.18 192.83C513.87 191.41 514.67 190.03 515.54 188.71C509 193.15 505.9 201.9 504.47 209.57L503.75 213.42L604.06 213.08C604.69 210.09 605.19 207.03 606.15 204.12C607.18 200.93 608.61 197.94 610.36 195.26C608.7 198.02 607.39 201.06 606.48 204.25C605.63 207.16 605.23 210.23 604.71 213.26L632.35 225C633.8 225.62 634.63 227.4 634.3 229.18L632.15 240.69C631.75 242.83 629.83 244.06 628.09 243.29L601.62 231.58L601.2 234.04L599.94 241.52L627.12 253.07C628.57 253.68 629.4 255.47 629.07 257.24L626.92 268.75C626.52 270.89 624.6 272.12 622.86 271.35L596.85 259.84L595.18 269.78L621.89 281.13C623.34 281.74 624.17 283.53 623.84 285.3L621.69 296.81C621.29 298.96 619.37 300.18 617.63 299.41L592.08 288.11L590.41 298.04L616.66 309.19C618.11 309.81 618.94 311.59 618.61 313.36L616.46 324.88C616.06 327.02 614.14 328.25 612.4 327.48L587.32 316.38L585.64 326.3L611.43 337.26C612.88 337.87 613.71 339.66 613.38 341.43L611.23 352.94C610.83 355.08 608.91 356.31 607.17 355.54L582.55 344.65L581.04 353.59L580.88 354.56L606.2 365.32C607.65 365.93 608.48 367.72 608.15 369.49L606 381C605.6 383.15 603.69 384.37 601.94 383.6L577.78 372.91L576.11 382.82L600.97 393.38C602.42 394 603.25 395.78 602.92 397.55L600.77 409.06C600.37 411.21 598.46 412.44 596.71 411.67L573.01 401.18L572.64 403.4L571.8 408.38L571.38 410.87C571.29 411.33 571.27 411.6 571.23 411.92C571.19 412.24 571.14 412.55 571.14 412.87C570.78 417.94 573.13 423.02 576.8 425.37C578.31 426.36 581.51 427.42 584.12 428.53L608.58 438.29L635.33 448.97ZM678.02 349.6C678.02 343.39 673.74 338.34 668.48 338.34C663.22 338.34 658.94 343.39 658.94 349.6C658.94 355.81 663.22 360.86 668.48 360.86C671.45 360.86 674.2 359.27 676.03 356.49C677.33 354.51 678.02 352.12 678.02 349.6ZM683.77 448.7L682.52 448.14L682.52 454.91C682.68 454.37 682.81 453.83 682.92 453.27L683.77 448.7ZM689.03 420.65L682.52 417.77L682.52 428.08L687.26 430.1L689.03 420.65ZM694.29 392.6L682.52 387.39L682.52 397.8L692.52 402.05L694.29 392.6ZM699.55 364.55L680.01 355.9C679.61 356.93 679.11 357.9 678.53 358.78C678.53 358.78 678.53 358.78 678.53 358.78L682.52 358.78L682.52 367.51L697.78 373.99L699.55 364.55ZM656.73 357.33L656.65 357.39C655.28 355.22 654.51 352.55 654.31 349.83C654.13 347.09 654.73 344.27 656.01 341.93C656.59 340.86 657.33 339.93 658.12 339.08C655.06 341.26 653.45 344.78 653.45 349.6C653.45 355.03 655.99 359.07 660.38 361.16C657.56 358.41 655.77 354.25 655.77 349.6C655.77 345.69 657.06 342.15 659.14 339.48C659.07 339.54 658.99 339.6 658.92 339.66C658.07 340.48 657.29 341.39 656.67 342.45C655.42 344.57 654.79 347.18 654.85 349.8C654.91 352.42 655.57 355.03 656.73 357.33ZM545.89 496.79C545.89 502.76 550.01 507.63 555.07 507.63L635.33 507.63L635.33 474.28C635.31 474.28 566.02 474.28 565.99 474.28C565.96 474.28 562.64 474.28 562.61 474.28L562.61 473.94C561.4 473.7 560.21 473.33 559.04 472.83L545.89 467.23L545.89 496.79ZM527.33 528.1C519.1 525.68 512.68 517.79 511.04 507.89C511.62 518.41 518.54 526.92 527.33 528.1ZM624.16 519.53C626.72 519.53 629.37 518.7 631.45 516.98L555.07 516.98C545.64 516.98 537.97 507.92 537.97 496.79L537.97 463.85L536.54 463.24L535.15 507.59L533.8 462.08L531.74 461.2L530.4 504.36L529.08 460.07L526.95 459.16L525.65 501.13L524.36 458.06L522.16 457.12L520.89 497.9L519.64 456.05L518.55 455.58L518.55 502.92C518.55 512.08 524.87 519.53 532.63 519.53L624.16 519.53ZM478.26 733.15C478.26 739.06 512.62 754.6 590 754.6C620.08 754.6 643.64 752.25 661.23 749.03C647.38 751 630.95 752.15 613.31 752.15C564.02 752.15 524.06 743.22 524.06 732.21C524.06 725.57 538.62 719.69 560.99 716.07L557.67 728.96L557.67 730.35C557.67 740.51 567.05 744.65 590.04 744.65C613.03 744.65 622.41 740.51 622.41 730.35L622.41 728.96L618.16 712.48C616.77 712.41 615.37 712.33 613.97 712.27L618.45 729.65L618.45 730.35C618.45 732.98 618.45 739.97 590.04 739.97C561.63 739.97 561.63 732.98 561.63 730.35L561.63 729.65L566.12 712.26C541.9 713.42 519.88 716.33 503.53 720.57C479.35 726.85 478.26 733.09 478.26 733.15ZM590.04 712.5C595.92 712.5 600.31 712.01 603.21 711.45L603.21 537.6L599.6 537.6L596.57 690.84L593.55 537.6L588.6 537.6L588.6 712.49C589.07 712.5 589.55 712.5 590.04 712.5ZM572.42 719.94L570.23 728.43C573.33 729.43 580.18 730.62 590.04 730.62C599.9 730.62 606.75 729.43 609.85 728.43L607.66 719.94C604.13 721.07 598.63 721.86 590.04 721.86C581.45 721.86 575.95 721.07 572.42 719.94ZM527.68 765.05C545.16 766.7 562.7 767.4 580.22 767.4C597.74 767.4 615.25 766.71 632.71 765.23C650.15 763.72 667.56 761.48 684.7 757.83C687.65 757.19 690.58 756.48 693.5 755.74C693.46 755.73 693.43 755.72 693.39 755.71C690.89 756.33 688.4 756.91 685.9 757.44C670.01 760.7 654.01 762.52 638.01 763.64C622 764.73 605.97 765.05 589.96 764.69C573.96 764.33 557.97 763.37 542.05 761.66C543.09 761.73 544.14 761.77 545.18 761.84C511.01 758.63 476.09 751.32 470.99 736.85L454.24 748.37C449.37 751.44 447.68 754.03 447.68 755.47C447.68 765.36 496.56 783.82 590 783.82C590.67 783.82 591.31 783.81 591.97 783.81C588.5 783.74 585.03 783.67 581.56 783.55C564.02 782.92 546.49 781.59 529.05 779.33C546.54 780.97 564.07 781.68 581.59 781.68C599.11 781.67 616.62 780.99 634.08 779.5C651.52 777.99 668.93 775.76 686.08 772.1C688.4 771.6 690.71 771.06 693.03 770.5C693.03 770.47 693.04 770.45 693.04 770.43C691.12 770.88 689.19 771.31 687.27 771.71C671.38 774.98 655.38 776.8 639.38 777.92C623.37 779 607.34 779.33 591.34 778.97C575.33 778.6 559.34 777.64 543.42 775.94C559.38 777.01 575.37 777.34 591.34 777.07C607.31 776.81 623.26 775.87 639.14 774.17C648.12 773.19 657.08 771.98 665.98 770.43C658.31 771.34 650.6 771.94 643.11 772.62C629.07 773.85 615 774.4 600.95 774.31C593.92 774.35 586.9 773.88 579.89 773.52L558.86 772.42L579.91 772.59C586.92 772.63 593.92 772.79 600.93 772.44C614.93 771.9 628.91 770.74 642.81 768.89C645.3 768.56 647.79 768.19 650.28 767.8C644.49 768.28 638.69 768.67 632.89 768.96C615.32 769.83 597.74 769.89 580.19 769.27C562.64 768.65 545.12 767.32 527.68 765.05Z" />
					</g>
				</g>
			</g>
			<g id="&lt;Group&gt;">
				<g id="&lt;Group&gt;">
					<path id="&lt;Path&gt;" class="shp2" d="M1077.95 938.69C764.49 1062.8 415.51 1062.8 102.05 938.69C124.2 882.73 146.36 826.77 168.52 770.81C439.28 878.02 740.72 878.02 1011.48 770.81C1033.64 826.77 1055.79 882.73 1077.95 938.69Z" />
				</g>
				<path id="SOU FODA " fill="#ffffff" aria-label="SOU FODA"  d="M332.69 874.17C332.69 874.17 331.49 878.71 330.29 883.24C329.08 887.77 327.88 892.31 327.88 892.31C326.34 891.24 324.52 890.11 322.42 888.91C320.37 887.68 318.18 886.49 315.86 885.36C313.58 884.23 311.24 883.2 308.83 882.28C306.43 881.31 304.13 880.57 301.93 880.05C298.1 879.14 294.99 878.89 292.6 879.31C290.21 879.72 288.74 881.04 288.19 883.27C287.93 884.33 288.07 885.36 288.61 886.36C289.19 887.34 290.1 888.35 291.33 889.39C292.56 890.39 294.07 891.46 295.84 892.59C297.67 893.68 299.7 894.87 301.93 896.13C301.93 896.13 306.14 898.53 306.14 898.53C309.69 900.49 312.81 902.6 315.49 904.84C318.19 907.04 320.35 909.43 321.98 912.01C323.67 914.55 324.79 917.3 325.35 920.26C325.92 923.22 325.84 926.44 325.12 929.91C324.27 933.97 322.79 937.53 320.68 940.59C318.61 943.62 315.85 946 312.38 947.73C308.91 949.45 304.7 950.44 299.77 950.71C297.32 950.84 294.67 950.74 291.82 950.43C288.97 950.11 285.92 949.57 282.67 948.8C279.79 948.11 276.94 947.31 274.13 946.4C271.31 945.48 268.54 944.45 265.79 943.3C263.07 942.16 260.38 940.84 257.72 939.36C255.07 937.87 252.44 936.2 249.85 934.37C249.85 934.37 251.13 929.55 252.41 924.73C253.69 919.91 254.97 915.09 254.97 915.09C257.34 917.09 259.71 918.91 262.1 920.54C264.49 922.16 266.89 923.6 269.29 924.86C274.15 927.32 279.09 929.16 284.09 930.37C288.21 931.35 291.34 931.45 293.49 930.67C295.68 929.89 297.03 928.42 297.52 926.26C297.82 924.97 297.72 923.79 297.21 922.72C296.75 921.62 295.84 920.5 294.47 919.35C293.14 918.21 291.33 916.95 289.04 915.58C286.77 914.16 284 912.52 280.74 910.64C277.47 908.79 274.53 906.74 271.91 904.5C269.33 902.26 267.24 899.83 265.62 897.2C264.02 894.53 262.98 891.65 262.47 888.56C262.02 885.48 262.26 882.16 263.21 878.62C264.18 874.96 265.75 871.79 267.89 869.1C270.03 866.42 272.75 864.36 276.05 862.93C279.35 861.45 283.24 860.64 287.72 860.48C292.24 860.32 297.39 860.94 303.17 862.33C305.46 862.87 307.87 863.54 310.4 864.34C312.93 865.13 315.48 866.02 318.05 867.01C320.67 868.01 323.22 869.11 325.71 870.32C328.2 871.52 330.52 872.8 332.69 874.17ZM379.99 968.23C374.29 967.29 369.31 965.88 365.03 964C360.77 962.07 357.11 959.8 354.06 957.19C351.07 954.55 348.65 951.64 346.8 948.46C345.02 945.25 343.69 941.9 342.82 938.41C342 934.88 341.61 931.27 341.63 927.58C341.7 923.9 342.09 920.22 342.82 916.54C343.54 912.9 344.64 909.38 346.13 905.98C347.62 902.53 349.47 899.34 351.67 896.4C353.86 893.45 356.4 890.82 359.3 888.5C362.2 886.17 365.42 884.29 368.97 882.85C372.51 881.4 376.37 880.45 380.56 879.99C384.78 879.53 389.32 879.7 394.2 880.5C399.07 881.28 403.42 882.55 407.23 884.31C411.09 886.07 414.47 888.2 417.37 890.69C420.32 893.18 422.8 895.99 424.81 899.11C426.82 902.22 428.4 905.52 429.55 909.01C430.74 912.5 431.51 916.11 431.83 919.85C432.17 923.55 432.11 927.24 431.64 930.92C431.17 934.64 430.36 938.25 429.23 941.76C428.08 945.27 426.55 948.57 424.62 951.65C422.74 954.7 420.43 957.46 417.68 959.94C414.93 962.38 411.72 964.38 408.06 965.94C404.39 967.45 400.2 968.45 395.51 968.94C390.86 969.37 385.69 969.14 379.99 968.23ZM371 921.78C370.16 926.54 369.81 930.67 369.95 934.17C370.12 937.68 370.71 940.63 371.71 943C372.75 945.39 374.19 947.25 376.04 948.58C377.93 949.92 380.17 950.8 382.74 951.22C385.32 951.63 387.7 951.5 389.87 950.82C392.08 950.15 394.06 948.84 395.8 946.91C397.58 944.98 399.09 942.37 400.32 939.09C401.6 935.82 402.59 931.79 403.3 927C404.01 922.22 404.25 918.08 404 914.58C403.81 911.04 403.17 908.09 402.09 905.73C401.06 903.33 399.63 901.46 397.81 900.11C396.04 898.77 393.91 897.9 391.44 897.51C388.97 897.1 386.66 897.25 384.51 897.96C382.4 898.67 380.48 900 378.74 901.95C377.05 903.87 375.53 906.47 374.19 909.75C372.89 913 371.83 917.01 371 921.78ZM485.28 981.09C482.02 980.81 478.94 980.33 476.05 979.64C473.15 978.94 470.45 978.04 467.93 976.93C462.95 974.66 458.84 971.59 455.6 967.73C452.38 963.81 450.12 959.11 448.82 953.61C448.17 950.86 447.79 947.91 447.67 944.76C447.55 941.62 447.7 938.27 448.1 934.73C448.1 934.73 448.42 931.95 448.89 927.78C449.37 923.62 450 918.06 450.64 912.5C451.27 906.95 451.9 901.39 452.38 897.22C452.86 893.06 453.17 890.28 453.17 890.28C453.17 890.28 460.04 891.04 466.92 891.77C473.8 892.46 480.68 893.11 480.68 893.11C480.68 893.11 480.42 895.91 480.03 900.09C479.65 904.28 479.13 909.86 478.62 915.45C478.1 921.03 477.59 926.62 477.2 930.8C476.82 934.99 476.56 937.78 476.56 937.78C476.19 941.76 476.08 945.31 476.23 948.44C476.37 951.57 476.86 954.26 477.7 956.52C478.54 958.74 479.77 960.49 481.4 961.77C483.03 963.04 485.15 963.79 487.74 964C490.59 964.23 492.93 963.85 494.75 962.86C496.6 961.87 498.08 960.34 499.19 958.28C500.34 956.18 501.2 953.6 501.76 950.53C502.33 947.46 502.75 943.93 503.04 939.95C503.04 939.95 503.24 937.16 503.54 932.96C503.84 928.77 504.24 923.17 504.65 917.58C505.05 911.99 505.45 906.4 505.75 902.2C506.05 898.01 506.25 895.21 506.25 895.21C506.25 895.21 512.01 895.61 517.76 895.98C523.52 896.33 529.27 896.65 529.27 896.65C529.27 896.65 529.12 899.45 528.9 903.63C528.67 907.82 528.37 913.41 528.07 918.99C527.77 924.58 527.47 930.16 527.25 934.35C527.03 938.54 526.88 941.33 526.88 941.33C526.68 944.91 526.32 948.25 525.77 951.35C525.23 954.45 524.51 957.3 523.61 959.92C521.8 965.15 519.18 969.44 515.76 972.79C512.36 976.09 508.13 978.44 503.07 979.84C500.56 980.53 497.82 980.98 494.86 981.19C491.89 981.4 488.7 981.36 485.28 981.09ZM594.06 983.97C594.06 983.97 594.08 978.62 594.1 970.61C594.11 966.6 594.12 961.93 594.13 956.92C594.14 954.41 594.14 951.83 594.15 949.2C594.16 946.57 594.16 943.89 594.17 941.22C594.18 938.55 594.19 935.88 594.19 933.25C594.2 930.62 594.21 928.03 594.21 925.53C594.22 920.52 594.24 915.85 594.25 911.84C594.27 903.82 594.28 898.48 594.28 898.48C594.28 898.48 598.01 898.49 603.6 898.47C606.4 898.45 609.66 898.43 613.16 898.39C616.66 898.34 620.39 898.28 624.11 898.21C627.84 898.13 631.57 898.03 635.07 897.93C638.56 897.83 641.82 897.72 644.62 897.62C650.21 897.4 653.94 897.24 653.94 897.24C653.94 897.24 654.11 901.19 654.29 905.15C654.46 909.1 654.64 913.06 654.64 913.06C654.64 913.06 652.61 913.15 649.57 913.28C646.53 913.39 642.48 913.54 638.42 913.68C634.37 913.8 630.31 913.91 627.27 913.98C624.23 914.05 622.2 914.09 622.2 914.09C622.2 914.09 622.29 918.65 622.37 923.22C622.46 927.78 622.55 932.34 622.55 932.34C622.55 932.34 629.76 932.19 636.97 931.99C644.19 931.75 651.4 931.47 651.4 931.47C651.4 931.47 651.58 935.82 651.76 940.17C651.94 944.52 652.12 948.87 652.12 948.87C652.12 948.87 644.81 949.15 637.5 949.39C630.19 949.59 622.88 949.75 622.88 949.75C622.88 949.75 622.92 951.87 622.98 955.06C623.04 958.24 623.12 962.49 623.2 966.74C623.29 970.98 623.37 975.23 623.43 978.41C623.49 981.6 623.53 983.72 623.53 983.72C623.53 983.72 616.16 983.84 608.8 983.92C601.43 983.96 594.06 983.97 594.06 983.97ZM714.08 980.73C708.35 981.21 703.18 981.05 698.58 980.27C693.99 979.43 689.9 978.12 686.32 976.34C682.79 974.51 679.74 972.28 677.19 969.64C674.68 966.96 672.58 964.04 670.89 960.86C669.25 957.64 667.99 954.24 667.11 950.65C666.28 947.06 665.77 943.39 665.58 939.65C665.39 935.95 665.6 932.26 666.21 928.6C666.81 924.9 667.82 921.35 669.23 917.96C670.63 914.57 672.45 911.4 674.69 908.44C676.91 905.48 679.57 902.87 682.65 900.61C685.72 898.34 689.22 896.48 693.16 895.01C697.13 893.54 701.56 892.59 706.47 892.18C711.39 891.75 715.9 891.92 720.02 892.71C724.19 893.47 727.98 894.71 731.4 896.42C734.86 898.12 737.95 900.23 740.65 902.77C743.37 905.31 745.7 908.12 747.66 911.22C749.67 914.31 751.29 917.63 752.52 921.18C753.75 924.69 754.59 928.28 755.03 931.96C755.48 935.68 755.58 939.38 755.33 943.07C755.08 946.75 754.4 950.32 753.28 953.78C752.2 957.19 750.63 960.44 748.57 963.51C746.5 966.54 743.88 969.26 740.7 971.67C737.52 974.03 733.71 976.02 729.28 977.63C724.89 979.19 719.82 980.22 714.08 980.73ZM694.08 937.87C694.44 942.69 695.1 946.78 696.08 950.15C697.11 953.5 698.39 956.22 699.93 958.28C701.52 960.34 703.37 961.79 705.48 962.64C707.64 963.47 710.02 963.78 712.61 963.56C715.2 963.33 717.47 962.63 719.41 961.44C721.39 960.25 722.99 958.5 724.2 956.2C725.45 953.89 726.28 951 726.67 947.52C727.11 944.03 727.09 939.88 726.61 935.07C726.14 930.26 725.36 926.18 724.27 922.85C723.22 919.47 721.88 916.76 720.26 914.73C718.67 912.65 716.84 911.19 714.75 910.33C712.7 909.46 710.44 909.13 707.95 909.35C705.46 909.56 703.26 910.27 701.36 911.48C699.49 912.68 697.95 914.43 696.74 916.75C695.57 919.02 694.74 921.91 694.24 925.43C693.78 928.9 693.73 933.04 694.08 937.87ZM809.16 967.4C809.16 967.4 801.21 968.63 793.25 969.81C785.28 970.95 777.31 972.03 777.31 972.03C777.31 972.03 776.61 966.74 775.55 958.79C775.02 954.82 774.4 950.19 773.74 945.22C773.41 942.74 773.06 940.17 772.72 937.57C772.37 934.96 772.01 932.31 771.66 929.67C771.31 927.02 770.95 924.37 770.61 921.76C770.26 919.16 769.92 916.59 769.59 914.11C768.92 909.14 768.31 904.51 767.78 900.54C766.72 892.59 766.01 887.3 766.01 887.3C766.01 887.3 773.54 886.27 781.06 885.2C788.58 884.08 796.09 882.92 796.09 882.92C799.8 882.33 803.35 881.97 806.74 881.85C810.14 881.72 813.39 881.83 816.49 882.17C819.59 882.49 822.5 883.06 825.23 883.89C827.96 884.71 830.5 885.8 832.87 887.14C835.25 888.46 837.44 890.04 839.43 891.89C841.42 893.73 843.22 895.84 844.81 898.22C846.43 900.58 847.81 903.21 848.96 906.13C850.12 909.05 851.04 912.24 851.73 915.72C852.77 921.02 853.11 925.88 852.75 930.31C852.42 934.68 851.47 938.67 849.9 942.25C848.37 945.82 846.27 949.01 843.59 951.81C840.93 954.55 837.86 956.97 834.36 959.07C830.84 961.12 826.94 962.84 822.67 964.22C818.44 965.58 813.94 966.64 809.16 967.4ZM796.12 900.78C796.12 900.78 796.59 903.78 797.29 908.27C797.64 910.52 798.04 913.14 798.48 915.94C798.92 918.75 799.38 921.74 799.85 924.74C800.32 927.73 800.78 930.73 801.22 933.53C801.65 936.34 802.06 938.96 802.41 941.21C803.11 945.7 803.58 948.69 803.58 948.69C803.58 948.69 805.5 948.39 805.5 948.39C808.84 947.86 811.84 947.1 814.49 946.09C817.12 945.04 819.26 943.5 820.89 941.47C822.56 939.43 823.63 936.77 824.12 933.49C824.64 930.21 824.45 926.03 823.57 920.95C822.76 916.34 821.64 912.59 820.19 909.69C818.74 906.75 816.97 904.52 814.87 903C812.78 901.43 810.37 900.49 807.64 900.16C804.91 899.79 801.88 899.87 798.54 900.41C798.54 900.41 796.12 900.78 796.12 900.78ZM909.73 859.64C909.73 859.64 912.5 864.45 916.7 871.65C918.8 875.25 921.27 879.44 923.92 883.93C925.25 886.17 926.62 888.49 928.03 890.84C929.43 893.19 930.86 895.58 932.29 897.96C933.73 900.35 935.17 902.73 936.59 905.07C938.01 907.42 939.41 909.72 940.77 911.95C943.5 916.41 946.05 920.56 948.25 924.12C952.66 931.23 955.62 935.96 955.62 935.96C955.62 935.96 953.49 936.54 950.28 937.41C947.07 938.27 942.79 939.4 938.51 940.51C934.23 941.62 929.94 942.71 926.72 943.51C923.5 944.31 921.36 944.84 921.36 944.84C921.36 944.84 919.21 940.68 917.08 936.52C914.95 932.36 912.83 928.19 912.83 928.19C912.83 928.19 907.25 929.52 901.68 930.84C896.09 932.12 890.5 933.39 890.5 933.39C890.5 933.39 890.49 938.05 890.47 942.72C890.44 947.38 890.41 952.05 890.41 952.05C890.41 952.05 884.58 953.32 878.74 954.57C872.9 955.79 867.06 956.99 867.06 956.99C867.06 956.99 867.45 951.46 868.02 943.16C868.29 939.01 868.6 934.18 868.92 928.99C869.08 926.4 869.24 923.73 869.4 921C869.56 918.28 869.71 915.52 869.87 912.76C870.02 910 870.17 907.23 870.31 904.52C870.45 901.8 870.58 899.12 870.71 896.53C870.96 891.36 871.18 886.52 871.37 882.38C871.71 874.1 871.93 868.59 871.93 868.59C871.93 868.59 874.3 868.06 877.85 867.27C881.4 866.46 886.13 865.37 890.85 864.26C895.58 863.13 900.3 861.99 903.83 861.12C907.37 860.24 909.73 859.64 909.73 859.64ZM891.6 877.75C891.6 877.75 889.71 878.19 889.71 878.19C889.71 878.19 889.75 880.74 889.81 884.56C889.86 888.38 889.92 893.48 889.98 898.57C890.03 903.67 890.07 908.77 890.09 912.6C890.11 916.42 890.12 918.97 890.12 918.97C890.12 918.97 894.63 917.95 899.13 916.9C903.63 915.85 908.12 914.77 908.12 914.77C908.12 914.77 907.08 912.46 905.51 909C903.95 905.53 901.87 900.91 899.8 896.28C897.74 891.65 895.69 887.02 894.15 883.54C892.62 880.07 891.6 877.75 891.6 877.75Z" />
			</g>
			<g id="&lt;Group&gt;">
				<path id="• podcast •
" fill="#1b1f23" aria-label="• podcast •"  d="M299.75 1114.31Q296.62 1114.31 294.3 1113.25Q291.97 1112.15 290.4 1110.42Q288.84 1108.64 288.08 1106.4Q287.32 1104.16 287.32 1101.79Q287.32 1099.38 288.08 1097.09Q288.88 1094.81 290.45 1092.99Q292.01 1091.17 294.34 1090.07Q296.67 1088.97 299.75 1088.97Q302.84 1088.97 305.13 1090.07Q307.45 1091.17 309.02 1092.99Q310.58 1094.77 311.34 1097.09Q312.15 1099.38 312.15 1101.75Q312.15 1104.11 311.39 1106.4Q310.63 1108.64 309.06 1110.42Q307.49 1112.15 305.17 1113.25Q302.84 1114.31 299.75 1114.31ZM366.42 1127L366.42 1067.18L389.52 1067.18Q395.53 1067.18 400.05 1067.95Q404.62 1068.67 407.96 1070.02Q411.3 1071.37 413.5 1073.28Q415.75 1075.18 417.06 1077.46Q418.41 1079.71 418.96 1082.29Q419.51 1084.87 419.51 1087.62Q419.51 1089.94 418.96 1092.27Q418.45 1094.6 417.18 1096.71Q415.96 1098.83 413.88 1100.65Q411.81 1102.46 408.77 1103.82Q405.76 1105.17 401.62 1105.93Q397.51 1106.69 392.14 1106.69Q391.38 1106.69 390.24 1106.69Q389.1 1106.65 388 1106.57L385.37 1106.4L385.37 1127L366.42 1127ZM385.37 1076.91L385.37 1097.22L389.73 1097.22Q392.78 1097.22 394.85 1096.5Q396.92 1095.74 398.19 1094.47Q399.46 1093.2 400.01 1091.47Q400.56 1089.73 400.56 1087.74Q400.56 1084.57 399.76 1082.5Q398.95 1080.43 397.47 1079.2Q396.03 1077.93 394.05 1077.42Q392.06 1076.91 389.73 1076.91L385.37 1076.91ZM456.36 1128.23Q450.81 1128.23 446.46 1127.04Q442.1 1125.82 438.76 1123.7Q435.46 1121.54 433.13 1118.62Q430.85 1115.66 429.37 1112.24Q427.93 1108.77 427.25 1104.96Q426.62 1101.15 426.62 1097.22Q426.62 1093.33 427.42 1089.52Q428.23 1085.67 429.83 1082.2Q431.44 1078.73 433.89 1075.77Q436.35 1072.81 439.65 1070.65Q442.95 1068.5 447.09 1067.27Q451.28 1066.04 456.36 1066.04Q461.43 1066.04 465.58 1067.27Q469.77 1068.5 473.07 1070.65Q476.41 1072.81 478.86 1075.77Q481.31 1078.73 482.92 1082.2Q484.57 1085.67 485.38 1089.52Q486.18 1093.33 486.18 1097.22Q486.18 1101.15 485.5 1104.96Q484.83 1108.77 483.35 1112.24Q481.91 1115.66 479.58 1118.62Q477.25 1121.54 473.95 1123.7Q470.65 1125.82 466.26 1127.04Q461.9 1128.23 456.36 1128.23ZM445.57 1097.22Q445.57 1102.3 446.29 1105.89Q447.05 1109.49 448.4 1111.77Q449.8 1114.06 451.79 1115.11Q453.82 1116.17 456.36 1116.17Q458.89 1116.17 460.88 1115.11Q462.91 1114.06 464.31 1111.77Q465.75 1109.49 466.47 1105.89Q467.23 1102.3 467.23 1097.22Q467.23 1092.14 466.47 1088.55Q465.75 1084.91 464.31 1082.62Q462.91 1080.3 460.88 1079.2Q458.89 1078.1 456.36 1078.1Q453.82 1078.1 451.79 1079.2Q449.8 1080.3 448.4 1082.62Q447.05 1084.91 446.29 1088.55Q445.57 1092.14 445.57 1097.22ZM517.95 1127L497.3 1127L497.3 1067.18L518.12 1067.18Q525.82 1067.18 531.95 1069Q538.08 1070.78 542.31 1074.46Q546.59 1078.1 548.83 1083.64Q551.11 1089.14 551.11 1096.58Q551.11 1102.25 549.93 1106.74Q548.79 1111.18 546.63 1114.56Q544.51 1117.95 541.47 1120.32Q538.46 1122.64 534.78 1124.17Q531.1 1125.65 526.83 1126.32Q522.6 1127 517.95 1127ZM516.26 1079.54L516.26 1113.46L517.53 1113.46Q520.82 1113.46 523.53 1112.87Q526.24 1112.24 528.14 1110.42Q530.09 1108.6 531.1 1105.3Q532.16 1102 532.16 1096.58Q532.16 1091.68 531.23 1088.42Q530.3 1085.12 528.48 1083.17Q526.66 1081.19 524 1080.38Q521.33 1079.54 517.91 1079.54L516.26 1079.54ZM559.11 1097.22Q559.11 1089.99 561.69 1084.23Q564.31 1078.44 568.75 1074.42Q573.2 1070.36 579.08 1068.2Q584.96 1066.04 591.55 1066.04Q596.17 1066.04 600.95 1066.93Q605.73 1067.82 610.46 1070.15L607.84 1083.68Q604.12 1081.65 600.48 1080.64Q596.84 1079.62 593.8 1079.62Q590.12 1079.62 587.2 1080.85Q584.28 1082.03 582.25 1084.32Q580.22 1086.6 579.12 1089.86Q578.06 1093.12 578.06 1097.22Q578.06 1101.32 579.12 1104.58Q580.22 1107.84 582.25 1110.12Q584.28 1112.41 587.2 1113.63Q590.12 1114.82 593.8 1114.82Q596.84 1114.82 600.48 1113.8Q604.12 1112.79 607.84 1110.76L610.46 1124.29Q605.73 1126.58 600.95 1127.42Q596.17 1128.23 591.55 1128.23Q584.96 1128.23 579.08 1126.11Q573.2 1123.95 568.75 1119.98Q564.31 1115.96 561.69 1110.21Q559.11 1104.45 559.11 1097.22ZM657.71 1067.18L674.17 1127L651.58 1127L648.79 1114.27L633.94 1114.27L631.28 1127L616 1127L631.23 1067.18L657.71 1067.18ZM642.87 1076.49L641.56 1076.49L635.76 1104.37L647.86 1104.37L642.87 1076.49ZM725.1 1069.6L724.47 1082.71Q722.73 1081.95 720.41 1081.19Q718.12 1080.38 715.58 1079.75Q713.09 1079.11 710.51 1078.73Q707.93 1078.31 705.64 1078.31Q701.67 1078.31 699.42 1079.33Q697.18 1080.34 697.18 1082.75Q697.18 1083.89 697.94 1084.78Q698.75 1085.63 700.19 1086.39Q701.62 1087.11 703.61 1087.83Q705.64 1088.5 708.1 1089.27L711.18 1090.24Q715.08 1091.42 718.16 1093.12Q721.25 1094.77 723.37 1097.05Q725.53 1099.29 726.67 1102.21Q727.81 1105.13 727.81 1108.85Q727.81 1113.21 726.41 1116.81Q725.06 1120.36 722.14 1122.9Q719.22 1125.43 714.65 1126.83Q710.13 1128.23 703.74 1128.23Q698.07 1128.23 692.45 1127.3Q686.86 1126.37 681.15 1124.04L681.15 1110.08Q686.61 1112.87 691.73 1114.18Q696.89 1115.45 701.88 1115.45Q705.98 1115.45 707.84 1114.14Q709.75 1112.83 709.75 1110.5Q709.75 1109.11 709.03 1108.13Q708.35 1107.12 706.79 1106.27Q705.26 1105.43 702.77 1104.58Q700.27 1103.69 696.72 1102.59Q693.16 1101.53 690.12 1099.93Q687.12 1098.32 684.92 1096.08Q682.72 1093.79 681.45 1090.79Q680.22 1087.79 680.22 1083.94Q680.22 1079.96 681.62 1076.66Q683.01 1073.36 685.89 1071.03Q688.76 1068.67 693.16 1067.35Q697.61 1066.04 703.7 1066.04Q706.11 1066.04 708.82 1066.25Q711.52 1066.47 714.32 1066.89Q717.15 1067.31 719.9 1067.99Q722.65 1068.67 725.1 1069.6ZM766.47 1127L747.52 1127L747.52 1080.98L733.99 1080.98L733.99 1067.18L780.31 1067.18L780.31 1080.98L766.47 1080.98L766.47 1127ZM834.62 1114.31Q831.49 1114.31 829.17 1113.25Q826.84 1112.15 825.27 1110.42Q823.71 1108.64 822.95 1106.4Q822.19 1104.16 822.19 1101.79Q822.19 1099.38 822.95 1097.09Q823.75 1094.81 825.32 1092.99Q826.88 1091.17 829.21 1090.07Q831.53 1088.97 834.62 1088.97Q837.71 1088.97 840 1090.07Q842.32 1091.17 843.89 1092.99Q845.45 1094.77 846.21 1097.09Q847.02 1099.38 847.02 1101.75Q847.02 1104.11 846.26 1106.4Q845.49 1108.64 843.93 1110.42Q842.36 1112.15 840.04 1113.25Q837.71 1114.31 834.62 1114.31Z" />
			</g>
		</g>
	</g>
</svg>